UoqMunThenKhung-Regular.ufo
<glyph name="quotedbl" format="2">
  <advance width="390" height="1000"/>
  <unicode hex="0022"/>
  <outline>
    <contour>
      <point x="169" y="736" type="qcurve"/>
      <point x="169" y="702"/>
      <point x="160" y="631"/>
      <point x="155" y="596" type="qcurve"/>
      <point x="152" y="577"/>
      <point x="146" y="526"/>
      <point x="141" y="508" type="qcurve"/>
      <point x="140" y="503"/>
      <point x="128" y="483"/>
      <point x="121" y="483" type="qcurve"/>
      <point x="111" y="483"/>
      <point x="103" y="500"/>
      <point x="101" y="508" type="qcurve"/>
      <point x="96" y="533"/>
      <point x="89" y="583"/>
      <point x="86" y="608" type="qcurve"/>
      <point x="82" y="640"/>
      <point x="73" y="705"/>
      <point x="73" y="736" type="qcurve"/>
      <point x="73" y="758"/>
      <point x="100" y="781"/>
      <point x="121" y="781" type="qcurve"/>
      <point x="140" y="781"/>
      <point x="169" y="755"/>
    </contour>
    <contour>
      <point x="317" y="736" type="qcurve"/>
      <point x="317" y="704"/>
      <point x="309" y="637"/>
      <point x="304" y="605" type="qcurve"/>
      <point x="301" y="581"/>
      <point x="295" y="531"/>
      <point x="289" y="508" type="qcurve"/>
      <point x="288" y="501"/>
      <point x="279" y="483"/>
      <point x="269" y="483" type="qcurve"/>
      <point x="259" y="483"/>
      <point x="251" y="500"/>
      <point x="249" y="508" type="qcurve"/>
      <point x="244" y="533"/>
      <point x="237" y="583"/>
      <point x="234" y="608" type="qcurve"/>
      <point x="230" y="640"/>
      <point x="221" y="705"/>
      <point x="221" y="736" type="qcurve"/>
      <point x="221" y="758"/>
      <point x="248" y="781"/>
      <point x="269" y="781" type="qcurve"/>
      <point x="288" y="781"/>
      <point x="317" y="755"/>
    </contour>
  </outline>
</glyph>
<glyph name="dollar" format="2">
  <advance width="700" height="1000"/>
  <unicode hex="0024"/>
  <outline>
    <contour>
      <point x="472" y="169" type="qcurve"/>
      <point x="472" y="218"/>
      <point x="417" y="279"/>
      <point x="378" y="301" type="qcurve"/>
      <point x="378" y="36" type="line"/>
      <point x="425" y="55"/>
      <point x="472" y="117"/>
    </contour>
    <contour>
      <point x="312" y="687" type="line"/>
      <point x="267" y="673"/>
      <point x="224" y="616"/>
      <point x="224" y="569" type="qcurve"/>
      <point x="224" y="525"/>
      <point x="278" y="469"/>
      <point x="312" y="447" type="qcurve"/>
    </contour>
    <contour>
      <point x="601" y="182" type="qcurve"/>
      <point x="601" y="118"/>
      <point x="536" y="39"/>
      <point x="434" y="-1"/>
      <point x="378" y="-7" type="qcurve"/>
      <point x="378" y="-82" type="line"/>
      <point x="312" y="-82" type="line"/>
      <point x="312" y="-10" type="line"/>
      <point x="284" y="-8"/>
      <point x="230" y="-1"/>
      <point x="204" y="9" type="qcurve"/>
      <point x="183" y="17"/>
      <point x="143" y="36"/>
      <point x="121" y="41" type="qcurve"/>
      <point x="116" y="79"/>
      <point x="99" y="153"/>
      <point x="99" y="191" type="qcurve"/>
      <point x="99" y="202"/>
      <point x="113" y="210"/>
      <point x="122" y="210" type="qcurve"/>
      <point x="140" y="210"/>
      <point x="164" y="200"/>
      <point x="170" y="182" type="qcurve"/>
      <point x="174" y="171"/>
      <point x="178" y="146"/>
      <point x="182" y="135" type="qcurve"/>
      <point x="198" y="85"/>
      <point x="261" y="37"/>
      <point x="312" y="29" type="qcurve"/>
      <point x="312" y="337" type="line"/>
      <point x="282" y="352"/>
      <point x="211" y="388"/>
      <point x="147" y="434"/>
      <point x="106" y="495"/>
      <point x="106" y="534" type="qcurve"/>
      <point x="106" y="594"/>
      <point x="165" y="672"/>
      <point x="259" y="714"/>
      <point x="312" y="719" type="qcurve"/>
      <point x="312" y="786" type="line"/>
      <point x="378" y="786" type="line"/>
      <point x="378" y="718" type="line"/>
      <point x="404" y="716"/>
      <point x="451" y="700"/>
      <point x="475" y="690" type="qcurve"/>
      <point x="492" y="684"/>
      <point x="527" y="679"/>
      <point x="546" y="677" type="qcurve"/>
      <point x="549" y="648"/>
      <point x="553" y="588"/>
      <point x="560" y="558" type="qcurve"/>
      <point x="561" y="554"/>
      <point x="563" y="547"/>
      <point x="563" y="543" type="qcurve"/>
      <point x="563" y="527"/>
      <point x="531" y="516"/>
      <point x="519" y="516" type="qcurve"/>
      <point x="509" y="516"/>
      <point x="493" y="520"/>
      <point x="488" y="530" type="qcurve"/>
      <point x="485" y="543"/>
      <point x="481" y="570"/>
      <point x="477" y="583" type="qcurve"/>
      <point x="467" y="620"/>
      <point x="412" y="670"/>
      <point x="378" y="684" type="qcurve"/>
      <point x="378" y="412" type="line"/>
      <point x="417" y="394"/>
      <point x="496" y="355"/>
      <point x="562" y="304"/>
      <point x="601" y="233"/>
    </contour>
  </outline>
</glyph>
<glyph name="slash" format="2">
  <advance width="500" height="1000"/>
  <unicode hex="002F"/>
  <outline>
    <contour>
      <point x="464" y="814" type="line"/>
      <point x="82" y="-90" type="line"/>
      <point x="36" y="-67" type="line"/>
      <point x="418" y="837" type="line"/>
    </contour>
  </outline>
</glyph>
<glyph name="zero" format="2">
  <advance width="590" height="1000"/>
  <unicode hex="0030"/>
  <outline>
    <contour>
      <point x="403" y="357" type="qcurve"/>
      <point x="403" y="410"/>
      <point x="399" y="518"/>
      <point x="390" y="571" type="qcurve"/>
      <point x="386" y="597"/>
      <point x="365" y="656"/>
      <point x="327" y="698"/>
      <point x="294" y="698" type="qcurve"/>
      <point x="260" y="698"/>
      <point x="219" y="642"/>
      <point x="196" y="554"/>
      <point x="187" y="457"/>
      <point x="185" y="373"/>
      <point x="185" y="350" type="qcurve"/>
      <point x="185" y="328"/>
      <point x="186" y="250"/>
      <point x="194" y="161"/>
      <point x="215" y="80"/>
      <point x="255" y="28"/>
      <point x="288" y="28" type="qcurve"/>
      <point x="323" y="28"/>
      <point x="362" y="65"/>
      <point x="383" y="121"/>
      <point x="388" y="149" type="qcurve"/>
      <point x="399" y="201"/>
      <point x="403" y="305"/>
    </contour>
    <contour>
      <point x="539" y="365" type="qcurve"/>
      <point x="539" y="304"/>
      <point x="514" y="175"/>
      <point x="456" y="65"/>
      <point x="356" y="-3"/>
      <point x="282" y="-3" type="qcurve"/>
      <point x="214" y="-3"/>
      <point x="124" y="63"/>
      <point x="72" y="169"/>
      <point x="51" y="290"/>
      <point x="51" y="345" type="qcurve"/>
      <point x="51" y="393"/>
      <point x="65" y="499"/>
      <point x="98" y="599"/>
      <point x="156" y="680"/>
      <point x="242" y="728"/>
      <point x="303" y="728" type="qcurve"/>
      <point x="362" y="728"/>
      <point x="444" y="683"/>
      <point x="497" y="607"/>
      <point x="527" y="513"/>
      <point x="539" y="412"/>
    </contour>
  </outline>
</glyph>
<glyph name="three" format="2">
  <advance width="590" height="1000"/>
  <unicode hex="0033"/>
  <outline>
    <contour>
      <point x="536" y="247" type="qcurve"/>
      <point x="536" y="208"/>
      <point x="508" y="127"/>
      <point x="458" y="60"/>
      <point x="424" y="38" type="qcurve"/>
      <point x="385" y="13"/>
      <point x="294" y="-9"/>
      <point x="248" y="-9" type="qcurve"/>
      <point x="214" y="-9"/>
      <point x="142" y="6"/>
      <point x="81" y="42"/>
      <point x="62" y="73" type="qcurve"/>
      <point x="56" y="83"/>
      <point x="48" y="106"/>
      <point x="48" y="118" type="qcurve"/>
      <point x="48" y="132"/>
      <point x="71" y="154"/>
      <point x="103" y="166"/>
      <point x="115" y="166" type="qcurve"/>
      <point x="129" y="166"/>
      <point x="168" y="154"/>
      <point x="168" y="136" type="qcurve"/>
      <point x="168" y="112"/>
      <point x="180" y="60"/>
      <point x="211" y="24"/>
      <point x="241" y="24" type="qcurve"/>
      <point x="284" y="24"/>
      <point x="343" y="61"/>
      <point x="378" y="122"/>
      <point x="393" y="195"/>
      <point x="393" y="232" type="qcurve"/>
      <point x="393" y="267"/>
      <point x="369" y="334"/>
      <point x="319" y="377"/>
      <point x="279" y="377" type="qcurve"/>
      <point x="263" y="377"/>
      <point x="230" y="373"/>
      <point x="214" y="371" type="qcurve"/>
      <point x="210" y="370"/>
      <point x="201" y="368"/>
      <point x="196" y="368" type="qcurve"/>
      <point x="189" y="368"/>
      <point x="180" y="382"/>
      <point x="180" y="389" type="qcurve"/>
      <point x="180" y="403"/>
      <point x="203" y="406"/>
      <point x="213" y="406" type="qcurve"/>
      <point x="228" y="406"/>
      <point x="260" y="407"/>
      <point x="274" y="411" type="qcurve"/>
      <point x="324" y="425"/>
      <point x="370" y="512"/>
      <point x="370" y="559" type="qcurve"/>
      <point x="370" y="587"/>
      <point x="356" y="653"/>
      <point x="319" y="700"/>
      <point x="283" y="700" type="qcurve"/>
      <point x="243" y="700"/>
      <point x="197" y="655"/>
      <point x="178" y="589"/>
      <point x="178" y="555" type="qcurve"/>
      <point x="178" y="544"/>
      <point x="156" y="529"/>
      <point x="128" y="522"/>
      <point x="119" y="522" type="qcurve"/>
      <point x="93" y="522"/>
      <point x="65" y="559"/>
      <point x="65" y="583" type="qcurve"/>
      <point x="65" y="595"/>
      <point x="81" y="630"/>
      <point x="88" y="640" type="qcurve"/>
      <point x="113" y="676"/>
      <point x="185" y="716"/>
      <point x="268" y="732"/>
      <point x="308" y="732" type="qcurve"/>
      <point x="355" y="732"/>
      <point x="447" y="698"/>
      <point x="507" y="628"/>
      <point x="507" y="574" type="qcurve"/>
      <point x="507" y="530"/>
      <point x="464" y="460"/>
      <point x="396" y="412"/>
      <point x="356" y="401" type="qcurve"/>
      <point x="405" y="396"/>
      <point x="486" y="367"/>
      <point x="536" y="304"/>
    </contour>
  </outline>
</glyph>
<glyph name="seven" format="2">
  <advance width="590" height="1000"/>
  <unicode hex="0037"/>
  <outline>
    <contour>
      <point x="538" y="685" type="line"/>
      <point x="497" y="640"/>
      <point x="427" y="539"/>
      <point x="404" y="481" type="qcurve"/>
      <point x="366" y="383"/>
      <point x="340" y="173"/>
      <point x="337" y="68" type="qcurve"/>
      <point x="337" y="46"/>
      <point x="329" y="7"/>
      <point x="304" y="-18"/>
      <point x="276" y="-18" type="qcurve"/>
      <point x="195" y="-18"/>
      <point x="195" y="66" type="qcurve"/>
      <point x="195" y="77"/>
      <point x="198" y="101"/>
      <point x="200" y="112" type="qcurve"/>
      <point x="225" y="266"/>
      <point x="348" y="559"/>
      <point x="457" y="674" type="qcurve"/>
      <point x="414" y="673"/>
      <point x="327" y="671"/>
      <point x="283" y="669" type="qcurve"/>
      <point x="258" y="668"/>
      <point x="208" y="666"/>
      <point x="183" y="661" type="qcurve"/>
      <point x="168" y="657"/>
      <point x="138" y="646"/>
      <point x="126" y="635" type="qcurve"/>
      <point x="110" y="619"/>
      <point x="93" y="578"/>
      <point x="85" y="559" type="qcurve"/>
      <point x="79" y="546"/>
      <point x="67" y="546" type="qcurve"/>
      <point x="52" y="546"/>
      <point x="52" y="562" type="qcurve"/>
      <point x="52" y="567"/>
      <point x="56" y="611"/>
      <point x="57" y="627" type="qcurve"/>
      <point x="59" y="646"/>
      <point x="61" y="685"/>
      <point x="62" y="702" type="qcurve"/>
      <point x="63" y="710"/>
      <point x="69" y="722"/>
      <point x="79" y="722" type="qcurve"/>
      <point x="127" y="722"/>
      <point x="223" y="719"/>
      <point x="272" y="719" type="qcurve"/>
      <point x="338" y="719"/>
      <point x="472" y="721"/>
      <point x="538" y="725" type="qcurve"/>
    </contour>
  </outline>
</glyph>
<glyph name="less" format="2">
  <advance width="780" height="1000"/>
  <unicode hex="003C"/>
  <outline>
    <contour>
      <point x="685" y="42" type="line"/>
      <point x="66" y="359" type="line"/>
      <point x="685" y="674" type="line"/>
      <point x="685" y="594" type="line"/>
      <point x="190" y="359" type="line"/>
      <point x="685" y="121" type="line"/>
    </contour>
  </outline>
</glyph>
<glyph name="question" format="2">
  <advance width="560" height="1000"/>
  <unicode hex="003F"/>
  <outline>
    <contour>
      <point x="356" y="54" type="qcurve"/>
      <point x="356" y="23"/>
      <point x="312" y="-20"/>
      <point x="282" y="-20" type="qcurve"/>
      <point x="252" y="-20"/>
      <point x="208" y="23"/>
      <point x="208" y="54" type="qcurve"/>
      <point x="208" y="84"/>
      <point x="252" y="128"/>
      <point x="282" y="128" type="qcurve"/>
      <point x="312" y="128"/>
      <point x="356" y="84"/>
    </contour>
    <contour>
      <point x="508" y="574" type="qcurve"/>
      <point x="508" y="537"/>
      <point x="469" y="466"/>
      <point x="440" y="443" type="qcurve"/>
      <point x="412" y="421"/>
      <point x="363" y="396"/>
      <point x="324" y="361"/>
      <point x="309" y="322" type="qcurve"/>
      <point x="299" y="296"/>
      <point x="295" y="218"/>
      <point x="294" y="189" type="qcurve"/>
      <point x="260" y="189" type="line"/>
      <point x="257" y="209"/>
      <point x="253" y="251"/>
      <point x="253" y="271" type="qcurve"/>
      <point x="253" y="292"/>
      <point x="256" y="334"/>
      <point x="260" y="354" type="qcurve"/>
      <point x="268" y="386"/>
      <point x="296" y="429"/>
      <point x="329" y="464"/>
      <point x="359" y="503"/>
      <point x="378" y="558"/>
      <point x="378" y="599" type="qcurve"/>
      <point x="378" y="645"/>
      <point x="336" y="715"/>
      <point x="284" y="715" type="qcurve"/>
      <point x="238" y="715"/>
      <point x="172" y="659"/>
      <point x="172" y="611" type="qcurve"/>
      <point x="172" y="598"/>
      <point x="182" y="573"/>
      <point x="182" y="559" type="qcurve"/>
      <point x="182" y="527"/>
      <point x="135" y="502"/>
      <point x="107" y="502" type="qcurve"/>
      <point x="82" y="502"/>
      <point x="52" y="540"/>
      <point x="52" y="564" type="qcurve"/>
      <point x="52" y="582"/>
      <point x="63" y="617"/>
      <point x="72" y="633" type="qcurve"/>
      <point x="105" y="692"/>
      <point x="224" y="742"/>
      <point x="289" y="742" type="qcurve"/>
      <point x="343" y="742"/>
      <point x="443" y="710"/>
      <point x="508" y="637"/>
    </contour>
  </outline>
</glyph>
<glyph name="at" format="2">
  <advance width="900" height="1000"/>
  <unicode hex="0040"/>
  <outline>
    <contour>
      <point x="540" y="437" type="qcurve"/>
      <point x="540" y="449"/>
      <point x="532" y="478"/>
      <point x="514" y="500"/>
      <point x="500" y="500" type="qcurve"/>
      <point x="475" y="500"/>
      <point x="439" y="462"/>
      <point x="414" y="402"/>
      <point x="399" y="336"/>
      <point x="392" y="276"/>
      <point x="392" y="258" type="qcurve"/>
      <point x="392" y="242"/>
      <point x="402" y="197"/>
      <point x="426" y="162"/>
      <point x="446" y="162" type="qcurve"/>
      <point x="461" y="162"/>
      <point x="481" y="185"/>
      <point x="487" y="197" type="qcurve"/>
      <point x="490" y="204"/>
      <point x="503" y="252"/>
      <point x="518" y="316"/>
      <point x="531" y="380"/>
      <point x="540" y="429"/>
    </contour>
    <contour>
      <point x="836" y="405" type="qcurve"/>
      <point x="836" y="360"/>
      <point x="806" y="258"/>
      <point x="748" y="168"/>
      <point x="666" y="111"/>
      <point x="614" y="111" type="qcurve"/>
      <point x="586" y="111"/>
      <point x="526" y="135"/>
      <point x="515" y="163" type="qcurve"/>
      <point x="490" y="143"/>
      <point x="437" y="118"/>
      <point x="405" y="118" type="qcurve"/>
      <point x="364" y="118"/>
      <point x="307" y="164"/>
      <point x="278" y="236"/>
      <point x="278" y="273" type="qcurve"/>
      <point x="278" y="316"/>
      <point x="309" y="406"/>
      <point x="365" y="483"/>
      <point x="444" y="530"/>
      <point x="492" y="530" type="qcurve"/>
      <point x="515" y="530"/>
      <point x="561" y="510"/>
      <point x="578" y="495" type="qcurve"/>
      <point x="590" y="506"/>
      <point x="631" y="524"/>
      <point x="647" y="524" type="qcurve"/>
      <point x="658" y="524"/>
      <point x="681" y="511"/>
      <point x="681" y="498" type="qcurve"/>
      <point x="681" y="498"/>
      <point x="680" y="496"/>
      <point x="680" y="495" type="qcurve"/>
      <point x="671" y="467"/>
      <point x="646" y="388"/>
      <point x="622" y="301"/>
      <point x="607" y="222"/>
      <point x="607" y="194" type="qcurve"/>
      <point x="607" y="184"/>
      <point x="614" y="150"/>
      <point x="630" y="150" type="qcurve"/>
      <point x="660" y="150"/>
      <point x="703" y="192"/>
      <point x="733" y="258"/>
      <point x="751" y="333"/>
      <point x="759" y="402"/>
      <point x="759" y="424" type="qcurve"/>
      <point x="759" y="503"/>
      <point x="689" y="621"/>
      <point x="568" y="687"/>
      <point x="490" y="687" type="qcurve"/>
      <point x="424" y="687"/>
      <point x="312" y="624"/>
      <point x="231" y="522"/>
      <point x="210" y="462" type="qcurve"/>
      <point x="195" y="422"/>
      <point x="184" y="337"/>
      <point x="184" y="294" type="qcurve"/>
      <point x="184" y="235"/>
      <point x="224" y="122"/>
      <point x="300" y="29"/>
      <point x="353" y="0" type="qcurve"/>
      <point x="378" y="-13"/>
      <point x="433" y="-28"/>
      <point x="462" y="-28" type="qcurve"/>
      <point x="516" y="-28"/>
      <point x="602" y="-9"/>
      <point x="684" y="28"/>
      <point x="729" y="56" type="qcurve"/>
      <point x="733" y="59"/>
      <point x="741" y="59" type="qcurve"/>
      <point x="746" y="59"/>
      <point x="756" y="50"/>
      <point x="756" y="44" type="qcurve"/>
      <point x="756" y="35"/>
      <point x="746" y="24"/>
      <point x="740" y="19" type="qcurve"/>
      <point x="706" y="-8"/>
      <point x="608" y="-45"/>
      <point x="505" y="-63"/>
      <point x="462" y="-63" type="qcurve"/>
      <point x="382" y="-63"/>
      <point x="239" y="-21"/>
      <point x="128" y="73"/>
      <point x="95" y="150" type="qcurve"/>
      <point x="82" y="182"/>
      <point x="65" y="253"/>
      <point x="65" y="287" type="qcurve"/>
      <point x="65" y="378"/>
      <point x="130" y="534"/>
      <point x="246" y="651"/>
      <point x="401" y="716"/>
      <point x="492" y="716" type="qcurve"/>
      <point x="587" y="716"/>
      <point x="743" y="645"/>
      <point x="836" y="506"/>
    </contour>
  </outline>
</glyph>
<glyph name="A" format="2">
  <advance width="774" height="1000"/>
  <unicode hex="0041"/>
  <outline>
    <contour>
      <point x="463" y="297" type="line"/>
      <point x="435" y="382"/>
      <point x="376" y="550"/>
      <point x="349" y="635" type="qcurve"/>
      <point x="320" y="550"/>
      <point x="263" y="382"/>
      <point x="234" y="297" type="qcurve"/>
    </contour>
    <contour>
      <point x="763" y="10" type="qcurve"/>
      <point x="763" y="-5"/>
      <point x="744" y="-5" type="qcurve"/>
      <point x="738" y="-5"/>
      <point x="726" y="-5"/>
      <point x="719" y="-4" type="qcurve"/>
      <point x="694" y="-2"/>
      <point x="641" y="-2"/>
      <point x="615" y="-2" type="qcurve"/>
      <point x="582" y="-2"/>
      <point x="516" y="-2"/>
      <point x="482" y="-4" type="qcurve"/>
      <point x="478" y="-5"/>
      <point x="470" y="-5"/>
      <point x="466" y="-5" type="qcurve"/>
      <point x="452" y="-5"/>
      <point x="452" y="9" type="qcurve"/>
      <point x="452" y="21"/>
      <point x="469" y="26"/>
      <point x="491" y="24"/>
      <point x="498" y="24" type="qcurve"/>
      <point x="516" y="24"/>
      <point x="533" y="39"/>
      <point x="533" y="58" type="qcurve"/>
      <point x="533" y="69"/>
      <point x="519" y="124"/>
      <point x="499" y="190"/>
      <point x="480" y="247"/>
      <point x="476" y="259" type="qcurve"/>
      <point x="221" y="259" type="line"/>
      <point x="219" y="253"/>
      <point x="205" y="211"/>
      <point x="186" y="155"/>
      <point x="168" y="101"/>
      <point x="156" y="62"/>
      <point x="156" y="58" type="qcurve"/>
      <point x="156" y="39"/>
      <point x="176" y="25"/>
      <point x="206" y="24"/>
      <point x="220" y="24" type="qcurve"/>
      <point x="225" y="24"/>
      <point x="231" y="11"/>
      <point x="231" y="6" type="qcurve"/>
      <point x="231" y="0"/>
      <point x="222" y="-6"/>
      <point x="217" y="-6" type="qcurve"/>
      <point x="184" y="-6"/>
      <point x="119" y="-3"/>
      <point x="87" y="-3" type="qcurve"/>
      <point x="71" y="-3"/>
      <point x="39" y="-5"/>
      <point x="22" y="-5" type="qcurve"/>
      <point x="17" y="-5"/>
      <point x="7" y="3"/>
      <point x="7" y="8" type="qcurve"/>
      <point x="7" y="19"/>
      <point x="23" y="25"/>
      <point x="44" y="24"/>
      <point x="51" y="24" type="qcurve"/>
      <point x="64" y="24"/>
      <point x="81" y="45"/>
      <point x="85" y="55" type="qcurve"/>
      <point x="144" y="203"/>
      <point x="250" y="502"/>
      <point x="300" y="653" type="qcurve"/>
      <point x="304" y="664"/>
      <point x="316" y="704"/>
      <point x="316" y="714" type="qcurve"/>
      <point x="316" y="720"/>
      <point x="311" y="729"/>
      <point x="311" y="733" type="qcurve"/>
      <point x="311" y="737"/>
      <point x="331" y="741"/>
      <point x="353" y="743"/>
      <point x="356" y="743" type="qcurve"/>
      <point x="377" y="746"/>
      <point x="418" y="752"/>
      <point x="439" y="754" type="qcurve"/>
      <point x="684" y="63" type="line"/>
      <point x="692" y="39"/>
      <point x="719" y="26"/>
      <point x="742" y="26" type="qcurve"/>
      <point x="751" y="26"/>
      <point x="763" y="21"/>
    </contour>
  </outline>
</glyph>
<glyph name="B" format="2">
  <advance width="694" height="1000"/>
  <unicode hex="0042"/>
  <outline>
    <contour>
      <point x="503" y="201" type="qcurve"/>
      <point x="503" y="241"/>
      <point x="486" y="320"/>
      <point x="437" y="374"/>
      <point x="387" y="374" type="qcurve"/>
      <point x="353" y="374"/>
      <point x="286" y="371"/>
      <point x="252" y="371" type="qcurve"/>
      <point x="252" y="58" type="line"/>
      <point x="252" y="30"/>
      <point x="281" y="20"/>
      <point x="303" y="20" type="qcurve"/>
      <point x="315" y="20"/>
      <point x="340" y="20"/>
      <point x="352" y="21" type="qcurve"/>
      <point x="402" y="24"/>
      <point x="469" y="74"/>
      <point x="503" y="154"/>
    </contour>
    <contour>
      <point x="453" y="558" type="qcurve"/>
      <point x="453" y="617"/>
      <point x="418" y="678"/>
      <point x="346" y="699"/>
      <point x="292" y="699" type="qcurve"/>
      <point x="282" y="699"/>
      <point x="262" y="698"/>
      <point x="252" y="697" type="qcurve"/>
      <point x="252" y="401" type="line"/>
      <point x="281" y="401" type="line"/>
      <point x="301" y="401"/>
      <point x="349" y="404"/>
      <point x="394" y="418"/>
      <point x="409" y="433" type="qcurve"/>
      <point x="432" y="456"/>
      <point x="453" y="526"/>
    </contour>
    <contour>
      <point x="646" y="218" type="qcurve"/>
      <point x="646" y="150"/>
      <point x="583" y="45"/>
      <point x="519" y="18" type="qcurve"/>
      <point x="483" y="2"/>
      <point x="394" y="-7"/>
      <point x="355" y="-7" type="qcurve"/>
      <point x="346" y="-7"/>
      <point x="328" y="-7"/>
      <point x="319" y="-6" type="qcurve"/>
      <point x="246" y="-3"/>
      <point x="172" y="-3" type="qcurve"/>
      <point x="144" y="-3"/>
      <point x="88" y="-8"/>
      <point x="59" y="-8" type="qcurve"/>
      <point x="55" y="-8"/>
      <point x="49" y="-1"/>
      <point x="49" y="3" type="qcurve"/>
      <point x="49" y="15"/>
      <point x="68" y="20"/>
      <point x="94" y="24"/>
      <point x="116" y="44"/>
      <point x="118" y="72" type="qcurve"/>
      <point x="119" y="84"/>
      <point x="119" y="108"/>
      <point x="119" y="120" type="qcurve"/>
      <point x="119" y="247"/>
      <point x="118" y="500"/>
      <point x="118" y="627" type="qcurve"/>
      <point x="118" y="671"/>
      <point x="88" y="691"/>
      <point x="47" y="691" type="qcurve"/>
      <point x="40" y="691"/>
      <point x="29" y="701"/>
      <point x="29" y="708" type="qcurve"/>
      <point x="29" y="727"/>
      <point x="50" y="727" type="qcurve"/>
      <point x="70" y="727"/>
      <point x="112" y="723"/>
      <point x="132" y="723" type="qcurve"/>
      <point x="183" y="723"/>
      <point x="285" y="730"/>
      <point x="336" y="734" type="qcurve"/>
      <point x="346" y="735"/>
      <point x="365" y="736"/>
      <point x="374" y="736" type="qcurve"/>
      <point x="431" y="736"/>
      <point x="532" y="709"/>
      <point x="595" y="637"/>
      <point x="595" y="569" type="qcurve"/>
      <point x="595" y="530"/>
      <point x="554" y="460"/>
      <point x="523" y="437" type="qcurve"/>
      <point x="513" y="428"/>
      <point x="489" y="415"/>
      <point x="476" y="409" type="qcurve"/>
      <point x="474" y="408"/>
      <point x="463" y="403"/>
      <point x="463" y="399" type="qcurve"/>
      <point x="463" y="396"/>
      <point x="474" y="393"/>
      <point x="476" y="392" type="qcurve"/>
      <point x="492" y="388"/>
      <point x="522" y="379"/>
      <point x="537" y="371" type="qcurve"/>
      <point x="583" y="349"/>
      <point x="646" y="271"/>
    </contour>
  </outline>
</glyph>
<glyph name="D" format="2">
  <advance width="821" height="1000"/>
  <unicode hex="0044"/>
  <outline>
    <contour>
      <point x="633" y="374" type="qcurve"/>
      <point x="633" y="431"/>
      <point x="608" y="545"/>
      <point x="552" y="639"/>
      <point x="460" y="696"/>
      <point x="393" y="696" type="qcurve"/>
      <point x="325" y="696"/>
      <point x="259" y="693" type="qcurve"/>
      <point x="259" y="81" type="line"/>
      <point x="259" y="55"/>
      <point x="275" y="33"/>
      <point x="303" y="33" type="qcurve"/>
      <point x="337" y="33"/>
      <point x="412" y="39"/>
      <point x="483" y="60"/>
      <point x="510" y="81" type="qcurve"/>
      <point x="575" y="134"/>
      <point x="633" y="292"/>
    </contour>
    <contour>
      <point x="778" y="388" type="qcurve"/>
      <point x="778" y="324"/>
      <point x="740" y="200"/>
      <point x="667" y="95"/>
      <point x="613" y="59" type="qcurve"/>
      <point x="578" y="36"/>
      <point x="484" y="7"/>
      <point x="387" y="-5"/>
      <point x="345" y="-5" type="qcurve"/>
      <point x="310" y="-5"/>
      <point x="241" y="0"/>
      <point x="206" y="0" type="qcurve"/>
      <point x="181" y="0"/>
      <point x="130" y="-1"/>
      <point x="104" y="-3" type="qcurve"/>
      <point x="94" y="-4"/>
      <point x="76" y="-5"/>
      <point x="67" y="-5" type="qcurve"/>
      <point x="49" y="-5"/>
      <point x="49" y="11" type="qcurve"/>
      <point x="49" y="21"/>
      <point x="67" y="27"/>
      <point x="89" y="30"/>
      <point x="95" y="32" type="qcurve"/>
      <point x="112" y="40"/>
      <point x="122" y="74"/>
      <point x="122" y="90" type="qcurve"/>
      <point x="122" y="181"/>
      <point x="122" y="361"/>
      <point x="122" y="451" type="qcurve"/>
      <point x="122" y="503"/>
      <point x="123" y="606"/>
      <point x="120" y="657" type="qcurve"/>
      <point x="120" y="659"/>
      <point x="119" y="672"/>
      <point x="119" y="673" type="qcurve"/>
      <point x="116" y="685"/>
      <point x="90" y="693"/>
      <point x="60" y="692"/>
      <point x="50" y="692" type="qcurve"/>
      <point x="42" y="692"/>
      <point x="28" y="699"/>
      <point x="28" y="709" type="qcurve"/>
      <point x="28" y="728"/>
      <point x="47" y="728" type="qcurve"/>
      <point x="72" y="728"/>
      <point x="121" y="725"/>
      <point x="146" y="725" type="qcurve"/>
      <point x="217" y="725"/>
      <point x="360" y="736"/>
      <point x="431" y="736" type="qcurve"/>
      <point x="539" y="736"/>
      <point x="695" y="652"/>
      <point x="778" y="496"/>
    </contour>
  </outline>
</glyph>
<glyph name="F" format="2">
  <advance width="610" height="1000"/>
  <unicode hex="0046"/>
  <outline>
    <contour>
      <point x="598" y="588" type="qcurve"/>
      <point x="598" y="578"/>
      <point x="578" y="567"/>
      <point x="569" y="567" type="qcurve"/>
      <point x="558" y="567"/>
      <point x="541" y="576"/>
      <point x="538" y="588" type="qcurve"/>
      <point x="525" y="630"/>
      <point x="471" y="693"/>
      <point x="423" y="693" type="qcurve"/>
      <point x="265" y="693" type="line"/>
      <point x="265" y="392" type="line"/>
      <point x="280" y="392"/>
      <point x="310" y="392"/>
      <point x="325" y="392" type="qcurve"/>
      <point x="362" y="392"/>
      <point x="437" y="396"/>
      <point x="473" y="404" type="qcurve"/>
      <point x="487" y="408"/>
      <point x="517" y="418"/>
      <point x="532" y="418" type="qcurve"/>
      <point x="544" y="418"/>
      <point x="544" y="407" type="qcurve"/>
      <point x="544" y="399"/>
      <point x="537" y="373"/>
      <point x="534" y="365" type="qcurve"/>
      <point x="530" y="352"/>
      <point x="519" y="347"/>
      <point x="506" y="347" type="qcurve"/>
      <point x="460" y="347"/>
      <point x="370" y="357"/>
      <point x="324" y="357" type="qcurve"/>
      <point x="303" y="357"/>
      <point x="265" y="340"/>
      <point x="265" y="314" type="qcurve"/>
      <point x="265" y="82" type="line"/>
      <point x="265" y="52"/>
      <point x="287" y="30"/>
      <point x="325" y="29"/>
      <point x="347" y="29" type="qcurve"/>
      <point x="355" y="29"/>
      <point x="368" y="22"/>
      <point x="368" y="13" type="qcurve"/>
      <point x="368" y="-8"/>
      <point x="347" y="-8" type="qcurve"/>
      <point x="342" y="-8"/>
      <point x="332" y="-8"/>
      <point x="327" y="-7" type="qcurve"/>
      <point x="294" y="-5"/>
      <point x="228" y="-5"/>
      <point x="196" y="-5" type="qcurve"/>
      <point x="163" y="-5"/>
      <point x="97" y="-10"/>
      <point x="64" y="-10" type="qcurve"/>
      <point x="56" y="-10"/>
      <point x="42" y="-5"/>
      <point x="42" y="5" type="qcurve"/>
      <point x="42" y="18"/>
      <point x="59" y="24"/>
      <point x="85" y="23"/>
      <point x="111" y="30"/>
      <point x="128" y="59"/>
      <point x="128" y="91" type="qcurve"/>
      <point x="128" y="641" type="line"/>
      <point x="128" y="664"/>
      <point x="114" y="689"/>
      <point x="89" y="689" type="qcurve"/>
      <point x="80" y="689"/>
      <point x="63" y="688"/>
      <point x="54" y="688" type="qcurve"/>
      <point x="42" y="688"/>
      <point x="19" y="693"/>
      <point x="19" y="709" type="qcurve"/>
      <point x="19" y="718"/>
      <point x="31" y="728"/>
      <point x="39" y="728" type="qcurve"/>
      <point x="74" y="728"/>
      <point x="143" y="725"/>
      <point x="177" y="725" type="qcurve"/>
      <point x="325" y="725"/>
      <point x="472" y="728" type="qcurve"/>
      <point x="498" y="729"/>
      <point x="552" y="731"/>
      <point x="578" y="735" type="qcurve"/>
      <point x="582" y="706"/>
      <point x="590" y="648"/>
      <point x="594" y="619" type="qcurve"/>
      <point x="595" y="612"/>
      <point x="598" y="596"/>
    </contour>
  </outline>
</glyph>
<glyph name="G" format="2">
  <advance width="781" height="1000"/>
  <unicode hex="0047"/>
  <outline>
    <contour>
      <point x="760" y="304" type="qcurve"/>
      <point x="760" y="296"/>
      <point x="753" y="282"/>
      <point x="743" y="282" type="qcurve"/>
      <point x="692" y="282" type="line"/>
      <point x="692" y="75" type="line"/>
      <point x="657" y="63"/>
      <point x="589" y="34"/>
      <point x="555" y="18" type="qcurve"/>
      <point x="521" y="2"/>
      <point x="442" y="-6"/>
      <point x="404" y="-6" type="qcurve"/>
      <point x="371" y="-6"/>
      <point x="295" y="8"/>
      <point x="223" y="35"/>
      <point x="196" y="54" type="qcurve"/>
      <point x="123" y="107"/>
      <point x="56" y="271"/>
      <point x="56" y="358" type="qcurve"/>
      <point x="56" y="437"/>
      <point x="105" y="575"/>
      <point x="198" y="679"/>
      <point x="329" y="738"/>
      <point x="411" y="738" type="qcurve"/>
      <point x="476" y="738"/>
      <point x="539" y="718" type="qcurve"/>
      <point x="548" y="715"/>
      <point x="585" y="701"/>
      <point x="622" y="688"/>
      <point x="628" y="688" type="qcurve"/>
      <point x="643" y="688"/>
      <point x="655" y="710"/>
      <point x="666" y="732"/>
      <point x="677" y="732" type="qcurve"/>
      <point x="683" y="732"/>
      <point x="694" y="726"/>
      <point x="694" y="719" type="qcurve"/>
      <point x="694" y="673"/>
      <point x="697" y="583"/>
      <point x="697" y="537" type="qcurve"/>
      <point x="697" y="523"/>
      <point x="678" y="505"/>
      <point x="664" y="505" type="qcurve"/>
      <point x="647" y="505"/>
      <point x="634" y="520"/>
      <point x="629" y="535" type="qcurve"/>
      <point x="604" y="612"/>
      <point x="499" y="706"/>
      <point x="415" y="706" type="qcurve"/>
      <point x="375" y="706"/>
      <point x="309" y="668"/>
      <point x="260" y="607"/>
      <point x="226" y="535"/>
      <point x="217" y="501" type="qcurve"/>
      <point x="208" y="467"/>
      <point x="200" y="395"/>
      <point x="200" y="359" type="qcurve"/>
      <point x="200" y="324"/>
      <point x="208" y="254"/>
      <point x="218" y="220" type="qcurve"/>
      <point x="231" y="174"/>
      <point x="283" y="90"/>
      <point x="362" y="36"/>
      <point x="414" y="36" type="qcurve"/>
      <point x="433" y="36"/>
      <point x="482" y="46"/>
      <point x="527" y="66"/>
      <point x="557" y="99"/>
      <point x="557" y="123" type="qcurve"/>
      <point x="557" y="255" type="line"/>
      <point x="557" y="263"/>
      <point x="548" y="279"/>
      <point x="539" y="279" type="qcurve"/>
      <point x="525" y="279"/>
      <point x="496" y="276"/>
      <point x="482" y="276" type="qcurve"/>
      <point x="474" y="276"/>
      <point x="463" y="295"/>
      <point x="463" y="302" type="qcurve"/>
      <point x="463" y="309"/>
      <point x="475" y="319"/>
      <point x="482" y="319" type="qcurve"/>
      <point x="496" y="319"/>
      <point x="525" y="318"/>
      <point x="539" y="318" type="qcurve"/>
      <point x="573" y="318"/>
      <point x="640" y="319"/>
      <point x="674" y="320" type="qcurve"/>
      <point x="692" y="321"/>
      <point x="728" y="324"/>
      <point x="746" y="324" type="qcurve"/>
      <point x="754" y="324"/>
      <point x="760" y="311"/>
    </contour>
  </outline>
</glyph>
<glyph name="H" format="2">
  <advance width="837" height="1000"/>
  <unicode hex="0048"/>
  <outline>
    <contour>
      <point x="805" y="715" type="qcurve"/>
      <point x="805" y="708"/>
      <point x="797" y="696"/>
      <point x="789" y="696" type="qcurve"/>
      <point x="776" y="696"/>
      <point x="751" y="698"/>
      <point x="737" y="698" type="qcurve"/>
      <point x="727" y="698"/>
      <point x="721" y="680"/>
      <point x="721" y="672" type="qcurve"/>
      <point x="721" y="608"/>
      <point x="720" y="481"/>
      <point x="720" y="416" type="qcurve"/>
      <point x="720" y="325"/>
      <point x="721" y="144"/>
      <point x="721" y="53" type="qcurve"/>
      <point x="721" y="45"/>
      <point x="727" y="27"/>
      <point x="737" y="27" type="qcurve"/>
      <point x="751" y="27"/>
      <point x="776" y="29"/>
      <point x="789" y="29" type="qcurve"/>
      <point x="797" y="29"/>
      <point x="803" y="15"/>
      <point x="803" y="8" type="qcurve"/>
      <point x="803" y="-7"/>
      <point x="787" y="-7" type="qcurve"/>
      <point x="779" y="-7"/>
      <point x="763" y="-5"/>
      <point x="755" y="-5" type="qcurve"/>
      <point x="740" y="-3"/>
      <point x="710" y="-3"/>
      <point x="695" y="-3" type="qcurve"/>
      <point x="660" y="-3"/>
      <point x="591" y="-3"/>
      <point x="556" y="-5" type="qcurve"/>
      <point x="546" y="-5"/>
      <point x="525" y="-7"/>
      <point x="514" y="-7" type="qcurve"/>
      <point x="504" y="-7"/>
      <point x="497" y="5"/>
      <point x="497" y="13" type="qcurve"/>
      <point x="497" y="21"/>
      <point x="509" y="29"/>
      <point x="516" y="29" type="qcurve"/>
      <point x="527" y="29"/>
      <point x="546" y="27"/>
      <point x="556" y="27" type="qcurve"/>
      <point x="571" y="27"/>
      <point x="582" y="38"/>
      <point x="582" y="53" type="qcurve"/>
      <point x="582" y="364" type="line"/>
      <point x="253" y="364" type="line"/>
      <point x="253" y="51" type="line"/>
      <point x="253" y="36"/>
      <point x="265" y="25"/>
      <point x="279" y="25" type="qcurve"/>
      <point x="289" y="25"/>
      <point x="309" y="27"/>
      <point x="319" y="27" type="qcurve"/>
      <point x="327" y="27"/>
      <point x="339" y="20"/>
      <point x="339" y="11" type="qcurve"/>
      <point x="339" y="-8"/>
      <point x="321" y="-8" type="qcurve"/>
      <point x="284" y="-8"/>
      <point x="211" y="-3"/>
      <point x="175" y="-3" type="qcurve"/>
      <point x="157" y="-3"/>
      <point x="120" y="-3"/>
      <point x="102" y="-4" type="qcurve"/>
      <point x="89" y="-5"/>
      <point x="64" y="-8"/>
      <point x="51" y="-8" type="qcurve"/>
      <point x="44" y="-8"/>
      <point x="37" y="5"/>
      <point x="37" y="10" type="qcurve"/>
      <point x="37" y="15"/>
      <point x="45" y="27"/>
      <point x="51" y="27" type="qcurve"/>
      <point x="64" y="27"/>
      <point x="89" y="25"/>
      <point x="102" y="25" type="qcurve"/>
      <point x="113" y="25"/>
      <point x="119" y="43"/>
      <point x="119" y="51" type="qcurve"/>
      <point x="119" y="150"/>
      <point x="119" y="348"/>
      <point x="119" y="447" type="qcurve"/>
      <point x="119" y="503"/>
      <point x="119" y="616"/>
      <point x="119" y="671" type="qcurve"/>
      <point x="119" y="679"/>
      <point x="113" y="697"/>
      <point x="102" y="697" type="qcurve"/>
      <point x="89" y="697"/>
      <point x="64" y="695"/>
      <point x="51" y="695" type="qcurve"/>
      <point x="35" y="695"/>
      <point x="35" y="713" type="qcurve"/>
      <point x="35" y="720"/>
      <point x="43" y="732"/>
      <point x="51" y="732" type="qcurve"/>
      <point x="77" y="732"/>
      <point x="128" y="728"/>
      <point x="154" y="728" type="qcurve"/>
      <point x="195" y="728"/>
      <point x="278" y="732"/>
      <point x="319" y="732" type="qcurve"/>
      <point x="338" y="732"/>
      <point x="338" y="713" type="qcurve"/>
      <point x="338" y="700"/>
      <point x="317" y="696"/>
      <point x="308" y="696" type="qcurve"/>
      <point x="301" y="696"/>
      <point x="287" y="697"/>
      <point x="279" y="697" type="qcurve"/>
      <point x="266" y="697"/>
      <point x="253" y="681"/>
      <point x="253" y="668" type="qcurve"/>
      <point x="253" y="397" type="line"/>
      <point x="582" y="397" type="line"/>
      <point x="582" y="672" type="line"/>
      <point x="582" y="687"/>
      <point x="571" y="698"/>
      <point x="556" y="698" type="qcurve"/>
      <point x="546" y="698"/>
      <point x="527" y="696"/>
      <point x="516" y="696" type="qcurve"/>
      <point x="510" y="696"/>
      <point x="497" y="706"/>
      <point x="497" y="713" type="qcurve"/>
      <point x="497" y="732"/>
      <point x="516" y="732" type="qcurve"/>
      <point x="528" y="732"/>
      <point x="552" y="730"/>
      <point x="564" y="729" type="qcurve"/>
      <point x="587" y="728"/>
      <point x="633" y="727"/>
      <point x="656" y="727" type="qcurve"/>
      <point x="689" y="727"/>
      <point x="756" y="732"/>
      <point x="789" y="732" type="qcurve"/>
      <point x="797" y="732"/>
      <point x="805" y="722"/>
    </contour>
  </outline>
</glyph>
<glyph name="M" format="2">
  <advance width="947" height="1000"/>
  <unicode hex="004D"/>
  <outline>
    <contour>
      <point x="928" y="18" type="qcurve"/>
      <point x="928" y="-3"/>
      <point x="911" y="-3" type="qcurve"/>
      <point x="875" y="-3"/>
      <point x="804" y="-1"/>
      <point x="769" y="-1" type="qcurve"/>
      <point x="735" y="-1"/>
      <point x="667" y="-4"/>
      <point x="633" y="-4" type="qcurve"/>
      <point x="623" y="-4"/>
      <point x="615" y="9"/>
      <point x="615" y="17" type="qcurve"/>
      <point x="615" y="25"/>
      <point x="628" y="34"/>
      <point x="635" y="34" type="qcurve"/>
      <point x="644" y="34"/>
      <point x="662" y="32"/>
      <point x="671" y="32" type="qcurve"/>
      <point x="673" y="32"/>
      <point x="679" y="32"/>
      <point x="681" y="32" type="qcurve"/>
      <point x="698" y="34"/>
      <point x="701" y="69"/>
      <point x="701" y="81" type="qcurve"/>
      <point x="701" y="601" type="line"/>
      <point x="644" y="459"/>
      <point x="527" y="178"/>
      <point x="471" y="35" type="qcurve"/>
      <point x="393" y="35" type="line"/>
      <point x="336" y="183"/>
      <point x="215" y="475"/>
      <point x="157" y="623" type="qcurve"/>
      <point x="157" y="486"/>
      <point x="161" y="213"/>
      <point x="161" y="76" type="qcurve"/>
      <point x="161" y="64"/>
      <point x="164" y="31"/>
      <point x="181" y="31" type="qcurve"/>
      <point x="194" y="31"/>
      <point x="218" y="33"/>
      <point x="231" y="33" type="qcurve"/>
      <point x="238" y="33"/>
      <point x="248" y="22"/>
      <point x="248" y="15" type="qcurve"/>
      <point x="248" y="10"/>
      <point x="240" y="-3"/>
      <point x="234" y="-3" type="qcurve"/>
      <point x="216" y="-3"/>
      <point x="180" y="-1"/>
      <point x="162" y="-1" type="qcurve"/>
      <point x="130" y="-1"/>
      <point x="64" y="-3"/>
      <point x="32" y="-3" type="qcurve"/>
      <point x="22" y="-3"/>
      <point x="16" y="8"/>
      <point x="16" y="17" type="qcurve"/>
      <point x="16" y="25"/>
      <point x="29" y="33"/>
      <point x="35" y="33" type="qcurve"/>
      <point x="44" y="33"/>
      <point x="63" y="31"/>
      <point x="72" y="31" type="qcurve"/>
      <point x="89" y="31"/>
      <point x="104" y="40"/>
      <point x="104" y="59" type="qcurve"/>
      <point x="104" y="211"/>
      <point x="107" y="516"/>
      <point x="107" y="668" type="qcurve"/>
      <point x="107" y="684"/>
      <point x="96" y="699"/>
      <point x="79" y="699" type="qcurve"/>
      <point x="69" y="699"/>
      <point x="49" y="697"/>
      <point x="39" y="697" type="qcurve"/>
      <point x="31" y="697"/>
      <point x="19" y="709"/>
      <point x="19" y="717" type="qcurve"/>
      <point x="19" y="736"/>
      <point x="39" y="736" type="qcurve"/>
      <point x="63" y="736"/>
      <point x="112" y="734"/>
      <point x="136" y="734" type="qcurve"/>
      <point x="165" y="734"/>
      <point x="224" y="734"/>
      <point x="253" y="737" type="qcurve"/>
      <point x="476" y="185" type="line"/>
      <point x="530" y="322"/>
      <point x="649" y="593"/>
      <point x="694" y="734" type="qcurve"/>
      <point x="717" y="733"/>
      <point x="764" y="732"/>
      <point x="788" y="732" type="qcurve"/>
      <point x="819" y="732"/>
      <point x="882" y="736"/>
      <point x="913" y="736" type="qcurve"/>
      <point x="921" y="736"/>
      <point x="927" y="723"/>
      <point x="927" y="717" type="qcurve"/>
      <point x="927" y="711"/>
      <point x="921" y="696"/>
      <point x="913" y="696" type="qcurve"/>
      <point x="899" y="696"/>
      <point x="870" y="697"/>
      <point x="856" y="697" type="qcurve"/>
      <point x="846" y="697"/>
      <point x="837" y="680"/>
      <point x="837" y="671" type="qcurve"/>
      <point x="837" y="613"/>
      <point x="836" y="494"/>
      <point x="836" y="435" type="qcurve"/>
      <point x="836" y="347"/>
      <point x="837" y="171"/>
      <point x="837" y="83" type="qcurve"/>
      <point x="837" y="74"/>
      <point x="840" y="50"/>
      <point x="851" y="31"/>
      <point x="863" y="31" type="qcurve"/>
      <point x="875" y="31"/>
      <point x="899" y="33"/>
      <point x="912" y="33" type="qcurve"/>
      <point x="918" y="33"/>
      <point x="928" y="25"/>
    </contour>
  </outline>
</glyph>
<glyph name="N" format="2">
  <advance width="780" height="1000"/>
  <unicode hex="004E"/>
  <outline>
    <contour>
      <point x="766" y="718" type="qcurve"/>
      <point x="766" y="699"/>
      <point x="747" y="699" type="qcurve"/>
      <point x="739" y="699"/>
      <point x="723" y="701"/>
      <point x="715" y="701" type="qcurve"/>
      <point x="711" y="701"/>
      <point x="701" y="700"/>
      <point x="696" y="700" type="qcurve"/>
      <point x="686" y="700"/>
      <point x="680" y="675"/>
      <point x="680" y="646"/>
      <point x="680" y="640" type="qcurve"/>
      <point x="680" y="17" type="line"/>
      <point x="680" y="10"/>
      <point x="677" y="0"/>
      <point x="668" y="-1" type="qcurve"/>
      <point x="654" y="-3"/>
      <point x="622" y="-2"/>
      <point x="608" y="-3" type="qcurve"/>
      <point x="600" y="23"/>
      <point x="571" y="71"/>
      <point x="555" y="93" type="qcurve"/>
      <point x="463" y="227"/>
      <point x="258" y="477"/>
      <point x="164" y="609" type="qcurve"/>
      <point x="164" y="474"/>
      <point x="163" y="205"/>
      <point x="163" y="70" type="qcurve"/>
      <point x="163" y="61"/>
      <point x="168" y="34"/>
      <point x="180" y="34" type="qcurve"/>
      <point x="194" y="34"/>
      <point x="223" y="36"/>
      <point x="236" y="36" type="qcurve"/>
      <point x="244" y="36"/>
      <point x="249" y="21"/>
      <point x="249" y="16" type="qcurve"/>
      <point x="249" y="9"/>
      <point x="242" y="-3"/>
      <point x="234" y="-3" type="qcurve"/>
      <point x="217" y="-3"/>
      <point x="183" y="1"/>
      <point x="166" y="1" type="qcurve"/>
      <point x="143" y="1"/>
      <point x="95" y="0"/>
      <point x="72" y="-2" type="qcurve"/>
      <point x="63" y="-3"/>
      <point x="46" y="-4"/>
      <point x="38" y="-4" type="qcurve"/>
      <point x="18" y="-4"/>
      <point x="18" y="17" type="qcurve"/>
      <point x="18" y="25"/>
      <point x="30" y="36"/>
      <point x="37" y="36" type="qcurve"/>
      <point x="47" y="36"/>
      <point x="65" y="33"/>
      <point x="75" y="33" type="qcurve"/>
      <point x="90" y="33"/>
      <point x="105" y="42"/>
      <point x="105" y="60" type="qcurve"/>
      <point x="105" y="198"/>
      <point x="110" y="474"/>
      <point x="110" y="612" type="qcurve"/>
      <point x="110" y="625"/>
      <point x="110" y="649"/>
      <point x="110" y="662" type="qcurve"/>
      <point x="110" y="675"/>
      <point x="101" y="701"/>
      <point x="85" y="701" type="qcurve"/>
      <point x="73" y="701"/>
      <point x="48" y="699"/>
      <point x="35" y="699" type="qcurve"/>
      <point x="18" y="699"/>
      <point x="18" y="718" type="qcurve"/>
      <point x="18" y="736"/>
      <point x="36" y="736" type="qcurve"/>
      <point x="62" y="736"/>
      <point x="114" y="734"/>
      <point x="139" y="734" type="qcurve"/>
      <point x="162" y="734"/>
      <point x="209" y="735"/>
      <point x="232" y="735" type="qcurve"/>
      <point x="291" y="655"/>
      <point x="422" y="506"/>
      <point x="482" y="427" type="qcurve"/>
      <point x="517" y="380"/>
      <point x="589" y="286"/>
      <point x="626" y="240" type="qcurve"/>
      <point x="626" y="346"/>
      <point x="627" y="558"/>
      <point x="627" y="664" type="qcurve"/>
      <point x="627" y="673"/>
      <point x="622" y="700"/>
      <point x="609" y="700" type="qcurve"/>
      <point x="582" y="700" type="line"/>
      <point x="576" y="700"/>
      <point x="564" y="697"/>
      <point x="558" y="697" type="qcurve"/>
      <point x="539" y="697"/>
      <point x="539" y="718" type="qcurve"/>
      <point x="539" y="730"/>
      <point x="553" y="735"/>
      <point x="563" y="735" type="qcurve"/>
      <point x="583" y="735"/>
      <point x="622" y="733"/>
      <point x="641" y="733" type="qcurve"/>
      <point x="667" y="733"/>
      <point x="720" y="737"/>
      <point x="746" y="737" type="qcurve"/>
      <point x="754" y="737"/>
      <point x="766" y="726"/>
    </contour>
  </outline>
</glyph>
<glyph name="R" format="2">
  <advance width="707" height="1000"/>
  <unicode hex="0052"/>
  <outline>
    <contour>
      <point x="462" y="550" type="qcurve"/>
      <point x="462" y="624"/>
      <point x="397" y="704"/>
      <point x="320" y="704" type="qcurve"/>
      <point x="302" y="704" type="line"/>
      <point x="294" y="704"/>
      <point x="276" y="704"/>
      <point x="268" y="702" type="qcurve"/>
      <point x="258" y="699"/>
      <point x="252" y="687"/>
      <point x="252" y="676" type="qcurve"/>
      <point x="252" y="618"/>
      <point x="251" y="503"/>
      <point x="251" y="444" type="qcurve"/>
      <point x="251" y="403" type="line"/>
      <point x="258" y="402"/>
      <point x="272" y="401"/>
      <point x="279" y="401" type="qcurve"/>
      <point x="331" y="401"/>
      <point x="414" y="426"/>
      <point x="462" y="491"/>
    </contour>
    <contour>
      <point x="716" y="14" type="qcurve"/>
      <point x="716" y="5"/>
      <point x="683" y="-4"/>
      <point x="638" y="-7"/>
      <point x="598" y="-8"/>
      <point x="591" y="-8" type="qcurve"/>
      <point x="553" y="-8"/>
      <point x="492" y="8"/>
      <point x="471" y="45" type="qcurve"/>
      <point x="425" y="125"/>
      <point x="337" y="290"/>
      <point x="293" y="372" type="qcurve"/>
      <point x="251" y="373" type="line"/>
      <point x="251" y="294"/>
      <point x="252" y="135"/>
      <point x="252" y="55" type="qcurve"/>
      <point x="252" y="46"/>
      <point x="262" y="29"/>
      <point x="272" y="29" type="qcurve"/>
      <point x="284" y="29"/>
      <point x="308" y="31"/>
      <point x="320" y="31" type="qcurve"/>
      <point x="325" y="31"/>
      <point x="334" y="18"/>
      <point x="334" y="13" type="qcurve"/>
      <point x="334" y="6"/>
      <point x="327" y="-4"/>
      <point x="320" y="-4" type="qcurve"/>
      <point x="311" y="-4"/>
      <point x="295" y="-2"/>
      <point x="287" y="-2" type="qcurve"/>
      <point x="269" y="0"/>
      <point x="233" y="0"/>
      <point x="215" y="0" type="qcurve"/>
      <point x="172" y="0"/>
      <point x="85" y="-4"/>
      <point x="41" y="-4" type="qcurve"/>
      <point x="24" y="-4"/>
      <point x="24" y="14" type="qcurve"/>
      <point x="24" y="21"/>
      <point x="36" y="30"/>
      <point x="43" y="30" type="qcurve"/>
      <point x="53" y="30"/>
      <point x="73" y="28"/>
      <point x="83" y="28" type="qcurve"/>
      <point x="97" y="28"/>
      <point x="117" y="38"/>
      <point x="117" y="54" type="qcurve"/>
      <point x="117" y="672" type="line"/>
      <point x="117" y="687"/>
      <point x="105" y="698"/>
      <point x="91" y="698" type="qcurve"/>
      <point x="81" y="698"/>
      <point x="61" y="696"/>
      <point x="51" y="696" type="qcurve"/>
      <point x="44" y="696"/>
      <point x="29" y="706"/>
      <point x="29" y="714" type="qcurve"/>
      <point x="29" y="733"/>
      <point x="51" y="733" type="qcurve"/>
      <point x="61" y="733"/>
      <point x="81" y="732"/>
      <point x="91" y="731" type="qcurve"/>
      <point x="111" y="730"/>
      <point x="153" y="729"/>
      <point x="173" y="729" type="qcurve"/>
      <point x="221" y="729"/>
      <point x="316" y="736"/>
      <point x="363" y="736" type="qcurve"/>
      <point x="404" y="736"/>
      <point x="490" y="721"/>
      <point x="565" y="683"/>
      <point x="611" y="618"/>
      <point x="611" y="568" type="qcurve"/>
      <point x="611" y="507"/>
      <point x="562" y="433"/>
      <point x="477" y="393"/>
      <point x="423" y="382" type="qcurve"/>
      <point x="467" y="302"/>
      <point x="569" y="148"/>
      <point x="621" y="73" type="qcurve"/>
      <point x="635" y="54"/>
      <point x="679" y="25"/>
      <point x="702" y="25" type="qcurve"/>
      <point x="709" y="25"/>
      <point x="716" y="22"/>
    </contour>
  </outline>
</glyph>
<glyph name="S" format="2">
  <advance width="594" height="1000"/>
  <unicode hex="0053"/>
  <outline>
    <contour>
      <point x="562" y="184" type="qcurve"/>
      <point x="562" y="126"/>
      <point x="510" y="49"/>
      <point x="425" y="5"/>
      <point x="325" y="-13"/>
      <point x="277" y="-13" type="qcurve"/>
      <point x="240" y="-13"/>
      <point x="172" y="8"/>
      <point x="137" y="21" type="qcurve"/>
      <point x="120" y="27"/>
      <point x="87" y="30"/>
      <point x="69" y="30" type="qcurve"/>
      <point x="66" y="54"/>
      <point x="60" y="101"/>
      <point x="56" y="125" type="qcurve"/>
      <point x="54" y="142"/>
      <point x="48" y="174"/>
      <point x="48" y="190" type="qcurve"/>
      <point x="48" y="204"/>
      <point x="59" y="222"/>
      <point x="74" y="222" type="qcurve"/>
      <point x="88" y="222"/>
      <point x="103" y="211"/>
      <point x="107" y="198" type="qcurve"/>
      <point x="114" y="180"/>
      <point x="123" y="142"/>
      <point x="130" y="123" type="qcurve"/>
      <point x="147" y="76"/>
      <point x="224" y="20"/>
      <point x="276" y="20" type="qcurve"/>
      <point x="346" y="20"/>
      <point x="421" y="101"/>
      <point x="421" y="170" type="qcurve"/>
      <point x="421" y="210"/>
      <point x="387" y="263"/>
      <point x="333" y="301"/>
      <point x="302" y="318" type="qcurve"/>
      <point x="273" y="334"/>
      <point x="213" y="362"/>
      <point x="184" y="377" type="qcurve"/>
      <point x="152" y="394"/>
      <point x="91" y="445"/>
      <point x="52" y="512"/>
      <point x="52" y="551" type="qcurve"/>
      <point x="52" y="617"/>
      <point x="121" y="703"/>
      <point x="230" y="745"/>
      <point x="289" y="745" type="qcurve"/>
      <point x="327" y="745"/>
      <point x="398" y="724"/>
      <point x="432" y="710" type="qcurve"/>
      <point x="443" y="706"/>
      <point x="462" y="702"/>
      <point x="473" y="702" type="qcurve"/>
      <point x="481" y="702"/>
      <point x="495" y="703"/>
      <point x="502" y="704" type="qcurve"/>
      <point x="505" y="672"/>
      <point x="513" y="608"/>
      <point x="517" y="576" type="qcurve"/>
      <point x="518" y="571"/>
      <point x="519" y="560"/>
      <point x="519" y="555" type="qcurve"/>
      <point x="519" y="541"/>
      <point x="507" y="518"/>
      <point x="490" y="518" type="qcurve"/>
      <point x="477" y="518"/>
      <point x="465" y="530"/>
      <point x="460" y="541" type="qcurve"/>
      <point x="448" y="572"/>
      <point x="426" y="632"/>
      <point x="405" y="658" type="qcurve"/>
      <point x="383" y="686"/>
      <point x="317" y="713"/>
      <point x="282" y="713" type="qcurve"/>
      <point x="248" y="713"/>
      <point x="202" y="676"/>
      <point x="180" y="618"/>
      <point x="180" y="587" type="qcurve"/>
      <point x="180" y="539"/>
      <point x="231" y="486"/>
      <point x="269" y="464" type="qcurve"/>
      <point x="290" y="453"/>
      <point x="333" y="432"/>
      <point x="354" y="422" type="qcurve"/>
      <point x="404" y="399"/>
      <point x="499" y="334"/>
      <point x="562" y="245"/>
    </contour>
  </outline>
</glyph>
<glyph name="T" format="2">
  <advance width="690" height="1000"/>
  <unicode hex="0054"/>
  <outline>
    <contour>
      <point x="684" y="551" type="qcurve"/>
      <point x="684" y="541"/>
      <point x="674" y="524"/>
      <point x="663" y="524" type="qcurve"/>
      <point x="647" y="524"/>
      <point x="636" y="538"/>
      <point x="632" y="551" type="qcurve"/>
      <point x="629" y="565"/>
      <point x="616" y="606"/>
      <point x="601" y="647"/>
      <point x="593" y="658" type="qcurve"/>
      <point x="589" y="664"/>
      <point x="579" y="675"/>
      <point x="574" y="680" type="qcurve"/>
      <point x="567" y="689"/>
      <point x="531" y="696"/>
      <point x="493" y="697"/>
      <point x="482" y="697" type="qcurve"/>
      <point x="469" y="697"/>
      <point x="439" y="697"/>
      <point x="417" y="684"/>
      <point x="416" y="666" type="qcurve"/>
      <point x="415" y="632"/>
      <point x="415" y="561"/>
      <point x="415" y="526" type="qcurve"/>
      <point x="415" y="412"/>
      <point x="416" y="184"/>
      <point x="416" y="70" type="qcurve"/>
      <point x="416" y="58"/>
      <point x="423" y="26"/>
      <point x="439" y="26" type="qcurve"/>
      <point x="454" y="26"/>
      <point x="483" y="28"/>
      <point x="498" y="28" type="qcurve"/>
      <point x="506" y="28"/>
      <point x="514" y="15"/>
      <point x="514" y="9" type="qcurve"/>
      <point x="514" y="-9"/>
      <point x="497" y="-9" type="qcurve"/>
      <point x="486" y="-9"/>
      <point x="463" y="-7"/>
      <point x="452" y="-6" type="qcurve"/>
      <point x="433" y="-4"/>
      <point x="395" y="-4"/>
      <point x="375" y="-4" type="qcurve"/>
      <point x="342" y="-4"/>
      <point x="276" y="-4"/>
      <point x="243" y="-6" type="qcurve"/>
      <point x="231" y="-7"/>
      <point x="206" y="-9"/>
      <point x="194" y="-9" type="qcurve"/>
      <point x="185" y="-9"/>
      <point x="175" y="3"/>
      <point x="175" y="11" type="qcurve"/>
      <point x="175" y="22"/>
      <point x="193" y="27"/>
      <point x="201" y="27" type="qcurve"/>
      <point x="212" y="27"/>
      <point x="231" y="26"/>
      <point x="241" y="26" type="qcurve"/>
      <point x="267" y="26"/>
      <point x="274" y="50"/>
      <point x="274" y="72" type="qcurve"/>
      <point x="274" y="630" type="line"/>
      <point x="274" y="669"/>
      <point x="266" y="696"/>
      <point x="232" y="697"/>
      <point x="193" y="697" type="qcurve"/>
      <point x="180" y="697"/>
      <point x="135" y="695"/>
      <point x="124" y="689" type="qcurve"/>
      <point x="111" y="682"/>
      <point x="95" y="659"/>
      <point x="90" y="645" type="qcurve"/>
      <point x="82" y="622"/>
      <point x="67" y="574"/>
      <point x="59" y="551" type="qcurve"/>
      <point x="55" y="537"/>
      <point x="43" y="524"/>
      <point x="27" y="524" type="qcurve"/>
      <point x="8" y="524"/>
      <point x="8" y="544" type="qcurve"/>
      <point x="8" y="570"/>
      <point x="19" y="637"/>
      <point x="20" y="666" type="qcurve"/>
      <point x="21" y="682"/>
      <point x="20" y="715"/>
      <point x="23" y="730" type="qcurve"/>
      <point x="24" y="737"/>
      <point x="30" y="737" type="qcurve"/>
      <point x="41" y="737"/>
      <point x="64" y="731"/>
      <point x="75" y="729" type="qcurve"/>
      <point x="87" y="728"/>
      <point x="112" y="727"/>
      <point x="125" y="726" type="qcurve"/>
      <point x="178" y="725"/>
      <point x="293" y="724"/>
      <point x="345" y="724" type="qcurve"/>
      <point x="404" y="724"/>
      <point x="534" y="726"/>
      <point x="593" y="726" type="qcurve"/>
      <point x="599" y="726"/>
      <point x="612" y="726"/>
      <point x="618" y="727" type="qcurve"/>
      <point x="629" y="729"/>
      <point x="650" y="737"/>
      <point x="661" y="737" type="qcurve"/>
      <point x="666" y="737"/>
      <point x="668" y="732" type="qcurve"/>
      <point x="671" y="718"/>
      <point x="673" y="681"/>
      <point x="674" y="667" type="qcurve"/>
      <point x="677" y="639"/>
      <point x="684" y="580"/>
    </contour>
  </outline>
</glyph>
<glyph name="V" format="2">
  <advance width="754" height="1000"/>
  <unicode hex="0056"/>
  <outline>
    <contour>
      <point x="750" y="714" type="qcurve"/>
      <point x="750" y="695"/>
      <point x="730" y="695" type="qcurve"/>
      <point x="720" y="695"/>
      <point x="700" y="697"/>
      <point x="691" y="697" type="qcurve"/>
      <point x="681" y="697"/>
      <point x="665" y="675"/>
      <point x="662" y="666" type="qcurve"/>
      <point x="646" y="625"/>
      <point x="621" y="541"/>
      <point x="607" y="499" type="qcurve"/>
      <point x="582" y="419"/>
      <point x="528" y="261"/>
      <point x="501" y="181" type="qcurve"/>
      <point x="488" y="143"/>
      <point x="463" y="67"/>
      <point x="450" y="29" type="qcurve"/>
      <point x="446" y="18"/>
      <point x="430" y="-5"/>
      <point x="416" y="-5" type="qcurve"/>
      <point x="328" y="-7" type="line"/>
      <point x="292" y="106"/>
      <point x="207" y="340"/>
      <point x="166" y="455" type="qcurve"/>
      <point x="153" y="493"/>
      <point x="128" y="557"/>
      <point x="114" y="595" type="qcurve"/>
      <point x="109" y="611"/>
      <point x="91" y="654"/>
      <point x="85" y="670" type="qcurve"/>
      <point x="78" y="687"/>
      <point x="43" y="691"/>
      <point x="28" y="691" type="qcurve"/>
      <point x="18" y="691"/>
      <point x="2" y="697"/>
      <point x="2" y="710" type="qcurve"/>
      <point x="2" y="718"/>
      <point x="12" y="731"/>
      <point x="21" y="731" type="qcurve"/>
      <point x="39" y="731"/>
      <point x="76" y="729"/>
      <point x="95" y="729" type="qcurve"/>
      <point x="141" y="729"/>
      <point x="233" y="729"/>
      <point x="279" y="730" type="qcurve"/>
      <point x="290" y="731"/>
      <point x="314" y="732"/>
      <point x="325" y="732" type="qcurve"/>
      <point x="333" y="732"/>
      <point x="340" y="720"/>
      <point x="340" y="713" type="qcurve"/>
      <point x="340" y="706"/>
      <point x="333" y="694"/>
      <point x="325" y="694" type="qcurve"/>
      <point x="309" y="694"/>
      <point x="278" y="695"/>
      <point x="262" y="695" type="qcurve"/>
      <point x="239" y="695"/>
      <point x="239" y="671" type="qcurve"/>
      <point x="239" y="661"/>
      <point x="246" y="638"/>
      <point x="249" y="628" type="qcurve"/>
      <point x="291" y="495"/>
      <point x="381" y="223"/>
      <point x="423" y="97" type="qcurve"/>
      <point x="467" y="226"/>
      <point x="544" y="488"/>
      <point x="577" y="619" type="qcurve"/>
      <point x="580" y="633"/>
      <point x="588" y="665"/>
      <point x="588" y="679" type="qcurve"/>
      <point x="588" y="696"/>
      <point x="570" y="697"/>
      <point x="556" y="697" type="qcurve"/>
      <point x="547" y="697"/>
      <point x="530" y="694"/>
      <point x="521" y="694" type="qcurve"/>
      <point x="513" y="694"/>
      <point x="498" y="703"/>
      <point x="498" y="713" type="qcurve"/>
      <point x="498" y="731"/>
      <point x="515" y="731" type="qcurve"/>
      <point x="529" y="731"/>
      <point x="558" y="729"/>
      <point x="572" y="729" type="qcurve"/>
      <point x="586" y="729"/>
      <point x="612" y="729"/>
      <point x="625" y="730" type="qcurve"/>
      <point x="651" y="730"/>
      <point x="706" y="734"/>
      <point x="732" y="734" type="qcurve"/>
      <point x="740" y="734"/>
      <point x="750" y="721"/>
    </contour>
  </outline>
</glyph>
<glyph name="W" format="2">
  <advance width="1000" height="1000"/>
  <unicode hex="0057"/>
  <outline>
    <contour>
      <point x="982" y="717" type="qcurve"/>
      <point x="982" y="701"/>
      <point x="960" y="697"/>
      <point x="949" y="697" type="qcurve"/>
      <point x="936" y="697"/>
      <point x="914" y="687"/>
      <point x="908" y="675" type="qcurve"/>
      <point x="903" y="662"/>
      <point x="897" y="632"/>
      <point x="894" y="619" type="qcurve"/>
      <point x="861" y="462"/>
      <point x="786" y="150"/>
      <point x="750" y="-7" type="qcurve"/>
      <point x="635" y="-7" type="line"/>
      <point x="602" y="118"/>
      <point x="528" y="364"/>
      <point x="493" y="488" type="qcurve"/>
      <point x="458" y="364"/>
      <point x="382" y="117"/>
      <point x="344" y="-7" type="qcurve"/>
      <point x="236" y="-7" type="line"/>
      <point x="215" y="103"/>
      <point x="169" y="321"/>
      <point x="145" y="430" type="qcurve"/>
      <point x="113" y="577" type="line"/>
      <point x="109" y="597"/>
      <point x="101" y="638"/>
      <point x="96" y="657" type="qcurve"/>
      <point x="90" y="679"/>
      <point x="73" y="692"/>
      <point x="48" y="691"/>
      <point x="30" y="691" type="qcurve"/>
      <point x="20" y="691"/>
      <point x="11" y="706"/>
      <point x="11" y="714" type="qcurve"/>
      <point x="11" y="721"/>
      <point x="26" y="731"/>
      <point x="32" y="731" type="qcurve"/>
      <point x="61" y="731"/>
      <point x="121" y="728"/>
      <point x="151" y="728" type="qcurve"/>
      <point x="187" y="728"/>
      <point x="258" y="731"/>
      <point x="293" y="731" type="qcurve"/>
      <point x="300" y="731"/>
      <point x="311" y="719"/>
      <point x="311" y="713" type="qcurve"/>
      <point x="311" y="706"/>
      <point x="301" y="694"/>
      <point x="293" y="694" type="qcurve"/>
      <point x="286" y="694"/>
      <point x="273" y="695"/>
      <point x="266" y="695" type="qcurve"/>
      <point x="250" y="695"/>
      <point x="239" y="684"/>
      <point x="239" y="669" type="qcurve"/>
      <point x="239" y="664"/>
      <point x="240" y="653"/>
      <point x="241" y="648" type="qcurve"/>
      <point x="261" y="518"/>
      <point x="312" y="258"/>
      <point x="334" y="127" type="qcurve"/>
      <point x="362" y="225"/>
      <point x="422" y="420"/>
      <point x="447" y="518" type="qcurve"/>
      <point x="456" y="550"/>
      <point x="471" y="613"/>
      <point x="479" y="644" type="qcurve"/>
      <point x="482" y="658"/>
      <point x="489" y="685"/>
      <point x="493" y="698" type="qcurve"/>
      <point x="498" y="712"/>
      <point x="511" y="722"/>
      <point x="526" y="722" type="qcurve"/>
      <point x="538" y="722"/>
      <point x="558" y="718"/>
      <point x="563" y="706" type="qcurve"/>
      <point x="569" y="696"/>
      <point x="574" y="667"/>
      <point x="577" y="655" type="qcurve"/>
      <point x="586" y="623"/>
      <point x="604" y="558"/>
      <point x="613" y="525" type="qcurve"/>
      <point x="642" y="425"/>
      <point x="699" y="226"/>
      <point x="728" y="125" type="qcurve"/>
      <point x="742" y="196"/>
      <point x="773" y="337"/>
      <point x="786" y="408" type="qcurve"/>
      <point x="796" y="463"/>
      <point x="817" y="573"/>
      <point x="824" y="628" type="qcurve"/>
      <point x="826" y="640"/>
      <point x="828" y="665"/>
      <point x="828" y="677" type="qcurve"/>
      <point x="828" y="682"/>
      <point x="817" y="701"/>
      <point x="810" y="701" type="qcurve"/>
      <point x="804" y="701"/>
      <point x="792" y="701"/>
      <point x="786" y="701" type="qcurve"/>
      <point x="776" y="701"/>
      <point x="757" y="699"/>
      <point x="746" y="699" type="qcurve"/>
      <point x="739" y="699"/>
      <point x="730" y="709"/>
      <point x="730" y="716" type="qcurve"/>
      <point x="730" y="734"/>
      <point x="745" y="734" type="qcurve"/>
      <point x="763" y="734"/>
      <point x="800" y="732"/>
      <point x="818" y="732" type="qcurve"/>
      <point x="855" y="732"/>
      <point x="927" y="734"/>
      <point x="964" y="734" type="qcurve"/>
      <point x="982" y="734"/>
    </contour>
  </outline>
</glyph>
<glyph name="Y" format="2">
  <advance width="693" height="1000"/>
  <unicode hex="0059"/>
  <outline>
    <contour>
      <point x="705" y="718" type="qcurve"/>
      <point x="705" y="702"/>
      <point x="682" y="701"/>
      <point x="671" y="701" type="qcurve"/>
      <point x="664" y="701"/>
      <point x="646" y="700"/>
      <point x="640" y="697" type="qcurve"/>
      <point x="634" y="695"/>
      <point x="619" y="677"/>
      <point x="616" y="671" type="qcurve"/>
      <point x="564" y="585"/>
      <point x="462" y="412"/>
      <point x="411" y="326" type="qcurve"/>
      <point x="412" y="262"/>
      <point x="411" y="133"/>
      <point x="411" y="69" type="qcurve"/>
      <point x="411" y="56"/>
      <point x="419" y="27"/>
      <point x="435" y="27" type="qcurve"/>
      <point x="449" y="27"/>
      <point x="476" y="29"/>
      <point x="489" y="29" type="qcurve"/>
      <point x="497" y="29"/>
      <point x="506" y="18"/>
      <point x="506" y="11" type="qcurve"/>
      <point x="506" y="4"/>
      <point x="495" y="-5"/>
      <point x="489" y="-5" type="qcurve"/>
      <point x="458" y="-5"/>
      <point x="396" y="-1"/>
      <point x="365" y="-1" type="qcurve"/>
      <point x="335" y="-1"/>
      <point x="276" y="-1"/>
      <point x="247" y="-3" type="qcurve"/>
      <point x="235" y="-4"/>
      <point x="211" y="-5"/>
      <point x="199" y="-5" type="qcurve"/>
      <point x="180" y="-5"/>
      <point x="180" y="12" type="qcurve"/>
      <point x="180" y="30"/>
      <point x="198" y="30" type="qcurve"/>
      <point x="209" y="30"/>
      <point x="229" y="28"/>
      <point x="239" y="28" type="qcurve"/>
      <point x="260" y="28"/>
      <point x="273" y="43"/>
      <point x="272" y="69"/>
      <point x="272" y="84" type="qcurve"/>
      <point x="273" y="267" type="line"/>
      <point x="273" y="298"/>
      <point x="256" y="347"/>
      <point x="244" y="374" type="qcurve"/>
      <point x="226" y="416"/>
      <point x="185" y="498"/>
      <point x="164" y="539" type="qcurve"/>
      <point x="147" y="573"/>
      <point x="110" y="643"/>
      <point x="89" y="674" type="qcurve"/>
      <point x="84" y="682"/>
      <point x="63" y="695"/>
      <point x="53" y="695" type="qcurve"/>
      <point x="46" y="695"/>
      <point x="30" y="692"/>
      <point x="22" y="692" type="qcurve"/>
      <point x="14" y="692"/>
      <point x="1" y="702"/>
      <point x="1" y="710" type="qcurve"/>
      <point x="1" y="726"/>
      <point x="18" y="728" type="qcurve"/>
      <point x="36" y="730"/>
      <point x="72" y="732"/>
      <point x="90" y="733" type="qcurve"/>
      <point x="116" y="736"/>
      <point x="169" y="742"/>
      <point x="195" y="742" type="qcurve"/>
      <point x="207" y="742"/>
      <point x="218" y="733"/>
      <point x="223" y="722" type="qcurve"/>
      <point x="261" y="632"/>
      <point x="340" y="454"/>
      <point x="380" y="365" type="qcurve"/>
      <point x="389" y="379"/>
      <point x="427" y="445"/>
      <point x="472" y="528"/>
      <point x="513" y="611"/>
      <point x="539" y="676"/>
      <point x="539" y="690" type="qcurve"/>
      <point x="539" y="699"/>
      <point x="528" y="704"/>
      <point x="520" y="704" type="qcurve"/>
      <point x="510" y="704"/>
      <point x="491" y="701"/>
      <point x="481" y="701" type="qcurve"/>
      <point x="459" y="701"/>
      <point x="459" y="720" type="qcurve"/>
      <point x="459" y="736"/>
      <point x="477" y="736" type="qcurve"/>
      <point x="506" y="736"/>
      <point x="564" y="733"/>
      <point x="593" y="733" type="qcurve"/>
      <point x="617" y="733"/>
      <point x="665" y="736"/>
      <point x="689" y="736" type="qcurve"/>
      <point x="705" y="736"/>
    </contour>
  </outline>
</glyph>
<glyph name="bracketright" format="2">
  <advance width="450" height="1000"/>
  <unicode hex="005D"/>
  <outline>
    <contour>
      <point x="432" y="-99" type="line"/>
      <point x="162" y="-99" type="line"/>
      <point x="162" y="-60" type="line"/>
      <point x="341" y="-60" type="line"/>
      <point x="341" y="814" type="line"/>
      <point x="162" y="814" type="line"/>
      <point x="162" y="854" type="line"/>
      <point x="432" y="854" type="line"/>
    </contour>
  </outline>
</glyph>
<glyph name="underscore" format="2">
  <advance width="500" height="1000"/>
  <unicode hex="005F"/>
  <outline>
    <contour>
      <point x="498" y="-119" type="line"/>
      <point x="2" y="-119" type="line"/>
      <point x="2" y="-81" type="line"/>
      <point x="498" y="-81" type="line"/>
    </contour>
  </outline>
</glyph>
<glyph name="grave" format="2">
  <advance width="390" height="1000"/>
  <unicode hex="0060"/>
  <outline>
    <contour>
      <point x="336" y="798" type="line"/>
      <point x="323" y="746" type="line"/>
      <point x="54" y="800" type="line"/>
      <point x="73" y="877" type="line"/>
    </contour>
  </outline>
</glyph>
<glyph name="a" format="2">
  <advance width="544" height="1000"/>
  <unicode hex="0061"/>
  <outline>
    <contour>
      <point x="334" y="106" type="qcurve"/>
      <point x="331" y="153"/>
      <point x="329" y="248"/>
      <point x="330" y="296" type="qcurve"/>
      <point x="289" y="289"/>
      <point x="212" y="252"/>
      <point x="162" y="190"/>
      <point x="162" y="142" type="qcurve"/>
      <point x="162" y="122"/>
      <point x="173" y="76"/>
      <point x="202" y="45"/>
      <point x="227" y="45" type="qcurve"/>
      <point x="245" y="45"/>
      <point x="285" y="66"/>
      <point x="322" y="94"/>
    </contour>
    <contour>
      <point x="540" y="47" type="qcurve"/>
      <point x="540" y="43"/>
      <point x="533" y="33"/>
      <point x="530" y="30" type="qcurve"/>
      <point x="499" y="-6"/>
      <point x="450" y="-6" type="qcurve"/>
      <point x="407" y="-6"/>
      <point x="355" y="32"/>
      <point x="341" y="72" type="qcurve"/>
      <point x="309" y="38"/>
      <point x="236" y="-2"/>
      <point x="187" y="-2" type="qcurve"/>
      <point x="152" y="-2"/>
      <point x="81" y="29"/>
      <point x="34" y="87"/>
      <point x="34" y="125" type="qcurve"/>
      <point x="34" y="163"/>
      <point x="73" y="222"/>
      <point x="133" y="265"/>
      <point x="164" y="279" type="qcurve"/>
      <point x="204" y="296"/>
      <point x="288" y="315"/>
      <point x="330" y="325" type="qcurve"/>
      <point x="330" y="329" type="line"/>
      <point x="330" y="347"/>
      <point x="329" y="408"/>
      <point x="317" y="469"/>
      <point x="289" y="512"/>
      <point x="262" y="512" type="qcurve"/>
      <point x="231" y="512"/>
      <point x="182" y="476"/>
      <point x="172" y="446" type="qcurve"/>
      <point x="170" y="437"/>
      <point x="168" y="420"/>
      <point x="166" y="411" type="qcurve"/>
      <point x="164" y="395"/>
      <point x="131" y="384"/>
      <point x="117" y="384" type="qcurve"/>
      <point x="100" y="384"/>
      <point x="68" y="399"/>
      <point x="68" y="420" type="qcurve"/>
      <point x="68" y="428"/>
      <point x="73" y="441"/>
      <point x="76" y="448" type="qcurve"/>
      <point x="92" y="486"/>
      <point x="156" y="522"/>
      <point x="233" y="534"/>
      <point x="268" y="534" type="qcurve"/>
      <point x="350" y="534"/>
      <point x="456" y="446"/>
      <point x="456" y="360" type="qcurve"/>
      <point x="456" y="209" type="line"/>
      <point x="455" y="181"/>
      <point x="456" y="122"/>
      <point x="458" y="93" type="qcurve"/>
      <point x="460" y="76"/>
      <point x="472" y="45"/>
      <point x="493" y="45" type="qcurve"/>
      <point x="507" y="45"/>
      <point x="526" y="57"/>
      <point x="534" y="57" type="qcurve"/>
      <point x="538" y="57"/>
      <point x="540" y="49"/>
    </contour>
  </outline>
</glyph>
<glyph name="b" format="2">
  <advance width="610" height="1000"/>
  <unicode hex="0062"/>
  <outline>
    <contour>
      <point x="437" y="279" type="qcurve"/>
      <point x="437" y="312"/>
      <point x="426" y="390"/>
      <point x="397" y="461"/>
      <point x="369" y="482" type="qcurve"/>
      <point x="359" y="490"/>
      <point x="337" y="499"/>
      <point x="325" y="499" type="qcurve"/>
      <point x="300" y="499"/>
      <point x="250" y="464"/>
      <point x="237" y="443" type="qcurve"/>
      <point x="236" y="441"/>
      <point x="231" y="430"/>
      <point x="231" y="428" type="qcurve"/>
      <point x="231" y="83" type="line"/>
      <point x="231" y="55"/>
      <point x="249" y="26"/>
      <point x="279" y="26" type="qcurve"/>
      <point x="327" y="26"/>
      <point x="388" y="76"/>
      <point x="423" y="154"/>
      <point x="437" y="242"/>
    </contour>
    <contour>
      <point x="573" y="278" type="qcurve"/>
      <point x="573" y="194"/>
      <point x="506" y="68"/>
      <point x="384" y="-2"/>
      <point x="299" y="-2" type="qcurve"/>
      <point x="268" y="-2"/>
      <point x="209" y="9"/>
      <point x="178" y="9" type="qcurve"/>
      <point x="161" y="9"/>
      <point x="129" y="1"/>
      <point x="112" y="1" type="qcurve"/>
      <point x="107" y="1"/>
      <point x="96" y="5"/>
      <point x="96" y="12" type="qcurve"/>
      <point x="96" y="14"/>
      <point x="98" y="20"/>
      <point x="98" y="22" type="qcurve"/>
      <point x="102" y="37"/>
      <point x="105" y="68"/>
      <point x="105" y="83" type="qcurve"/>
      <point x="105" y="680" type="line"/>
      <point x="105" y="691"/>
      <point x="98" y="717"/>
      <point x="84" y="717" type="qcurve"/>
      <point x="68" y="717"/>
      <point x="38" y="714"/>
      <point x="22" y="714" type="qcurve"/>
      <point x="18" y="714"/>
      <point x="13" y="722"/>
      <point x="13" y="726" type="qcurve"/>
      <point x="13" y="735"/>
      <point x="22" y="738" type="qcurve"/>
      <point x="33" y="741"/>
      <point x="56" y="744"/>
      <point x="66" y="745" type="qcurve"/>
      <point x="94" y="750"/>
      <point x="150" y="759"/>
      <point x="177" y="767" type="qcurve"/>
      <point x="185" y="769"/>
      <point x="200" y="774"/>
      <point x="207" y="774" type="qcurve"/>
      <point x="215" y="774"/>
      <point x="230" y="763"/>
      <point x="230" y="754" type="qcurve"/>
      <point x="230" y="495" type="line"/>
      <point x="258" y="512"/>
      <point x="323" y="531"/>
      <point x="355" y="531" type="qcurve"/>
      <point x="430" y="531"/>
      <point x="526" y="462"/>
      <point x="573" y="347"/>
    </contour>
  </outline>
</glyph>
<glyph name="d" format="2">
  <advance width="606" height="1000"/>
  <unicode hex="0064"/>
  <outline>
    <contour>
      <point x="393" y="380" type="line"/>
      <point x="393" y="406"/>
      <point x="376" y="463"/>
      <point x="339" y="503"/>
      <point x="307" y="503" type="qcurve"/>
      <point x="291" y="503"/>
      <point x="261" y="495"/>
      <point x="247" y="484" type="qcurve"/>
      <point x="219" y="462"/>
      <point x="186" y="382"/>
      <point x="173" y="293"/>
      <point x="173" y="259" type="qcurve"/>
      <point x="173" y="231"/>
      <point x="180" y="156"/>
      <point x="202" y="84"/>
      <point x="246" y="37"/>
      <point x="284" y="37" type="qcurve"/>
      <point x="307" y="37"/>
      <point x="351" y="70"/>
      <point x="386" y="116"/>
      <point x="393" y="136" type="qcurve"/>
    </contour>
    <contour>
      <point x="603" y="42" type="qcurve"/>
      <point x="603" y="33"/>
      <point x="576" y="16"/>
      <point x="538" y="4"/>
      <point x="502" y="-3"/>
      <point x="494" y="-3" type="qcurve"/>
      <point x="458" y="-3"/>
      <point x="412" y="41"/>
      <point x="399" y="72" type="qcurve"/>
      <point x="379" y="44"/>
      <point x="312" y="0"/>
      <point x="277" y="0" type="qcurve"/>
      <point x="246" y="0"/>
      <point x="177" y="12"/>
      <point x="150" y="30" type="qcurve"/>
      <point x="95" y="67"/>
      <point x="41" y="190"/>
      <point x="41" y="254" type="qcurve"/>
      <point x="41" y="337"/>
      <point x="102" y="462"/>
      <point x="220" y="532"/>
      <point x="305" y="532" type="qcurve"/>
      <point x="326" y="532"/>
      <point x="373" y="515"/>
      <point x="391" y="505" type="qcurve"/>
      <point x="391" y="678" type="line"/>
      <point x="391" y="689"/>
      <point x="386" y="718"/>
      <point x="371" y="718" type="qcurve"/>
      <point x="356" y="718"/>
      <point x="327" y="716"/>
      <point x="313" y="716" type="qcurve"/>
      <point x="299" y="716"/>
      <point x="299" y="728" type="qcurve"/>
      <point x="299" y="740"/>
      <point x="310" y="741" type="qcurve"/>
      <point x="318" y="743"/>
      <point x="334" y="743"/>
      <point x="341" y="744" type="qcurve"/>
      <point x="360" y="746"/>
      <point x="396" y="752"/>
      <point x="414" y="755" type="qcurve"/>
      <point x="433" y="759"/>
      <point x="469" y="767"/>
      <point x="487" y="772" type="qcurve"/>
      <point x="492" y="774"/>
      <point x="500" y="776"/>
      <point x="504" y="776" type="qcurve"/>
      <point x="519" y="776"/>
      <point x="519" y="760" type="qcurve"/>
      <point x="519" y="109" type="line"/>
      <point x="519" y="97"/>
      <point x="522" y="66"/>
      <point x="537" y="43"/>
      <point x="553" y="43" type="qcurve"/>
      <point x="564" y="43"/>
      <point x="587" y="53"/>
      <point x="594" y="53" type="qcurve"/>
      <point x="599" y="53"/>
      <point x="603" y="46"/>
    </contour>
  </outline>
</glyph>
<glyph name="g" format="2">
  <advance width="552" height="1000"/>
  <unicode hex="0067"/>
  <outline>
    <contour>
      <point x="380" y="-41" type="qcurve"/>
      <point x="380" y="-2"/>
      <point x="347" y="32"/>
      <point x="293" y="42"/>
      <point x="263" y="45" type="qcurve"/>
      <point x="188" y="53" type="line"/>
      <point x="168" y="30"/>
      <point x="154" y="-16"/>
      <point x="154" y="-45" type="qcurve"/>
      <point x="154" y="-105"/>
      <point x="221" y="-149"/>
      <point x="275" y="-149" type="qcurve"/>
      <point x="327" y="-149"/>
      <point x="380" y="-92"/>
    </contour>
    <contour>
      <point x="337" y="375" type="line"/>
      <point x="337" y="393"/>
      <point x="335" y="441"/>
      <point x="323" y="487"/>
      <point x="295" y="517"/>
      <point x="270" y="517" type="qcurve"/>
      <point x="240" y="517"/>
      <point x="207" y="482"/>
      <point x="193" y="429"/>
      <point x="190" y="373"/>
      <point x="190" y="352" type="qcurve"/>
      <point x="190" y="330"/>
      <point x="194" y="280"/>
      <point x="209" y="236"/>
      <point x="241" y="208"/>
      <point x="270" y="208" type="qcurve"/>
      <point x="295" y="208"/>
      <point x="322" y="237"/>
      <point x="334" y="282"/>
      <point x="337" y="328"/>
      <point x="337" y="346" type="qcurve"/>
    </contour>
    <contour>
      <point x="535" y="512" type="qcurve"/>
      <point x="535" y="500"/>
      <point x="504" y="488"/>
      <point x="467" y="485"/>
      <point x="458" y="485" type="qcurve"/>
      <point x="447" y="485"/>
      <point x="424" y="486"/>
      <point x="413" y="487" type="qcurve"/>
      <point x="429" y="473"/>
      <point x="452" y="427"/>
      <point x="465" y="376"/>
      <point x="465" y="355" type="qcurve"/>
      <point x="465" y="303"/>
      <point x="408" y="227"/>
      <point x="318" y="187"/>
      <point x="270" y="187" type="qcurve"/>
      <point x="260" y="187"/>
      <point x="238" y="187"/>
      <point x="227" y="188" type="qcurve"/>
      <point x="212" y="175"/>
      <point x="193" y="148"/>
      <point x="193" y="125" type="qcurve"/>
      <point x="193" y="117"/>
      <point x="209" y="100"/>
      <point x="216" y="98" type="qcurve"/>
      <point x="231" y="93"/>
      <point x="265" y="90"/>
      <point x="280" y="88" type="qcurve"/>
      <point x="319" y="86"/>
      <point x="405" y="82"/>
      <point x="480" y="53"/>
      <point x="502" y="13" type="qcurve"/>
      <point x="508" y="3"/>
      <point x="511" y="-17"/>
      <point x="511" y="-29" type="qcurve"/>
      <point x="511" y="-72"/>
      <point x="462" y="-129"/>
      <point x="387" y="-163"/>
      <point x="304" y="-178"/>
      <point x="270" y="-178" type="qcurve"/>
      <point x="245" y="-178"/>
      <point x="167" y="-171"/>
      <point x="90" y="-149"/>
      <point x="38" y="-107"/>
      <point x="38" y="-71" type="qcurve"/>
      <point x="38" y="-43"/>
      <point x="64" y="3"/>
      <point x="103" y="42"/>
      <point x="122" y="58" type="qcurve"/>
      <point x="110" y="61"/>
      <point x="72" y="80"/>
      <point x="72" y="95" type="qcurve"/>
      <point x="72" y="106"/>
      <point x="92" y="138"/>
      <point x="122" y="172"/>
      <point x="151" y="201"/>
      <point x="159" y="209" type="qcurve"/>
      <point x="113" y="234"/>
      <point x="61" y="313"/>
      <point x="61" y="366" type="qcurve"/>
      <point x="61" y="421"/>
      <point x="122" y="496"/>
      <point x="217" y="535"/>
      <point x="266" y="535" type="qcurve"/>
      <point x="280" y="535"/>
      <point x="310" y="531"/>
      <point x="324" y="528" type="qcurve"/>
      <point x="340" y="524"/>
      <point x="372" y="515"/>
      <point x="389" y="515" type="qcurve"/>
      <point x="427" y="515"/>
      <point x="466" y="526" type="qcurve"/>
      <point x="489" y="532"/>
      <point x="513" y="564"/>
      <point x="522" y="564" type="qcurve"/>
      <point x="531" y="564"/>
      <point x="536" y="543"/>
      <point x="535" y="518"/>
    </contour>
  </outline>
</glyph>
<glyph name="j" format="2">
  <advance width="380" height="1000"/>
  <unicode hex="006A"/>
  <outline>
    <contour>
      <point x="274" y="60" type="line"/>
      <point x="274" y="25"/>
      <point x="268" y="-50"/>
      <point x="251" y="-83" type="qcurve"/>
      <point x="226" y="-133"/>
      <point x="126" y="-185"/>
      <point x="71" y="-185" type="qcurve"/>
      <point x="40" y="-185"/>
      <point x="-27" y="-168"/>
      <point x="-49" y="-143" type="qcurve"/>
      <point x="-56" y="-135"/>
      <point x="-67" y="-117"/>
      <point x="-67" y="-107" type="qcurve"/>
      <point x="-67" y="-81"/>
      <point x="-21" y="-48"/>
      <point x="3" y="-48" type="qcurve"/>
      <point x="17" y="-48"/>
      <point x="22" y="-66"/>
      <point x="23" y="-77" type="qcurve"/>
      <point x="25" y="-91"/>
      <point x="34" y="-124"/>
      <point x="55" y="-147"/>
      <point x="73" y="-147" type="qcurve"/>
      <point x="101" y="-147"/>
      <point x="130" y="-112"/>
      <point x="141" y="-63"/>
      <point x="141" y="-41" type="qcurve"/>
      <point x="141" y="81"/>
      <point x="140" y="326"/>
      <point x="140" y="448" type="qcurve"/>
      <point x="140" y="458"/>
      <point x="136" y="484"/>
      <point x="122" y="484" type="qcurve"/>
      <point x="109" y="484"/>
      <point x="81" y="480"/>
      <point x="67" y="480" type="qcurve"/>
      <point x="61" y="480"/>
      <point x="50" y="486"/>
      <point x="50" y="493" type="qcurve"/>
      <point x="50" y="505"/>
      <point x="63" y="509" type="qcurve"/>
      <point x="75" y="513"/>
      <point x="104" y="515"/>
      <point x="117" y="517" type="qcurve"/>
      <point x="150" y="522"/>
      <point x="216" y="535"/>
      <point x="249" y="543" type="qcurve"/>
      <point x="255" y="545"/>
      <point x="260" y="545" type="qcurve"/>
      <point x="274" y="545"/>
      <point x="274" y="532" type="qcurve"/>
    </contour>
    <contour>
      <point x="276" y="699" type="qcurve"/>
      <point x="276" y="668"/>
      <point x="231" y="622"/>
      <point x="199" y="622" type="qcurve"/>
      <point x="168" y="622"/>
      <point x="122" y="668"/>
      <point x="122" y="699" type="qcurve"/>
      <point x="122" y="731"/>
      <point x="168" y="776"/>
      <point x="199" y="776" type="qcurve"/>
      <point x="231" y="776"/>
      <point x="276" y="731"/>
    </contour>
  </outline>
</glyph>
<glyph name="l" format="2">
  <advance width="346" height="1000"/>
  <unicode hex="006C"/>
  <outline>
    <contour>
      <point x="319" y="13" type="qcurve"/>
      <point x="319" y="-3"/>
      <point x="303" y="-3" type="qcurve"/>
      <point x="272" y="-3"/>
      <point x="212" y="2"/>
      <point x="181" y="2" type="qcurve"/>
      <point x="149" y="2"/>
      <point x="84" y="-3"/>
      <point x="52" y="-3" type="qcurve"/>
      <point x="45" y="-3"/>
      <point x="39" y="8"/>
      <point x="39" y="14" type="qcurve"/>
      <point x="39" y="25"/>
      <point x="60" y="31"/>
      <point x="87" y="29"/>
      <point x="94" y="29" type="qcurve"/>
      <point x="116" y="29"/>
      <point x="116" y="53" type="qcurve"/>
      <point x="116" y="134" type="line"/>
      <point x="116" y="266"/>
      <point x="116" y="529"/>
      <point x="116" y="661" type="qcurve"/>
      <point x="116" y="672"/>
      <point x="112" y="705"/>
      <point x="95" y="705" type="qcurve"/>
      <point x="83" y="705"/>
      <point x="60" y="698"/>
      <point x="48" y="698" type="qcurve"/>
      <point x="33" y="698"/>
      <point x="33" y="714" type="qcurve"/>
      <point x="33" y="725"/>
      <point x="46" y="730" type="qcurve"/>
      <point x="59" y="734"/>
      <point x="88" y="738"/>
      <point x="101" y="741" type="qcurve"/>
      <point x="131" y="748"/>
      <point x="190" y="763"/>
      <point x="219" y="770" type="qcurve"/>
      <point x="222" y="771"/>
      <point x="228" y="772"/>
      <point x="231" y="772" type="qcurve"/>
      <point x="237" y="772"/>
      <point x="248" y="767"/>
      <point x="248" y="759" type="qcurve"/>
      <point x="248" y="583"/>
      <point x="246" y="229"/>
      <point x="246" y="53" type="qcurve"/>
      <point x="246" y="36"/>
      <point x="266" y="26"/>
      <point x="294" y="29"/>
      <point x="305" y="29" type="qcurve"/>
      <point x="319" y="29"/>
    </contour>
  </outline>
</glyph>
<glyph name="m" format="2">
  <advance width="920" height="1000"/>
  <unicode hex="006D"/>
  <outline>
    <contour>
      <point x="905" y="12" type="qcurve"/>
      <point x="905" y="-4"/>
      <point x="888" y="-4" type="qcurve"/>
      <point x="859" y="-4"/>
      <point x="801" y="1"/>
      <point x="772" y="1" type="qcurve"/>
      <point x="743" y="1"/>
      <point x="684" y="-4"/>
      <point x="654" y="-4" type="qcurve"/>
      <point x="648" y="-4"/>
      <point x="641" y="7"/>
      <point x="641" y="12" type="qcurve"/>
      <point x="641" y="27"/>
      <point x="659" y="27" type="qcurve"/>
      <point x="667" y="27"/>
      <point x="684" y="26"/>
      <point x="692" y="26" type="qcurve"/>
      <point x="704" y="26"/>
      <point x="708" y="41"/>
      <point x="708" y="51" type="qcurve"/>
      <point x="708" y="348" type="line"/>
      <point x="708" y="375"/>
      <point x="705" y="440"/>
      <point x="694" y="465" type="qcurve"/>
      <point x="685" y="487"/>
      <point x="658" y="504"/>
      <point x="635" y="504" type="qcurve"/>
      <point x="607" y="504"/>
      <point x="551" y="460"/>
      <point x="534" y="440" type="qcurve"/>
      <point x="538" y="420"/>
      <point x="539" y="379"/>
      <point x="539" y="359" type="qcurve"/>
      <point x="539" y="282"/>
      <point x="539" y="128"/>
      <point x="539" y="51" type="qcurve"/>
      <point x="539" y="39"/>
      <point x="548" y="25"/>
      <point x="561" y="25" type="qcurve"/>
      <point x="568" y="25"/>
      <point x="581" y="27"/>
      <point x="588" y="27" type="qcurve"/>
      <point x="603" y="27"/>
      <point x="603" y="12" type="qcurve"/>
      <point x="603" y="-4"/>
      <point x="586" y="-4" type="qcurve"/>
      <point x="558" y="-4"/>
      <point x="501" y="1"/>
      <point x="472" y="1" type="qcurve"/>
      <point x="443" y="1"/>
      <point x="385" y="-4"/>
      <point x="356" y="-4" type="qcurve"/>
      <point x="349" y="-4"/>
      <point x="343" y="7"/>
      <point x="343" y="12" type="qcurve"/>
      <point x="343" y="23"/>
      <point x="361" y="28"/>
      <point x="384" y="26"/>
      <point x="390" y="26" type="qcurve"/>
      <point x="404" y="26"/>
      <point x="410" y="39"/>
      <point x="410" y="51" type="qcurve"/>
      <point x="410" y="125"/>
      <point x="409" y="274"/>
      <point x="409" y="348" type="qcurve"/>
      <point x="409" y="375"/>
      <point x="406" y="440"/>
      <point x="395" y="465" type="qcurve"/>
      <point x="385" y="488"/>
      <point x="357" y="502"/>
      <point x="333" y="502" type="qcurve"/>
      <point x="320" y="502"/>
      <point x="282" y="477"/>
      <point x="248" y="445"/>
      <point x="239" y="435" type="qcurve"/>
      <point x="239" y="339"/>
      <point x="239" y="147"/>
      <point x="239" y="51" type="qcurve"/>
      <point x="239" y="39"/>
      <point x="248" y="25"/>
      <point x="261" y="25" type="qcurve"/>
      <point x="268" y="25"/>
      <point x="282" y="27"/>
      <point x="289" y="27" type="qcurve"/>
      <point x="303" y="27"/>
      <point x="303" y="12" type="qcurve"/>
      <point x="303" y="-4"/>
      <point x="287" y="-4" type="qcurve"/>
      <point x="258" y="-4"/>
      <point x="201" y="0"/>
      <point x="172" y="0" type="qcurve"/>
      <point x="142" y="0"/>
      <point x="83" y="-4"/>
      <point x="53" y="-4" type="qcurve"/>
      <point x="46" y="-4"/>
      <point x="39" y="7"/>
      <point x="39" y="12" type="qcurve"/>
      <point x="39" y="27"/>
      <point x="56" y="27" type="qcurve"/>
      <point x="64" y="27"/>
      <point x="81" y="26"/>
      <point x="90" y="26" type="qcurve"/>
      <point x="104" y="26"/>
      <point x="109" y="54"/>
      <point x="109" y="64" type="qcurve"/>
      <point x="109" y="159"/>
      <point x="109" y="349"/>
      <point x="109" y="444" type="qcurve"/>
      <point x="109" y="455"/>
      <point x="103" y="481"/>
      <point x="87" y="481" type="qcurve"/>
      <point x="76" y="481"/>
      <point x="53" y="478"/>
      <point x="42" y="478" type="qcurve"/>
      <point x="36" y="478"/>
      <point x="25" y="485"/>
      <point x="25" y="492" type="qcurve"/>
      <point x="25" y="499"/>
      <point x="34" y="505"/>
      <point x="38" y="506" type="qcurve"/>
      <point x="51" y="510"/>
      <point x="79" y="512"/>
      <point x="92" y="514" type="qcurve"/>
      <point x="104" y="517"/>
      <point x="149" y="529"/>
      <point x="193" y="540"/>
      <point x="201" y="540" type="qcurve"/>
      <point x="213" y="540"/>
      <point x="218" y="529" type="qcurve"/>
      <point x="225" y="518"/>
      <point x="231" y="489"/>
      <point x="235" y="476" type="qcurve"/>
      <point x="271" y="506"/>
      <point x="343" y="537"/>
      <point x="390" y="537" type="qcurve"/>
      <point x="428" y="537"/>
      <point x="501" y="507"/>
      <point x="520" y="473" type="qcurve"/>
      <point x="555" y="504"/>
      <point x="631" y="540"/>
      <point x="677" y="540" type="qcurve"/>
      <point x="746" y="540"/>
      <point x="814" y="502"/>
      <point x="837" y="423"/>
      <point x="837" y="359" type="qcurve"/>
      <point x="837" y="282"/>
      <point x="837" y="128"/>
      <point x="837" y="51" type="qcurve"/>
      <point x="837" y="35"/>
      <point x="854" y="25"/>
      <point x="879" y="27"/>
      <point x="890" y="27" type="qcurve"/>
      <point x="905" y="27"/>
    </contour>
  </outline>
</glyph>
<glyph name="q" format="2">
  <advance width="608" height="1000"/>
  <unicode hex="0071"/>
  <outline>
    <contour>
      <point x="400" y="367" type="qcurve"/>
      <point x="400" y="398"/>
      <point x="380" y="464"/>
      <point x="336" y="509"/>
      <point x="299" y="509" type="qcurve"/>
      <point x="259" y="509"/>
      <point x="209" y="455"/>
      <point x="181" y="374"/>
      <point x="170" y="290"/>
      <point x="170" y="261" type="qcurve"/>
      <point x="170" y="234"/>
      <point x="183" y="159"/>
      <point x="212" y="85"/>
      <point x="260" y="36"/>
      <point x="294" y="36" type="qcurve"/>
      <point x="323" y="36"/>
      <point x="371" y="71"/>
      <point x="399" y="124"/>
      <point x="399" y="152" type="qcurve"/>
      <point x="399" y="205"/>
      <point x="400" y="313"/>
    </contour>
    <contour>
      <point x="591" y="-177" type="qcurve"/>
      <point x="591" y="-193"/>
      <point x="575" y="-193" type="qcurve"/>
      <point x="547" y="-193"/>
      <point x="492" y="-188"/>
      <point x="464" y="-188" type="qcurve"/>
      <point x="435" y="-188"/>
      <point x="375" y="-193"/>
      <point x="346" y="-193" type="qcurve"/>
      <point x="339" y="-193"/>
      <point x="333" y="-182"/>
      <point x="333" y="-177" type="qcurve"/>
      <point x="333" y="-161"/>
      <point x="349" y="-161" type="qcurve"/>
      <point x="357" y="-161"/>
      <point x="373" y="-163"/>
      <point x="380" y="-163" type="qcurve"/>
      <point x="391" y="-163"/>
      <point x="400" y="-148"/>
      <point x="400" y="-138" type="qcurve"/>
      <point x="400" y="58" type="line"/>
      <point x="378" y="29"/>
      <point x="311" y="3"/>
      <point x="276" y="3" type="qcurve"/>
      <point x="246" y="3"/>
      <point x="170" y="16"/>
      <point x="145" y="33" type="qcurve"/>
      <point x="92" y="70"/>
      <point x="39" y="191"/>
      <point x="39" y="254" type="qcurve"/>
      <point x="39" y="338"/>
      <point x="104" y="464"/>
      <point x="226" y="533"/>
      <point x="311" y="533" type="qcurve"/>
      <point x="330" y="533"/>
      <point x="377" y="520"/>
      <point x="420" y="497"/>
      <point x="432" y="482" type="qcurve"/>
      <point x="439" y="488"/>
      <point x="471" y="513"/>
      <point x="504" y="534"/>
      <point x="511" y="534" type="qcurve"/>
      <point x="518" y="534"/>
      <point x="528" y="528"/>
      <point x="528" y="520" type="qcurve"/>
      <point x="528" y="459" type="line"/>
      <point x="527" y="-144" type="line"/>
      <point x="527" y="-154"/>
      <point x="541" y="-163"/>
      <point x="550" y="-163" type="qcurve"/>
      <point x="557" y="-163"/>
      <point x="570" y="-162"/>
      <point x="577" y="-162" type="qcurve"/>
      <point x="591" y="-162"/>
    </contour>
  </outline>
</glyph>
<glyph name="v" format="2">
  <advance width="574" height="1000"/>
  <unicode hex="0076"/>
  <outline>
    <contour>
      <point x="583" y="525" type="qcurve"/>
      <point x="583" y="517"/>
      <point x="572" y="511"/>
      <point x="564" y="511" type="qcurve"/>
      <point x="560" y="511"/>
      <point x="550" y="511"/>
      <point x="548" y="511" type="qcurve"/>
      <point x="529" y="511"/>
      <point x="521" y="493" type="qcurve"/>
      <point x="517" y="483"/>
      <point x="509" y="459"/>
      <point x="505" y="448" type="qcurve"/>
      <point x="468" y="335"/>
      <point x="390" y="112"/>
      <point x="352" y="-1" type="qcurve"/>
      <point x="228" y="-6" type="line"/>
      <point x="204" y="68"/>
      <point x="157" y="217"/>
      <point x="133" y="292" type="qcurve"/>
      <point x="120" y="333"/>
      <point x="95" y="415"/>
      <point x="81" y="455" type="qcurve"/>
      <point x="71" y="480"/>
      <point x="40" y="487"/>
      <point x="17" y="487" type="qcurve"/>
      <point x="2" y="487"/>
      <point x="2" y="501" type="qcurve"/>
      <point x="2" y="509"/>
      <point x="8" y="515"/>
      <point x="15" y="516" type="qcurve"/>
      <point x="25" y="518"/>
      <point x="48" y="521"/>
      <point x="58" y="522" type="qcurve"/>
      <point x="80" y="525"/>
      <point x="123" y="532"/>
      <point x="145" y="535" type="qcurve"/>
      <point x="152" y="537"/>
      <point x="165" y="539"/>
      <point x="172" y="539" type="qcurve"/>
      <point x="186" y="539"/>
      <point x="191" y="526" type="qcurve"/>
      <point x="196" y="514"/>
      <point x="203" y="488"/>
      <point x="207" y="475" type="qcurve"/>
      <point x="238" y="368" type="line"/>
      <point x="261" y="289"/>
      <point x="308" y="130"/>
      <point x="331" y="50" type="qcurve"/>
      <point x="367" y="157"/>
      <point x="436" y="372"/>
      <point x="460" y="482" type="qcurve"/>
      <point x="461" y="487"/>
      <point x="462" y="496"/>
      <point x="462" y="501" type="qcurve"/>
      <point x="462" y="510"/>
      <point x="448" y="513"/>
      <point x="441" y="513" type="qcurve"/>
      <point x="406" y="513" type="line"/>
      <point x="398" y="513"/>
      <point x="389" y="517"/>
      <point x="389" y="527" type="qcurve"/>
      <point x="389" y="532"/>
      <point x="397" y="539"/>
      <point x="401" y="539" type="qcurve"/>
      <point x="425" y="539"/>
      <point x="473" y="538"/>
      <point x="497" y="538" type="qcurve"/>
      <point x="515" y="538"/>
      <point x="550" y="540"/>
      <point x="568" y="540" type="qcurve"/>
      <point x="574" y="540"/>
      <point x="583" y="531"/>
    </contour>
  </outline>
</glyph>
<glyph name="bar" format="2">
  <advance width="250" height="1000"/>
  <unicode hex="007C"/>
  <outline>
    <contour>
      <point x="160" y="-69" type="line"/>
      <point x="90" y="-69" type="line"/>
      <point x="90" y="807" type="line"/>
      <point x="160" y="807" type="line"/>
    </contour>
  </outline>
</glyph>
<glyph name="braceright" format="2">
  <advance width="450" height="1000"/>
  <unicode hex="007D"/>
  <outline>
    <contour>
      <point x="351" y="378" type="qcurve"/>
      <point x="268" y="348"/>
      <point x="268" y="259" type="qcurve"/>
      <point x="268" y="207"/>
      <point x="270" y="103"/>
      <point x="270" y="51" type="qcurve"/>
      <point x="270" y="7"/>
      <point x="215" y="-56"/>
      <point x="136" y="-93"/>
      <point x="98" y="-98" type="qcurve"/>
      <point x="98" y="-82" type="line"/>
      <point x="134" y="-70"/>
      <point x="168" y="-23"/>
      <point x="178" y="39"/>
      <point x="178" y="72" type="qcurve"/>
      <point x="178" y="120"/>
      <point x="179" y="216"/>
      <point x="179" y="263" type="qcurve"/>
      <point x="179" y="287"/>
      <point x="216" y="330"/>
      <point x="265" y="364"/>
      <point x="283" y="371" type="qcurve"/>
      <point x="288" y="373"/>
      <point x="297" y="377"/>
      <point x="302" y="378" type="qcurve"/>
      <point x="297" y="380"/>
      <point x="288" y="384"/>
      <point x="283" y="386" type="qcurve"/>
      <point x="273" y="391"/>
      <point x="253" y="398"/>
      <point x="243" y="405" type="qcurve"/>
      <point x="223" y="418"/>
      <point x="179" y="468"/>
      <point x="179" y="494" type="qcurve"/>
      <point x="179" y="542"/>
      <point x="178" y="638"/>
      <point x="178" y="687" type="qcurve"/>
      <point x="178" y="720"/>
      <point x="167" y="782"/>
      <point x="133" y="831"/>
      <point x="98" y="842" type="qcurve"/>
      <point x="98" y="858" type="line"/>
      <point x="136" y="853"/>
      <point x="215" y="815"/>
      <point x="270" y="752"/>
      <point x="270" y="708" type="qcurve"/>
      <point x="270" y="656"/>
      <point x="268" y="551"/>
      <point x="268" y="498" type="qcurve"/>
      <point x="268" y="410"/>
    </contour>
  </outline>
</glyph>
<glyph name="asciitilde" format="2">
  <advance width="700" height="1000"/>
  <unicode hex="007E"/>
  <outline>
    <contour>
      <point x="665" y="310" type="line"/>
      <point x="634" y="273"/>
      <point x="547" y="226"/>
      <point x="499" y="226" type="qcurve"/>
      <point x="453" y="226"/>
      <point x="368" y="261"/>
      <point x="290" y="306"/>
      <point x="218" y="341"/>
      <point x="185" y="341" type="qcurve"/>
      <point x="147" y="341"/>
      <point x="76" y="311"/>
      <point x="46" y="289" type="qcurve"/>
      <point x="24" y="321" type="line"/>
      <point x="44" y="343"/>
      <point x="100" y="382"/>
      <point x="164" y="408"/>
      <point x="194" y="408" type="qcurve"/>
      <point x="243" y="408"/>
      <point x="328" y="374"/>
      <point x="406" y="329"/>
      <point x="482" y="295"/>
      <point x="521" y="295" type="qcurve"/>
      <point x="556" y="295"/>
      <point x="619" y="328"/>
      <point x="645" y="348" type="qcurve"/>
    </contour>
  </outline>
</glyph>
<glyph name="cent" format="2">
  <advance width="700" height="1000"/>
  <unicode hex="00A2"/>
  <outline>
    <contour>
      <point x="330" y="604" type="line"/>
      <point x="287" y="582"/>
      <point x="240" y="501"/>
      <point x="222" y="407"/>
      <point x="222" y="362" type="qcurve"/>
      <point x="222" y="322"/>
      <point x="242" y="231"/>
      <point x="289" y="156"/>
      <point x="330" y="138" type="qcurve"/>
    </contour>
    <contour>
      <point x="603" y="232" type="qcurve"/>
      <point x="603" y="228"/>
      <point x="599" y="220"/>
      <point x="597" y="215" type="qcurve"/>
      <point x="587" y="199"/>
      <point x="549" y="160"/>
      <point x="533" y="149" type="qcurve"/>
      <point x="503" y="127"/>
      <point x="424" y="100"/>
      <point x="387" y="96" type="qcurve"/>
      <point x="387" y="-20" type="line"/>
      <point x="330" y="-20" type="line"/>
      <point x="330" y="97" type="line"/>
      <point x="259" y="106"/>
      <point x="147" y="170"/>
      <point x="84" y="279"/>
      <point x="84" y="355" type="qcurve"/>
      <point x="84" y="428"/>
      <point x="146" y="550"/>
      <point x="257" y="630"/>
      <point x="330" y="638" type="qcurve"/>
      <point x="330" y="755" type="line"/>
      <point x="387" y="755" type="line"/>
      <point x="387" y="638" type="line"/>
      <point x="413" y="637"/>
      <point x="448" y="627"/>
      <point x="471" y="617" type="qcurve"/>
      <point x="478" y="614"/>
      <point x="504" y="600"/>
      <point x="509" y="600" type="qcurve"/>
      <point x="522" y="600"/>
      <point x="542" y="619"/>
      <point x="552" y="619" type="qcurve"/>
      <point x="558" y="619"/>
      <point x="562" y="611"/>
      <point x="563" y="606" type="qcurve"/>
      <point x="565" y="596"/>
      <point x="564" y="576"/>
      <point x="565" y="566" type="qcurve"/>
      <point x="566" y="541"/>
      <point x="569" y="492"/>
      <point x="569" y="468" type="qcurve"/>
      <point x="569" y="455"/>
      <point x="560" y="435"/>
      <point x="544" y="435" type="qcurve"/>
      <point x="528" y="435"/>
      <point x="520" y="453" type="qcurve"/>
      <point x="507" y="493"/>
      <point x="481" y="557"/>
      <point x="433" y="601"/>
      <point x="387" y="612" type="qcurve"/>
      <point x="387" y="132" type="line"/>
      <point x="421" y="136"/>
      <point x="499" y="168"/>
      <point x="523" y="192" type="qcurve"/>
      <point x="535" y="204"/>
      <point x="554" y="229"/>
      <point x="564" y="242" type="qcurve"/>
      <point x="571" y="252"/>
      <point x="582" y="252" type="qcurve"/>
      <point x="590" y="252"/>
      <point x="603" y="240"/>
    </contour>
  </outline>
</glyph>
<glyph name="sterling" format="2">
  <advance width="700" height="1000"/>
  <unicode hex="00A3"/>
  <outline>
    <contour>
      <point x="193" y="110" type="qcurve"/>
      <point x="189" y="113"/>
      <point x="166" y="116"/>
      <point x="160" y="116" type="qcurve"/>
      <point x="143" y="116"/>
      <point x="108" y="93"/>
      <point x="108" y="74" type="qcurve"/>
      <point x="108" y="64"/>
      <point x="131" y="59"/>
      <point x="138" y="59" type="qcurve"/>
      <point x="159" y="59"/>
      <point x="186" y="93"/>
    </contour>
    <contour>
      <point x="649" y="127" type="qcurve"/>
      <point x="649" y="113"/>
      <point x="626" y="66"/>
      <point x="617" y="54" type="qcurve"/>
      <point x="592" y="19"/>
      <point x="525" y="-7"/>
      <point x="483" y="-7" type="qcurve"/>
      <point x="421" y="-7"/>
      <point x="308" y="44"/>
      <point x="256" y="75" type="qcurve"/>
      <point x="235" y="44"/>
      <point x="168" y="3"/>
      <point x="130" y="3" type="qcurve"/>
      <point x="112" y="3"/>
      <point x="74" y="12"/>
      <point x="48" y="37"/>
      <point x="48" y="59" type="qcurve"/>
      <point x="48" y="91"/>
      <point x="92" y="128"/>
      <point x="154" y="143"/>
      <point x="179" y="143" type="qcurve"/>
      <point x="185" y="143"/>
      <point x="197" y="142"/>
      <point x="203" y="141" type="qcurve"/>
      <point x="207" y="156"/>
      <point x="209" y="186"/>
      <point x="209" y="201" type="qcurve"/>
      <point x="209" y="251"/>
      <point x="199" y="328"/>
      <point x="189" y="377" type="qcurve"/>
      <point x="66" y="377" type="line"/>
      <point x="66" y="417" type="line"/>
      <point x="182" y="417" type="line"/>
      <point x="177" y="447"/>
      <point x="168" y="508"/>
      <point x="168" y="538" type="qcurve"/>
      <point x="168" y="599"/>
      <point x="222" y="688"/>
      <point x="317" y="737"/>
      <point x="376" y="737" type="qcurve"/>
      <point x="423" y="737"/>
      <point x="465" y="722" type="qcurve"/>
      <point x="489" y="715"/>
      <point x="535" y="697"/>
      <point x="560" y="695" type="qcurve"/>
      <point x="562" y="661"/>
      <point x="577" y="591"/>
      <point x="577" y="556" type="qcurve"/>
      <point x="577" y="543"/>
      <point x="559" y="528"/>
      <point x="546" y="528" type="qcurve"/>
      <point x="536" y="528"/>
      <point x="518" y="534"/>
      <point x="513" y="543" type="qcurve"/>
      <point x="510" y="549"/>
      <point x="509" y="562"/>
      <point x="507" y="568" type="qcurve"/>
      <point x="502" y="597"/>
      <point x="472" y="656"/>
      <point x="424" y="696"/>
      <point x="390" y="696" type="qcurve"/>
      <point x="353" y="696"/>
      <point x="307" y="650"/>
      <point x="286" y="584"/>
      <point x="286" y="552" type="qcurve"/>
      <point x="286" y="518"/>
      <point x="294" y="451"/>
      <point x="299" y="417" type="qcurve"/>
      <point x="508" y="417" type="line"/>
      <point x="508" y="377" type="line"/>
      <point x="307" y="377" type="line"/>
      <point x="311" y="355"/>
      <point x="313" y="313"/>
      <point x="313" y="292" type="qcurve"/>
      <point x="313" y="249"/>
      <point x="298" y="163"/>
      <point x="281" y="122" type="qcurve"/>
      <point x="307" y="112"/>
      <point x="381" y="89"/>
      <point x="457" y="73"/>
      <point x="484" y="73" type="qcurve"/>
      <point x="519" y="73"/>
      <point x="587" y="86"/>
      <point x="615" y="108" type="qcurve"/>
      <point x="620" y="112"/>
      <point x="639" y="134"/>
      <point x="643" y="134" type="qcurve"/>
      <point x="649" y="134"/>
    </contour>
  </outline>
</glyph>
<glyph name="brokenbar" format="2">
  <advance width="400" height="1000"/>
  <unicode hex="00A6"/>
  <outline>
    <contour>
      <point x="244" y="-91" type="line"/>
      <point x="156" y="-91" type="line"/>
      <point x="156" y="334" type="line"/>
      <point x="244" y="334" type="line"/>
    </contour>
    <contour>
      <point x="244" y="423" type="line"/>
      <point x="156" y="423" type="line"/>
      <point x="156" y="849" type="line"/>
      <point x="244" y="849" type="line"/>
    </contour>
  </outline>
</glyph>
<glyph name="macron" format="2">
  <advance width="500" height="1000"/>
  <unicode hex="00AF"/>
  <outline>
    <contour>
      <point x="379" y="680" type="line"/>
      <point x="121" y="680" type="line"/>
      <point x="121" y="731" type="line"/>
      <point x="379" y="731" type="line"/>
    </contour>
  </outline>
</glyph>
<glyph name="twosuperior" format="2">
  <advance width="390" height="1000"/>
  <unicode hex="00B2"/>
  <outline>
    <contour>
      <point x="353" y="480" type="qcurve"/>
      <point x="353" y="473"/>
      <point x="339" y="435"/>
      <point x="337" y="425" type="qcurve"/>
      <point x="334" y="415"/>
      <point x="330" y="393"/>
      <point x="328" y="382" type="qcurve"/>
      <point x="323" y="378"/>
      <point x="315" y="378" type="qcurve"/>
      <point x="302" y="378"/>
      <point x="275" y="380"/>
      <point x="261" y="380" type="qcurve"/>
      <point x="208" y="380"/>
      <point x="102" y="376"/>
      <point x="49" y="376" type="qcurve"/>
      <point x="45" y="376"/>
      <point x="33" y="380"/>
      <point x="33" y="386" type="qcurve"/>
      <point x="33" y="413"/>
      <point x="70" y="471"/>
      <point x="124" y="527"/>
      <point x="179" y="575"/>
      <point x="197" y="593" type="qcurve"/>
      <point x="218" y="613"/>
      <point x="251" y="665"/>
      <point x="251" y="696" type="qcurve"/>
      <point x="251" y="714"/>
      <point x="240" y="754"/>
      <point x="215" y="781"/>
      <point x="193" y="781" type="qcurve"/>
      <point x="187" y="781"/>
      <point x="166" y="776"/>
      <point x="160" y="773" type="qcurve"/>
      <point x="139" y="764"/>
      <point x="122" y="735"/>
      <point x="117" y="704"/>
      <point x="114" y="676"/>
      <point x="100" y="658"/>
      <point x="81" y="658" type="qcurve"/>
      <point x="66" y="658"/>
      <point x="39" y="678"/>
      <point x="39" y="694" type="qcurve"/>
      <point x="39" y="723"/>
      <point x="72" y="765"/>
      <point x="123" y="791"/>
      <point x="180" y="803"/>
      <point x="204" y="803" type="qcurve"/>
      <point x="236" y="803"/>
      <point x="296" y="780"/>
      <point x="336" y="734"/>
      <point x="336" y="698" type="qcurve"/>
      <point x="336" y="659"/>
      <point x="306" y="607"/>
      <point x="258" y="569"/>
      <point x="202" y="536"/>
      <point x="175" y="518" type="qcurve"/>
      <point x="165" y="511"/>
      <point x="128" y="480"/>
      <point x="96" y="448"/>
      <point x="91" y="437" type="qcurve"/>
      <point x="89" y="431"/>
      <point x="89" y="428" type="qcurve"/>
      <point x="91" y="426"/>
      <point x="92" y="426" type="qcurve"/>
      <point x="127" y="426"/>
      <point x="199" y="427"/>
      <point x="234" y="429" type="qcurve"/>
      <point x="268" y="431"/>
      <point x="300" y="450"/>
      <point x="313" y="473"/>
      <point x="323" y="490"/>
      <point x="335" y="490" type="qcurve"/>
      <point x="339" y="490"/>
      <point x="353" y="485"/>
    </contour>
  </outline>
</glyph>
<glyph name="mu" format="2">
  <advance width="600" height="1000"/>
  <unicode hex="00B5"/>
  <outline>
    <contour>
      <point x="593" y="41" type="qcurve"/>
      <point x="593" y="32"/>
      <point x="570" y="18"/>
      <point x="537" y="7"/>
      <point x="507" y="2"/>
      <point x="500" y="2" type="qcurve"/>
      <point x="466" y="2"/>
      <point x="422" y="43"/>
      <point x="414" y="75" type="qcurve"/>
      <point x="383" y="37"/>
      <point x="300" y="1"/>
      <point x="251" y="1" type="qcurve"/>
      <point x="225" y="1"/>
      <point x="173" y="13"/>
      <point x="153" y="31" type="qcurve"/>
      <point x="151" y="-9"/>
      <point x="146" y="-89"/>
      <point x="143" y="-130" type="qcurve"/>
      <point x="142" y="-141"/>
      <point x="136" y="-157"/>
      <point x="125" y="-162" type="qcurve"/>
      <point x="119" y="-165"/>
      <point x="95" y="-167"/>
      <point x="88" y="-167" type="qcurve"/>
      <point x="75" y="-167"/>
      <point x="40" y="-156"/>
      <point x="40" y="-140" type="qcurve"/>
      <point x="40" y="-140"/>
      <point x="50" y="-112"/>
      <point x="51" y="-109" type="qcurve"/>
      <point x="57" y="-87"/>
      <point x="65" y="-43"/>
      <point x="69" y="-21" type="qcurve"/>
      <point x="88" y="108"/>
      <point x="88" y="366"/>
      <point x="89" y="496" type="qcurve"/>
      <point x="89" y="511"/>
      <point x="75" y="511" type="qcurve"/>
      <point x="65" y="511"/>
      <point x="47" y="508"/>
      <point x="38" y="508" type="qcurve"/>
      <point x="34" y="508"/>
      <point x="23" y="513"/>
      <point x="23" y="518" type="qcurve"/>
      <point x="23" y="529"/>
      <point x="33" y="536"/>
      <point x="42" y="537" type="qcurve"/>
      <point x="58" y="539"/>
      <point x="92" y="542"/>
      <point x="108" y="543" type="qcurve"/>
      <point x="126" y="544"/>
      <point x="162" y="547"/>
      <point x="181" y="547" type="qcurve"/>
      <point x="193" y="547"/>
      <point x="201" y="536"/>
      <point x="201" y="525" type="qcurve"/>
      <point x="201" y="437"/>
      <point x="199" y="260"/>
      <point x="199" y="171" type="qcurve"/>
      <point x="199" y="153"/>
      <point x="201" y="112"/>
      <point x="208" y="95" type="qcurve"/>
      <point x="218" y="70"/>
      <point x="266" y="47"/>
      <point x="291" y="47" type="qcurve"/>
      <point x="334" y="47"/>
      <point x="402" y="104"/>
      <point x="407" y="147" type="qcurve"/>
      <point x="409" y="161"/>
      <point x="409" y="190"/>
      <point x="409" y="203" type="qcurve"/>
      <point x="409" y="275"/>
      <point x="407" y="418"/>
      <point x="407" y="490" type="qcurve"/>
      <point x="407" y="498"/>
      <point x="403" y="512"/>
      <point x="393" y="512" type="qcurve"/>
      <point x="382" y="512"/>
      <point x="360" y="508"/>
      <point x="349" y="508" type="qcurve"/>
      <point x="333" y="508"/>
      <point x="333" y="522" type="qcurve"/>
      <point x="333" y="530"/>
      <point x="349" y="535"/>
      <point x="355" y="536" type="qcurve"/>
      <point x="375" y="539"/>
      <point x="416" y="544"/>
      <point x="436" y="546" type="qcurve"/>
      <point x="453" y="548"/>
      <point x="487" y="551"/>
      <point x="504" y="551" type="qcurve"/>
      <point x="509" y="551"/>
      <point x="518" y="546"/>
      <point x="518" y="540" type="qcurve"/>
      <point x="518" y="430"/>
      <point x="517" y="209"/>
      <point x="517" y="98" type="qcurve"/>
      <point x="517" y="86"/>
      <point x="519" y="58"/>
      <point x="533" y="39"/>
      <point x="550" y="39" type="qcurve"/>
      <point x="560" y="39"/>
      <point x="578" y="49"/>
      <point x="585" y="49" type="qcurve"/>
      <point x="593" y="49"/>
    </contour>
  </outline>
</glyph>
<glyph name="periodcentered" format="2">
  <advance width="300" height="1000"/>
  <unicode hex="00B7"/>
  <outline>
    <contour>
      <point x="229" y="308" type="qcurve"/>
      <point x="229" y="275"/>
      <point x="183" y="229"/>
      <point x="150" y="229" type="qcurve"/>
      <point x="117" y="229"/>
      <point x="71" y="275"/>
      <point x="71" y="308" type="qcurve"/>
      <point x="71" y="341"/>
      <point x="117" y="387"/>
      <point x="150" y="387" type="qcurve"/>
      <point x="183" y="387"/>
      <point x="229" y="341"/>
    </contour>
  </outline>
</glyph>
<glyph name="ordmasculine" format="2">
  <advance width="390" height="1000"/>
  <unicode hex="00BA"/>
  <outline>
    <contour>
      <point x="273" y="567" type="qcurve"/>
      <point x="273" y="587"/>
      <point x="268" y="637"/>
      <point x="251" y="684"/>
      <point x="219" y="714"/>
      <point x="192" y="714" type="qcurve"/>
      <point x="167" y="714"/>
      <point x="136" y="682"/>
      <point x="119" y="634"/>
      <point x="113" y="584"/>
      <point x="113" y="565" type="qcurve"/>
      <point x="113" y="544"/>
      <point x="119" y="495"/>
      <point x="136" y="451"/>
      <point x="169" y="423"/>
      <point x="196" y="423" type="qcurve"/>
      <point x="222" y="423"/>
      <point x="253" y="453"/>
      <point x="268" y="498"/>
      <point x="273" y="548"/>
    </contour>
    <contour>
      <point x="354" y="564" type="qcurve"/>
      <point x="354" y="517"/>
      <point x="314" y="442"/>
      <point x="241" y="398"/>
      <point x="193" y="398" type="qcurve"/>
      <point x="146" y="398"/>
      <point x="75" y="442"/>
      <point x="36" y="517"/>
      <point x="36" y="563" type="qcurve"/>
      <point x="36" y="610"/>
      <point x="75" y="690"/>
      <point x="147" y="740"/>
      <point x="196" y="740" type="qcurve"/>
      <point x="277" y="740"/>
      <point x="354" y="640"/>
    </contour>
  </outline>
</glyph>
<glyph name="guillemetright" format="2">
  <advance width="500" height="1000"/>
  <unicode hex="00BB"/>
  <outline>
    <contour>
      <point x="285" y="250" type="line"/>
      <point x="129" y="56" type="line"/>
      <point x="41" y="56" type="line"/>
      <point x="211" y="250" type="line"/>
      <point x="41" y="442" type="line"/>
      <point x="129" y="442" type="line"/>
    </contour>
    <contour>
      <point x="461" y="250" type="line"/>
      <point x="304" y="56" type="line"/>
      <point x="218" y="56" type="line"/>
      <point x="386" y="250" type="line"/>
      <point x="218" y="442" type="line"/>
      <point x="304" y="442" type="line"/>
    </contour>
  </outline>
</glyph>
<glyph name="onequarter" format="2">
  <advance width="1000" height="1000"/>
  <unicode hex="00BC"/>
  <outline>
    <contour>
      <point x="646" y="101" type="line"/>
      <point x="781" y="101" type="line"/>
      <point x="781" y="151"/>
      <point x="782" y="248"/>
      <point x="782" y="297" type="qcurve"/>
    </contour>
    <contour>
      <point x="368" y="366" type="qcurve"/>
      <point x="368" y="355"/>
      <point x="356" y="355" type="qcurve"/>
      <point x="328" y="355" type="line"/>
      <point x="309" y="355"/>
      <point x="273" y="356"/>
      <point x="254" y="356" type="qcurve"/>
      <point x="236" y="356"/>
      <point x="201" y="355"/>
      <point x="183" y="355" type="qcurve"/>
      <point x="157" y="355" type="line"/>
      <point x="146" y="355"/>
      <point x="146" y="366" type="qcurve"/>
      <point x="146" y="380"/>
      <point x="158" y="380" type="qcurve"/>
      <point x="168" y="380"/>
      <point x="188" y="379"/>
      <point x="198" y="379" type="qcurve"/>
      <point x="209" y="379"/>
      <point x="218" y="395"/>
      <point x="218" y="405" type="qcurve"/>
      <point x="218" y="743" type="line"/>
      <point x="215" y="742"/>
      <point x="187" y="733"/>
      <point x="154" y="723"/>
      <point x="130" y="716"/>
      <point x="129" y="716" type="qcurve"/>
      <point x="125" y="716"/>
      <point x="118" y="726"/>
      <point x="118" y="730" type="qcurve"/>
      <point x="118" y="738"/>
      <point x="123" y="746"/>
      <point x="131" y="748" type="qcurve"/>
      <point x="163" y="756"/>
      <point x="236" y="779"/>
      <point x="265" y="792" type="qcurve"/>
      <point x="275" y="797"/>
      <point x="285" y="797" type="qcurve"/>
      <point x="292" y="797"/>
      <point x="295" y="789"/>
      <point x="295" y="784" type="qcurve"/>
      <point x="295" y="735"/>
      <point x="293" y="637"/>
      <point x="293" y="588" type="qcurve"/>
      <point x="293" y="405" type="line"/>
      <point x="293" y="392"/>
      <point x="301" y="379"/>
      <point x="315" y="379" type="qcurve"/>
      <point x="325" y="379"/>
      <point x="345" y="380"/>
      <point x="355" y="380" type="qcurve"/>
      <point x="368" y="380"/>
    </contour>
    <contour>
      <point x="845" y="808" type="line"/>
      <point x="214" y="-103" type="line"/>
      <point x="178" y="-76" type="line"/>
      <point x="810" y="832" type="line"/>
    </contour>
    <contour>
      <point x="939" y="133" type="qcurve"/>
      <point x="939" y="123"/>
      <point x="928" y="79"/>
      <point x="925" y="68" type="qcurve"/>
      <point x="855" y="68" type="line"/>
      <point x="855" y="-12" type="line"/>
      <point x="855" y="-29"/>
      <point x="876" y="-35"/>
      <point x="904" y="-31"/>
      <point x="925" y="-33"/>
      <point x="925" y="-46" type="qcurve"/>
      <point x="925" y="-58"/>
      <point x="912" y="-58" type="qcurve"/>
      <point x="889" y="-58"/>
      <point x="842" y="-55"/>
      <point x="819" y="-55" type="qcurve"/>
      <point x="796" y="-55"/>
      <point x="750" y="-58"/>
      <point x="727" y="-58" type="qcurve"/>
      <point x="715" y="-58"/>
      <point x="715" y="-46" type="qcurve"/>
      <point x="715" y="-34"/>
      <point x="735" y="-31"/>
      <point x="761" y="-34"/>
      <point x="781" y="-28"/>
      <point x="781" y="-12" type="qcurve"/>
      <point x="781" y="68" type="line"/>
      <point x="603" y="68" type="line"/>
      <point x="597" y="68"/>
      <point x="592" y="79"/>
      <point x="592" y="83" type="qcurve"/>
      <point x="592" y="91"/>
      <point x="597" y="98" type="qcurve"/>
      <point x="614" y="125"/>
      <point x="651" y="176"/>
      <point x="669" y="201" type="qcurve"/>
      <point x="701" y="248"/>
      <point x="766" y="339"/>
      <point x="800" y="385" type="qcurve"/>
      <point x="806" y="393"/>
      <point x="826" y="406"/>
      <point x="836" y="406" type="qcurve"/>
      <point x="856" y="406"/>
      <point x="856" y="384" type="qcurve"/>
      <point x="856" y="101" type="line"/>
      <point x="879" y="101" type="line"/>
      <point x="899" y="101"/>
      <point x="916" y="120"/>
      <point x="924" y="139"/>
      <point x="931" y="139" type="qcurve"/>
      <point x="939" y="139"/>
    </contour>
  </outline>
</glyph>
<glyph name="questiondown" format="2">
  <advance width="560" height="1000"/>
  <unicode hex="00BF"/>
  <outline>
    <contour>
      <point x="508" y="-29" type="qcurve"/>
      <point x="508" y="-47"/>
      <point x="497" y="-82"/>
      <point x="488" y="-98" type="qcurve"/>
      <point x="455" y="-157"/>
      <point x="336" y="-207"/>
      <point x="271" y="-207" type="qcurve"/>
      <point x="218" y="-207"/>
      <point x="117" y="-175"/>
      <point x="52" y="-101"/>
      <point x="52" y="-39" type="qcurve"/>
      <point x="52" y="-2"/>
      <point x="92" y="70"/>
      <point x="120" y="92" type="qcurve"/>
      <point x="149" y="115"/>
      <point x="197" y="139"/>
      <point x="236" y="174"/>
      <point x="251" y="213" type="qcurve"/>
      <point x="261" y="239"/>
      <point x="265" y="318"/>
      <point x="266" y="346" type="qcurve"/>
      <point x="300" y="346" type="line"/>
      <point x="303" y="326"/>
      <point x="307" y="284"/>
      <point x="307" y="264" type="qcurve"/>
      <point x="307" y="243"/>
      <point x="305" y="201"/>
      <point x="300" y="180" type="qcurve"/>
      <point x="293" y="148"/>
      <point x="264" y="105"/>
      <point x="231" y="70"/>
      <point x="201" y="31"/>
      <point x="182" y="-23"/>
      <point x="182" y="-65" type="qcurve"/>
      <point x="182" y="-110"/>
      <point x="224" y="-180"/>
      <point x="276" y="-180" type="qcurve"/>
      <point x="322" y="-180"/>
      <point x="388" y="-124"/>
      <point x="388" y="-76" type="qcurve"/>
      <point x="388" y="-62"/>
      <point x="378" y="-37"/>
      <point x="378" y="-24" type="qcurve"/>
      <point x="378" y="8"/>
      <point x="425" y="33"/>
      <point x="453" y="33" type="qcurve"/>
      <point x="479" y="33"/>
      <point x="508" y="-5"/>
    </contour>
    <contour>
      <point x="352" y="481" type="qcurve"/>
      <point x="352" y="451"/>
      <point x="308" y="407"/>
      <point x="278" y="407" type="qcurve"/>
      <point x="248" y="407"/>
      <point x="204" y="451"/>
      <point x="204" y="481" type="qcurve"/>
      <point x="204" y="511"/>
      <point x="248" y="555"/>
      <point x="278" y="555" type="qcurve"/>
      <point x="308" y="555"/>
      <point x="352" y="511"/>
    </contour>
  </outline>
</glyph>
<glyph name="AE" format="2">
  <advance width="930" height="1000"/>
  <unicode hex="00C6"/>
  <outline>
    <contour>
      <point x="456" y="371" type="line"/>
      <point x="456" y="672" type="line"/>
      <point x="456" y="677"/>
      <point x="445" y="683"/>
      <point x="441" y="684" type="qcurve"/>
      <point x="406" y="606"/>
      <point x="334" y="450"/>
      <point x="299" y="371" type="qcurve"/>
    </contour>
    <contour>
      <point x="901" y="178" type="qcurve"/>
      <point x="901" y="158"/>
      <point x="895" y="118"/>
      <point x="893" y="98" type="qcurve"/>
      <point x="891" y="78"/>
      <point x="889" y="37"/>
      <point x="885" y="17" type="qcurve"/>
      <point x="883" y="4"/>
      <point x="870" y="-4"/>
      <point x="856" y="-4" type="qcurve"/>
      <point x="772" y="-4"/>
      <point x="603" y="-1"/>
      <point x="519" y="-1" type="qcurve"/>
      <point x="486" y="-1"/>
      <point x="419" y="-6"/>
      <point x="386" y="-6" type="qcurve"/>
      <point x="379" y="-6"/>
      <point x="367" y="7"/>
      <point x="367" y="14" type="qcurve"/>
      <point x="367" y="27"/>
      <point x="385" y="33"/>
      <point x="412" y="33"/>
      <point x="439" y="38"/>
      <point x="457" y="58"/>
      <point x="457" y="83" type="qcurve"/>
      <point x="456" y="328" type="line"/>
      <point x="280" y="328" type="line"/>
      <point x="276" y="319"/>
      <point x="248" y="258"/>
      <point x="212" y="179"/>
      <point x="177" y="102"/>
      <point x="154" y="49"/>
      <point x="154" y="46" type="qcurve"/>
      <point x="154" y="33"/>
      <point x="176" y="29"/>
      <point x="185" y="29" type="qcurve"/>
      <point x="195" y="29"/>
      <point x="214" y="31"/>
      <point x="224" y="31" type="qcurve"/>
      <point x="231" y="31"/>
      <point x="244" y="23"/>
      <point x="244" y="15" type="qcurve"/>
      <point x="244" y="6"/>
      <point x="232" y="-1"/>
      <point x="224" y="-1" type="qcurve"/>
      <point x="193" y="-1"/>
      <point x="131" y="0"/>
      <point x="100" y="0" type="qcurve"/>
      <point x="81" y="0"/>
      <point x="43" y="-2"/>
      <point x="23" y="-2" type="qcurve"/>
      <point x="7" y="-2"/>
      <point x="7" y="17" type="qcurve"/>
      <point x="7" y="25"/>
      <point x="20" y="31"/>
      <point x="27" y="31" type="qcurve"/>
      <point x="33" y="31"/>
      <point x="44" y="30"/>
      <point x="50" y="30" type="qcurve"/>
      <point x="64" y="30"/>
      <point x="76" y="47"/>
      <point x="82" y="57" type="qcurve"/>
      <point x="87" y="65"/>
      <point x="95" y="82"/>
      <point x="99" y="90" type="qcurve"/>
      <point x="171" y="239"/>
      <point x="311" y="538"/>
      <point x="378" y="689" type="qcurve"/>
      <point x="368" y="689"/>
      <point x="348" y="688"/>
      <point x="337" y="688" type="qcurve"/>
      <point x="326" y="688"/>
      <point x="316" y="703"/>
      <point x="316" y="713" type="qcurve"/>
      <point x="316" y="721"/>
      <point x="328" y="735"/>
      <point x="335" y="735" type="qcurve"/>
      <point x="362" y="735"/>
      <point x="417" y="733"/>
      <point x="444" y="733" type="qcurve"/>
      <point x="584" y="733" type="line"/>
      <point x="626" y="733"/>
      <point x="710" y="734"/>
      <point x="752" y="735" type="qcurve"/>
      <point x="781" y="736"/>
      <point x="838" y="737"/>
      <point x="866" y="739" type="qcurve"/>
      <point x="870" y="708"/>
      <point x="880" y="648"/>
      <point x="886" y="618" type="qcurve"/>
      <point x="888" y="612"/>
      <point x="890" y="601"/>
      <point x="890" y="595" type="qcurve"/>
      <point x="890" y="570"/>
      <point x="867" y="570" type="qcurve"/>
      <point x="855" y="570"/>
      <point x="844" y="578"/>
      <point x="839" y="588" type="qcurve"/>
      <point x="823" y="626"/>
      <point x="790" y="672"/>
      <point x="738" y="693"/>
      <point x="695" y="693" type="qcurve"/>
      <point x="581" y="693" type="line"/>
      <point x="581" y="401" type="line"/>
      <point x="610" y="401"/>
      <point x="667" y="402"/>
      <point x="695" y="406" type="qcurve"/>
      <point x="724" y="410"/>
      <point x="780" y="426"/>
      <point x="809" y="426" type="qcurve"/>
      <point x="812" y="426"/>
      <point x="819" y="418"/>
      <point x="819" y="415" type="qcurve"/>
      <point x="819" y="412"/>
      <point x="813" y="390"/>
      <point x="805" y="370"/>
      <point x="803" y="367" type="qcurve"/>
      <point x="791" y="353"/>
      <point x="775" y="353" type="qcurve"/>
      <point x="758" y="353"/>
      <point x="740" y="356" type="qcurve"/>
      <point x="714" y="358"/>
      <point x="661" y="361"/>
      <point x="635" y="361" type="qcurve"/>
      <point x="615" y="361"/>
      <point x="581" y="344"/>
      <point x="581" y="321" type="qcurve"/>
      <point x="581" y="79" type="line"/>
      <point x="581" y="49"/>
      <point x="609" y="37"/>
      <point x="634" y="37" type="qcurve"/>
      <point x="718" y="37" type="line"/>
      <point x="750" y="37"/>
      <point x="788" y="51"/>
      <point x="808" y="76" type="qcurve"/>
      <point x="826" y="98"/>
      <point x="848" y="148"/>
      <point x="861" y="173" type="qcurve"/>
      <point x="865" y="181"/>
      <point x="875" y="192"/>
      <point x="884" y="192" type="qcurve"/>
      <point x="901" y="192"/>
    </contour>
  </outline>
</glyph>
<glyph name="Ecircumflex" format="2">
  <advance width="674" height="1000"/>
  <unicode hex="00CA"/>
  <outline>
    <contour>
      <point x="648" y="172" type="qcurve"/>
      <point x="648" y="156"/>
      <point x="641" y="123"/>
      <point x="639" y="106" type="qcurve"/>
      <point x="637" y="87"/>
      <point x="632" y="47"/>
      <point x="630" y="27" type="qcurve"/>
      <point x="627" y="11"/>
      <point x="615" y="0"/>
      <point x="598" y="0" type="qcurve"/>
      <point x="496" y="0"/>
      <point x="292" y="3"/>
      <point x="190" y="3" type="qcurve"/>
      <point x="155" y="3"/>
      <point x="85" y="-4"/>
      <point x="50" y="-4" type="qcurve"/>
      <point x="33" y="-4"/>
      <point x="33" y="13" type="qcurve"/>
      <point x="33" y="27"/>
      <point x="52" y="32"/>
      <point x="79" y="31"/>
      <point x="106" y="39"/>
      <point x="125" y="70"/>
      <point x="125" y="104" type="qcurve"/>
      <point x="125" y="643" type="line"/>
      <point x="125" y="659"/>
      <point x="114" y="689"/>
      <point x="94" y="689" type="qcurve"/>
      <point x="82" y="689"/>
      <point x="58" y="688"/>
      <point x="46" y="688" type="qcurve"/>
      <point x="21" y="688"/>
      <point x="21" y="712" type="qcurve"/>
      <point x="21" y="724"/>
      <point x="37" y="731"/>
      <point x="47" y="731" type="qcurve"/>
      <point x="76" y="731"/>
      <point x="132" y="728"/>
      <point x="160" y="728" type="qcurve"/>
      <point x="254" y="728"/>
      <point x="442" y="731"/>
      <point x="536" y="731" type="qcurve"/>
      <point x="554" y="731"/>
      <point x="590" y="734"/>
      <point x="608" y="736" type="qcurve"/>
      <point x="610" y="720"/>
      <point x="615" y="688"/>
      <point x="617" y="672" type="qcurve"/>
      <point x="620" y="653"/>
      <point x="631" y="611"/>
      <point x="631" y="591" type="qcurve"/>
      <point x="631" y="579"/>
      <point x="611" y="564"/>
      <point x="600" y="564" type="qcurve"/>
      <point x="576" y="564"/>
      <point x="568" y="585" type="qcurve"/>
      <point x="553" y="632"/>
      <point x="494" y="695"/>
      <point x="441" y="695" type="qcurve"/>
      <point x="261" y="695" type="line"/>
      <point x="261" y="401" type="line"/>
      <point x="299" y="401"/>
      <point x="372" y="403"/>
      <point x="409" y="406" type="qcurve"/>
      <point x="446" y="409"/>
      <point x="480" y="418" type="qcurve"/>
      <point x="494" y="421"/>
      <point x="525" y="431"/>
      <point x="539" y="431" type="qcurve"/>
      <point x="551" y="431"/>
      <point x="551" y="420" type="qcurve"/>
      <point x="551" y="413"/>
      <point x="544" y="385"/>
      <point x="542" y="378" type="qcurve"/>
      <point x="537" y="365"/>
      <point x="527" y="360"/>
      <point x="514" y="360" type="qcurve"/>
      <point x="490" y="360"/>
      <point x="467" y="363" type="qcurve"/>
      <point x="429" y="367"/>
      <point x="351" y="370"/>
      <point x="312" y="370" type="qcurve"/>
      <point x="290" y="370"/>
      <point x="261" y="347"/>
      <point x="261" y="323" type="qcurve"/>
      <point x="261" y="77" type="line"/>
      <point x="261" y="53"/>
      <point x="274" y="33"/>
      <point x="299" y="33" type="qcurve"/>
      <point x="326" y="33"/>
      <point x="392" y="33"/>
      <point x="461" y="39"/>
      <point x="521" y="59"/>
      <point x="541" y="79" type="qcurve"/>
      <point x="558" y="96"/>
      <point x="590" y="152"/>
      <point x="600" y="174" type="qcurve"/>
      <point x="605" y="186"/>
      <point x="615" y="195"/>
      <point x="628" y="195" type="qcurve"/>
      <point x="640" y="195"/>
      <point x="648" y="183"/>
    </contour>
    <contour>
      <point x="513" y="816" type="line"/>
      <point x="504" y="771" type="line"/>
      <point x="335" y="826" type="line"/>
      <point x="172" y="773" type="line"/>
      <point x="161" y="818" type="line"/>
      <point x="337" y="901" type="line"/>
    </contour>
  </outline>
</glyph>
<glyph name="Iacute" format="2">
  <advance width="413" height="1000"/>
  <unicode hex="00CD"/>
  <outline>
    <contour>
      <point x="345" y="713" type="qcurve"/>
      <point x="345" y="696"/>
      <point x="329" y="696" type="qcurve"/>
      <point x="317" y="696"/>
      <point x="292" y="697"/>
      <point x="280" y="697" type="qcurve"/>
      <point x="270" y="697"/>
      <point x="262" y="680"/>
      <point x="262" y="671" type="qcurve"/>
      <point x="262" y="636"/>
      <point x="261" y="565"/>
      <point x="261" y="530" type="qcurve"/>
      <point x="261" y="420"/>
      <point x="262" y="199"/>
      <point x="262" y="89" type="qcurve"/>
      <point x="262" y="82"/>
      <point x="260" y="52"/>
      <point x="267" y="27"/>
      <point x="278" y="27" type="qcurve"/>
      <point x="291" y="27"/>
      <point x="317" y="29"/>
      <point x="330" y="29" type="qcurve"/>
      <point x="337" y="29"/>
      <point x="343" y="18"/>
      <point x="343" y="11" type="qcurve"/>
      <point x="343" y="4"/>
      <point x="334" y="-7"/>
      <point x="326" y="-7" type="qcurve"/>
      <point x="292" y="-7"/>
      <point x="225" y="-5"/>
      <point x="191" y="-5" type="qcurve"/>
      <point x="157" y="-5"/>
      <point x="89" y="-7"/>
      <point x="55" y="-7" type="qcurve"/>
      <point x="45" y="-7"/>
      <point x="39" y="1"/>
      <point x="39" y="10" type="qcurve"/>
      <point x="39" y="18"/>
      <point x="46" y="29"/>
      <point x="54" y="29" type="qcurve"/>
      <point x="65" y="29"/>
      <point x="87" y="27"/>
      <point x="97" y="27" type="qcurve"/>
      <point x="111" y="27"/>
      <point x="121" y="45"/>
      <point x="123" y="70"/>
      <point x="123" y="79" type="qcurve"/>
      <point x="124" y="653" type="line"/>
      <point x="124" y="662"/>
      <point x="120" y="697"/>
      <point x="108" y="698" type="qcurve"/>
      <point x="105" y="698"/>
      <point x="100" y="698"/>
      <point x="97" y="698" type="qcurve"/>
      <point x="87" y="698"/>
      <point x="68" y="696"/>
      <point x="58" y="696" type="qcurve"/>
      <point x="39" y="696"/>
      <point x="39" y="715" type="qcurve"/>
      <point x="39" y="722"/>
      <point x="48" y="732"/>
      <point x="55" y="732" type="qcurve"/>
      <point x="98" y="732"/>
      <point x="183" y="728"/>
      <point x="226" y="728" type="qcurve"/>
      <point x="252" y="728"/>
      <point x="305" y="732"/>
      <point x="331" y="732" type="qcurve"/>
      <point x="339" y="732"/>
      <point x="345" y="720"/>
    </contour>
    <contour>
      <point x="344" y="828" type="line"/>
      <point x="82" y="774" type="line"/>
      <point x="69" y="826" type="line"/>
      <point x="326" y="904" type="line"/>
    </contour>
  </outline>
</glyph>
<glyph name="Thorn" format="2">
  <advance width="742" height="1000"/>
  <unicode hex="00DE"/>
  <outline>
    <contour>
      <point x="530" y="417" type="qcurve"/>
      <point x="530" y="494"/>
      <point x="432" y="570"/>
      <point x="360" y="570" type="qcurve"/>
      <point x="324" y="570" type="line"/>
      <point x="305" y="570"/>
      <point x="267" y="564"/>
      <point x="248" y="560" type="qcurve"/>
      <point x="248" y="271" type="line"/>
      <point x="271" y="256"/>
      <point x="329" y="246"/>
      <point x="356" y="246" type="qcurve"/>
      <point x="439" y="246"/>
      <point x="530" y="335"/>
    </contour>
    <contour>
      <point x="659" y="418" type="qcurve"/>
      <point x="659" y="348"/>
      <point x="607" y="264"/>
      <point x="519" y="221"/>
      <point x="411" y="207"/>
      <point x="354" y="207" type="qcurve"/>
      <point x="328" y="207"/>
      <point x="275" y="213"/>
      <point x="249" y="217" type="qcurve"/>
      <point x="249" y="98" type="line"/>
      <point x="249" y="85"/>
      <point x="252" y="56"/>
      <point x="268" y="35"/>
      <point x="285" y="35" type="qcurve"/>
      <point x="293" y="35"/>
      <point x="310" y="36"/>
      <point x="318" y="36" type="qcurve"/>
      <point x="327" y="36"/>
      <point x="346" y="28"/>
      <point x="346" y="17" type="qcurve"/>
      <point x="346" y="1"/>
      <point x="320" y="-7"/>
      <point x="308" y="-7" type="qcurve"/>
      <point x="281" y="-7"/>
      <point x="226" y="-3"/>
      <point x="199" y="-3" type="qcurve"/>
      <point x="165" y="-3"/>
      <point x="95" y="-8"/>
      <point x="60" y="-8" type="qcurve"/>
      <point x="50" y="-8"/>
      <point x="34" y="3"/>
      <point x="34" y="14" type="qcurve"/>
      <point x="34" y="26"/>
      <point x="51" y="33"/>
      <point x="73" y="33"/>
      <point x="81" y="34" type="qcurve"/>
      <point x="113" y="39"/>
      <point x="129" y="81"/>
      <point x="129" y="109" type="qcurve"/>
      <point x="129" y="192"/>
      <point x="130" y="360"/>
      <point x="130" y="443" type="qcurve"/>
      <point x="130" y="499"/>
      <point x="129" y="611"/>
      <point x="129" y="666" type="qcurve"/>
      <point x="129" y="696"/>
      <point x="102" y="696" type="qcurve"/>
      <point x="89" y="696"/>
      <point x="64" y="697"/>
      <point x="51" y="697" type="qcurve"/>
      <point x="41" y="697"/>
      <point x="26" y="709"/>
      <point x="26" y="719" type="qcurve"/>
      <point x="26" y="728"/>
      <point x="43" y="739"/>
      <point x="50" y="739" type="qcurve"/>
      <point x="182" y="739" type="line"/>
      <point x="217" y="739"/>
      <point x="286" y="742"/>
      <point x="320" y="742" type="qcurve"/>
      <point x="331" y="742"/>
      <point x="343" y="735"/>
      <point x="343" y="723" type="qcurve"/>
      <point x="343" y="713"/>
      <point x="327" y="704"/>
      <point x="318" y="704" type="qcurve"/>
      <point x="307" y="704"/>
      <point x="284" y="703"/>
      <point x="273" y="703" type="qcurve"/>
      <point x="263" y="703"/>
      <point x="248" y="691"/>
      <point x="248" y="680" type="qcurve"/>
      <point x="248" y="661"/>
      <point x="248" y="623"/>
      <point x="247" y="604" type="qcurve"/>
      <point x="288" y="605"/>
      <point x="370" y="610"/>
      <point x="410" y="610" type="qcurve"/>
      <point x="456" y="610"/>
      <point x="545" y="590"/>
      <point x="616" y="545"/>
      <point x="659" y="472"/>
    </contour>
  </outline>
</glyph>
<glyph name="germandbls" format="2">
  <advance width="615" height="1000"/>
  <unicode hex="00DF"/>
  <outline>
    <contour>
      <point x="579" y="200" type="qcurve"/>
      <point x="579" y="143"/>
      <point x="544" y="49"/>
      <point x="467" y="-6"/>
      <point x="404" y="-6" type="qcurve"/>
      <point x="360" y="-6"/>
      <point x="294" y="38"/>
      <point x="280" y="81" type="qcurve"/>
      <point x="283" y="102"/>
      <point x="284" y="144"/>
      <point x="287" y="165" type="qcurve"/>
      <point x="288" y="172"/>
      <point x="293" y="184"/>
      <point x="302" y="184" type="qcurve"/>
      <point x="310" y="184"/>
      <point x="313" y="167"/>
      <point x="314" y="162" type="qcurve"/>
      <point x="316" y="142"/>
      <point x="333" y="88"/>
      <point x="366" y="47"/>
      <point x="391" y="47" type="qcurve"/>
      <point x="416" y="47"/>
      <point x="444" y="94"/>
      <point x="457" y="161"/>
      <point x="460" y="225"/>
      <point x="460" y="242" type="qcurve"/>
      <point x="460" y="298"/>
      <point x="417" y="389"/>
      <point x="361" y="409" type="qcurve"/>
      <point x="348" y="414"/>
      <point x="324" y="427"/>
      <point x="324" y="444" type="qcurve"/>
      <point x="324" y="455"/>
      <point x="336" y="471"/>
      <point x="343" y="479" type="qcurve"/>
      <point x="367" y="506"/>
      <point x="385" y="574"/>
      <point x="385" y="610" type="qcurve"/>
      <point x="385" y="637"/>
      <point x="374" y="694"/>
      <point x="341" y="733"/>
      <point x="307" y="733" type="qcurve"/>
      <point x="272" y="733"/>
      <point x="232" y="683"/>
      <point x="214" y="610"/>
      <point x="210" y="535"/>
      <point x="210" y="511" type="qcurve"/>
      <point x="210" y="69" type="line"/>
      <point x="210" y="57"/>
      <point x="216" y="31"/>
      <point x="232" y="31" type="qcurve"/>
      <point x="242" y="31"/>
      <point x="261" y="32"/>
      <point x="271" y="32" type="qcurve"/>
      <point x="277" y="32"/>
      <point x="283" y="20"/>
      <point x="283" y="15" type="qcurve"/>
      <point x="283" y="8"/>
      <point x="277" y="-3"/>
      <point x="269" y="-3" type="qcurve"/>
      <point x="259" y="-3"/>
      <point x="238" y="-1"/>
      <point x="227" y="0" type="qcurve"/>
      <point x="206" y="2"/>
      <point x="163" y="2"/>
      <point x="142" y="2" type="qcurve"/>
      <point x="117" y="2"/>
      <point x="67" y="-2"/>
      <point x="42" y="-2" type="qcurve"/>
      <point x="35" y="-2"/>
      <point x="23" y="5"/>
      <point x="23" y="14" type="qcurve"/>
      <point x="23" y="26"/>
      <point x="35" y="32"/>
      <point x="45" y="32" type="qcurve"/>
      <point x="53" y="32"/>
      <point x="69" y="31"/>
      <point x="76" y="31" type="qcurve"/>
      <point x="93" y="31"/>
      <point x="103" y="49"/>
      <point x="103" y="64" type="qcurve"/>
      <point x="103" y="411" type="line"/>
      <point x="88" y="411"/>
      <point x="58" y="409"/>
      <point x="43" y="409" type="qcurve"/>
      <point x="35" y="409"/>
      <point x="22" y="416"/>
      <point x="22" y="425" type="qcurve"/>
      <point x="22" y="436"/>
      <point x="36" y="443"/>
      <point x="45" y="443" type="qcurve"/>
      <point x="59" y="443"/>
      <point x="89" y="442"/>
      <point x="103" y="442" type="qcurve"/>
      <point x="100" y="475"/>
      <point x="100" y="508" type="qcurve"/>
      <point x="100" y="555"/>
      <point x="121" y="645"/>
      <point x="168" y="719"/>
      <point x="243" y="763"/>
      <point x="297" y="763" type="qcurve"/>
      <point x="341" y="763"/>
      <point x="425" y="726"/>
      <point x="481" y="658"/>
      <point x="481" y="610" type="qcurve"/>
      <point x="481" y="570"/>
      <point x="452" y="514"/>
      <point x="413" y="477"/>
      <point x="382" y="453"/>
      <point x="381" y="445" type="qcurve"/>
      <point x="385" y="439"/>
      <point x="427" y="424"/>
      <point x="485" y="397"/>
      <point x="541" y="347"/>
      <point x="579" y="264"/>
    </contour>
  </outline>
</glyph>
<glyph name="ccedilla" format="2">
  <advance width="540" height="1000"/>
  <unicode hex="00E7"/>
  <outline>
    <contour>
      <point x="507" y="135" type="qcurve"/>
      <point x="507" y="131"/>
      <point x="503" y="122"/>
      <point x="501" y="118" type="qcurve"/>
      <point x="480" y="79"/>
      <point x="406" y="23"/>
      <point x="316" y="-5"/>
      <point x="272" y="-2" type="qcurve"/>
      <point x="264" y="-16"/>
      <point x="245" y="-44"/>
      <point x="237" y="-58" type="qcurve"/>
      <point x="258" y="-55"/>
      <point x="281" y="-55" type="qcurve"/>
      <point x="301" y="-55"/>
      <point x="351" y="-63"/>
      <point x="387" y="-88"/>
      <point x="387" y="-115" type="qcurve"/>
      <point x="387" y="-142"/>
      <point x="357" y="-175"/>
      <point x="311" y="-190"/>
      <point x="260" y="-195"/>
      <point x="240" y="-195" type="qcurve"/>
      <point x="218" y="-195"/>
      <point x="170" y="-181"/>
      <point x="150" y="-171" type="qcurve"/>
      <point x="143" y="-168"/>
      <point x="114" y="-149"/>
      <point x="114" y="-141" type="qcurve"/>
      <point x="114" y="-134"/>
      <point x="129" y="-129"/>
      <point x="133" y="-129" type="qcurve"/>
      <point x="144" y="-129"/>
      <point x="162" y="-137"/>
      <point x="171" y="-140" type="qcurve"/>
      <point x="204" y="-151"/>
      <point x="238" y="-151" type="qcurve"/>
      <point x="248" y="-151"/>
      <point x="279" y="-144"/>
      <point x="304" y="-129"/>
      <point x="304" y="-116" type="qcurve"/>
      <point x="304" y="-100"/>
      <point x="272" y="-85"/>
      <point x="259" y="-85" type="qcurve"/>
      <point x="235" y="-85"/>
      <point x="187" y="-102"/>
      <point x="165" y="-110" type="qcurve"/>
      <point x="176" y="-80"/>
      <point x="207" y="-23"/>
      <point x="219" y="7" type="qcurve"/>
      <point x="129" y="31"/>
      <point x="33" y="165"/>
      <point x="33" y="258" type="qcurve"/>
      <point x="33" y="336"/>
      <point x="93" y="465"/>
      <point x="208" y="543"/>
      <point x="290" y="543" type="qcurve"/>
      <point x="320" y="543"/>
      <point x="347" y="534" type="qcurve"/>
      <point x="367" y="527"/>
      <point x="399" y="509"/>
      <point x="418" y="500" type="qcurve"/>
      <point x="420" y="500"/>
      <point x="422" y="499"/>
      <point x="423" y="499" type="qcurve"/>
      <point x="435" y="499"/>
      <point x="454" y="518"/>
      <point x="462" y="518" type="qcurve"/>
      <point x="468" y="518"/>
      <point x="472" y="510"/>
      <point x="473" y="505" type="qcurve"/>
      <point x="475" y="495"/>
      <point x="474" y="476"/>
      <point x="475" y="466" type="qcurve"/>
      <point x="476" y="441"/>
      <point x="479" y="392"/>
      <point x="479" y="367" type="qcurve"/>
      <point x="479" y="355"/>
      <point x="471" y="335"/>
      <point x="456" y="335" type="qcurve"/>
      <point x="446" y="335"/>
      <point x="436" y="344"/>
      <point x="434" y="353" type="qcurve"/>
      <point x="422" y="389"/>
      <point x="395" y="459"/>
      <point x="366" y="486" type="qcurve"/>
      <point x="355" y="497"/>
      <point x="316" y="518"/>
      <point x="300" y="518" type="qcurve"/>
      <point x="284" y="518"/>
      <point x="253" y="506"/>
      <point x="240" y="495" type="qcurve"/>
      <point x="210" y="468"/>
      <point x="175" y="389"/>
      <point x="161" y="303"/>
      <point x="161" y="264" type="qcurve"/>
      <point x="161" y="234"/>
      <point x="174" y="156"/>
      <point x="204" y="82"/>
      <point x="256" y="33"/>
      <point x="294" y="33" type="qcurve"/>
      <point x="347" y="33"/>
      <point x="428" y="87"/>
      <point x="458" y="127" type="qcurve"/>
      <point x="461" y="132"/>
      <point x="467" y="141"/>
      <point x="471" y="145" type="qcurve"/>
      <point x="479" y="153"/>
      <point x="487" y="153" type="qcurve"/>
      <point x="495" y="153"/>
      <point x="507" y="143"/>
    </contour>
  </outline>
</glyph>
<glyph name="ocircumflex" format="2">
  <advance width="620" height="1000"/>
  <unicode hex="00F4"/>
  <outline>
    <contour>
      <point x="439" y="263" type="qcurve"/>
      <point x="439" y="296"/>
      <point x="430" y="381"/>
      <point x="402" y="461"/>
      <point x="349" y="514"/>
      <point x="304" y="514" type="qcurve"/>
      <point x="263" y="514"/>
      <point x="213" y="462"/>
      <point x="186" y="384"/>
      <point x="176" y="301"/>
      <point x="176" y="271" type="qcurve"/>
      <point x="176" y="238"/>
      <point x="185" y="153"/>
      <point x="213" y="73"/>
      <point x="267" y="21"/>
      <point x="312" y="21" type="qcurve"/>
      <point x="354" y="21"/>
      <point x="405" y="72"/>
      <point x="431" y="149"/>
      <point x="439" y="232"/>
    </contour>
    <contour>
      <point x="575" y="258" type="qcurve"/>
      <point x="575" y="181"/>
      <point x="505" y="62"/>
      <point x="384" y="-6"/>
      <point x="307" y="-6" type="qcurve"/>
      <point x="230" y="-6"/>
      <point x="112" y="66"/>
      <point x="45" y="188"/>
      <point x="45" y="264" type="qcurve"/>
      <point x="45" y="343"/>
      <point x="111" y="468"/>
      <point x="231" y="541"/>
      <point x="311" y="541" type="qcurve"/>
      <point x="399" y="541"/>
      <point x="516" y="470"/>
      <point x="575" y="343"/>
    </contour>
    <contour>
      <point x="485" y="686" type="line"/>
      <point x="476" y="640" type="line"/>
      <point x="308" y="695" type="line"/>
      <point x="146" y="642" type="line"/>
      <point x="135" y="688" type="line"/>
      <point x="310" y="770" type="line"/>
    </contour>
  </outline>
</glyph>
<glyph name="uacute" format="2">
  <advance width="628" height="1000"/>
  <unicode hex="00FA"/>
  <outline>
    <contour>
      <point x="617" y="37" type="qcurve"/>
      <point x="617" y="29"/>
      <point x="607" y="23" type="qcurve"/>
      <point x="580" y="4"/>
      <point x="534" y="-4"/>
      <point x="502" y="-4" type="qcurve"/>
      <point x="471" y="-4"/>
      <point x="428" y="48"/>
      <point x="423" y="76" type="qcurve"/>
      <point x="394" y="36"/>
      <point x="315" y="-7"/>
      <point x="265" y="-7" type="qcurve"/>
      <point x="169" y="-7"/>
      <point x="89" y="82"/>
      <point x="89" y="176" type="qcurve"/>
      <point x="89" y="243" type="line"/>
      <point x="89" y="295"/>
      <point x="90" y="398"/>
      <point x="90" y="450" type="qcurve"/>
      <point x="90" y="461"/>
      <point x="84" y="487"/>
      <point x="69" y="487" type="qcurve"/>
      <point x="63" y="487"/>
      <point x="52" y="485"/>
      <point x="46" y="485" type="qcurve"/>
      <point x="39" y="485"/>
      <point x="21" y="489"/>
      <point x="21" y="498" type="qcurve"/>
      <point x="21" y="506"/>
      <point x="28" y="512"/>
      <point x="34" y="513" type="qcurve"/>
      <point x="45" y="516"/>
      <point x="71" y="518"/>
      <point x="82" y="519" type="qcurve"/>
      <point x="137" y="526"/>
      <point x="195" y="540" type="qcurve"/>
      <point x="201" y="542"/>
      <point x="206" y="542" type="qcurve"/>
      <point x="220" y="542"/>
      <point x="220" y="529" type="qcurve"/>
      <point x="220" y="443"/>
      <point x="216" y="270"/>
      <point x="216" y="184" type="qcurve"/>
      <point x="216" y="160"/>
      <point x="219" y="107"/>
      <point x="234" y="61"/>
      <point x="270" y="33"/>
      <point x="302" y="33" type="qcurve"/>
      <point x="336" y="33"/>
      <point x="392" y="86"/>
      <point x="405" y="114" type="qcurve"/>
      <point x="406" y="116"/>
      <point x="412" y="131"/>
      <point x="412" y="132" type="qcurve"/>
      <point x="412" y="212"/>
      <point x="411" y="371"/>
      <point x="411" y="450" type="qcurve"/>
      <point x="411" y="461"/>
      <point x="405" y="487"/>
      <point x="390" y="487" type="qcurve"/>
      <point x="384" y="487"/>
      <point x="372" y="485"/>
      <point x="365" y="485" type="qcurve"/>
      <point x="358" y="485"/>
      <point x="341" y="489"/>
      <point x="341" y="498" type="qcurve"/>
      <point x="341" y="506"/>
      <point x="348" y="512"/>
      <point x="354" y="513" type="qcurve"/>
      <point x="365" y="516"/>
      <point x="391" y="518"/>
      <point x="403" y="519" type="qcurve"/>
      <point x="459" y="527"/>
      <point x="514" y="540" type="qcurve"/>
      <point x="517" y="541"/>
      <point x="522" y="542"/>
      <point x="525" y="542" type="qcurve"/>
      <point x="540" y="542"/>
      <point x="540" y="529" type="qcurve"/>
      <point x="540" y="420"/>
      <point x="538" y="201"/>
      <point x="538" y="91" type="qcurve"/>
      <point x="538" y="81"/>
      <point x="540" y="56"/>
      <point x="552" y="37"/>
      <point x="566" y="37" type="qcurve"/>
      <point x="577" y="37"/>
      <point x="599" y="48"/>
      <point x="607" y="48" type="qcurve"/>
      <point x="612" y="48"/>
      <point x="617" y="41"/>
    </contour>
    <contour>
      <point x="456" y="699" type="line"/>
      <point x="186" y="644" type="line"/>
      <point x="172" y="697" type="line"/>
      <point x="437" y="775" type="line"/>
    </contour>
  </outline>
</glyph>
<glyph name="idotless" format="2">
  <advance width="350" height="1000"/>
  <unicode hex="0131"/>
  <outline>
    <contour>
      <point x="314" y="14" type="qcurve"/>
      <point x="314" y="7"/>
      <point x="304" y="-2"/>
      <point x="297" y="-2" type="qcurve"/>
      <point x="263" y="-2"/>
      <point x="196" y="0"/>
      <point x="161" y="0" type="qcurve"/>
      <point x="133" y="0"/>
      <point x="77" y="-2"/>
      <point x="48" y="-2" type="qcurve"/>
      <point x="44" y="-2"/>
      <point x="34" y="7"/>
      <point x="34" y="12" type="qcurve"/>
      <point x="34" y="23"/>
      <point x="49" y="28"/>
      <point x="57" y="28" type="qcurve"/>
      <point x="98" y="28" type="line"/>
      <point x="111" y="28"/>
      <point x="119" y="43"/>
      <point x="119" y="54" type="qcurve"/>
      <point x="119" y="159"/>
      <point x="120" y="369"/>
      <point x="120" y="474" type="qcurve"/>
      <point x="120" y="481"/>
      <point x="117" y="493"/>
      <point x="108" y="493" type="qcurve"/>
      <point x="92" y="493"/>
      <point x="60" y="486"/>
      <point x="43" y="486" type="qcurve"/>
      <point x="38" y="486"/>
      <point x="29" y="494"/>
      <point x="29" y="500" type="qcurve"/>
      <point x="29" y="508"/>
      <point x="36" y="515"/>
      <point x="43" y="516" type="qcurve"/>
      <point x="77" y="524"/>
      <point x="144" y="536"/>
      <point x="177" y="544" type="qcurve"/>
      <point x="187" y="546"/>
      <point x="209" y="552"/>
      <point x="219" y="552" type="qcurve"/>
      <point x="228" y="552"/>
      <point x="233" y="544"/>
      <point x="233" y="536" type="qcurve"/>
      <point x="233" y="415"/>
      <point x="231" y="174"/>
      <point x="231" y="54" type="qcurve"/>
      <point x="231" y="43"/>
      <point x="245" y="28"/>
      <point x="256" y="28" type="qcurve"/>
      <point x="267" y="28"/>
      <point x="286" y="29"/>
      <point x="296" y="29" type="qcurve"/>
      <point x="303" y="29"/>
      <point x="314" y="21"/>
    </contour>
  </outline>
</glyph>
<glyph name="Lslash" format="2">
  <advance width="720" height="1000"/>
  <unicode hex="0141"/>
  <outline>
    <contour>
      <point x="691" y="226" type="qcurve"/>
      <point x="691" y="207"/>
      <point x="685" y="169"/>
      <point x="683" y="150" type="qcurve"/>
      <point x="680" y="118"/>
      <point x="669" y="54"/>
      <point x="667" y="22" type="qcurve"/>
      <point x="667" y="12"/>
      <point x="663" y="5" type="qcurve"/>
      <point x="659" y="-1"/>
      <point x="637" y="-4"/>
      <point x="630" y="-4" type="qcurve"/>
      <point x="588" y="-4"/>
      <point x="504" y="-3"/>
      <point x="463" y="-3" type="qcurve"/>
      <point x="405" y="-3"/>
      <point x="290" y="-4"/>
      <point x="232" y="-4" type="qcurve"/>
      <point x="209" y="-4"/>
      <point x="163" y="-4"/>
      <point x="140" y="-5" type="qcurve"/>
      <point x="129" y="-5"/>
      <point x="107" y="-7"/>
      <point x="96" y="-7" type="qcurve"/>
      <point x="88" y="-7"/>
      <point x="74" y="2"/>
      <point x="74" y="12" type="qcurve"/>
      <point x="74" y="31"/>
      <point x="95" y="31" type="qcurve"/>
      <point x="103" y="31"/>
      <point x="120" y="30"/>
      <point x="128" y="30" type="qcurve"/>
      <point x="144" y="30"/>
      <point x="162" y="39"/>
      <point x="162" y="57" type="qcurve"/>
      <point x="162" y="301" type="line"/>
      <point x="51" y="236" type="line"/>
      <point x="23" y="272" type="line"/>
      <point x="162" y="355" type="line"/>
      <point x="162" y="529" type="line"/>
      <point x="162" y="566"/>
      <point x="161" y="640"/>
      <point x="161" y="677" type="qcurve"/>
      <point x="161" y="688"/>
      <point x="153" y="696"/>
      <point x="142" y="696" type="qcurve"/>
      <point x="130" y="696"/>
      <point x="107" y="695"/>
      <point x="95" y="695" type="qcurve"/>
      <point x="88" y="695"/>
      <point x="76" y="705"/>
      <point x="76" y="712" type="qcurve"/>
      <point x="76" y="732"/>
      <point x="96" y="732" type="qcurve"/>
      <point x="108" y="732"/>
      <point x="131" y="730"/>
      <point x="143" y="729" type="qcurve"/>
      <point x="175" y="727"/>
      <point x="238" y="726"/>
      <point x="269" y="726" type="qcurve"/>
      <point x="294" y="726"/>
      <point x="342" y="732"/>
      <point x="365" y="732" type="qcurve"/>
      <point x="381" y="732"/>
      <point x="381" y="714" type="qcurve"/>
      <point x="381" y="707"/>
      <point x="374" y="695"/>
      <point x="365" y="695" type="qcurve"/>
      <point x="352" y="695"/>
      <point x="326" y="696"/>
      <point x="313" y="696" type="qcurve"/>
      <point x="303" y="696"/>
      <point x="297" y="688"/>
      <point x="297" y="677" type="qcurve"/>
      <point x="297" y="640"/>
      <point x="296" y="566"/>
      <point x="296" y="529" type="qcurve"/>
      <point x="296" y="436" type="line"/>
      <point x="428" y="514" type="line"/>
      <point x="456" y="473" type="line"/>
      <point x="297" y="380" type="line"/>
      <point x="297" y="310"/>
      <point x="297" y="170"/>
      <point x="297" y="99" type="qcurve"/>
      <point x="297" y="63" type="line"/>
      <point x="297" y="43"/>
      <point x="322" y="29"/>
      <point x="357" y="29"/>
      <point x="371" y="29" type="qcurve"/>
      <point x="447" y="29"/>
      <point x="554" y="58"/>
      <point x="627" y="139"/>
      <point x="652" y="217" type="qcurve"/>
      <point x="655" y="225"/>
      <point x="665" y="240"/>
      <point x="675" y="240" type="qcurve"/>
      <point x="681" y="240"/>
      <point x="691" y="232"/>
    </contour>
  </outline>
</glyph>
<glyph name="lslash" format="2">
  <advance width="363" height="1000"/>
  <unicode hex="0142"/>
  <outline>
    <contour>
      <point x="358" y="488" type="line"/>
      <point x="241" y="407" type="line"/>
      <point x="241" y="375" type="line"/>
      <point x="241" y="294"/>
      <point x="242" y="131"/>
      <point x="242" y="50" type="qcurve"/>
      <point x="242" y="27"/>
      <point x="266" y="27" type="qcurve"/>
      <point x="277" y="27"/>
      <point x="299" y="28"/>
      <point x="309" y="28" type="qcurve"/>
      <point x="317" y="28"/>
      <point x="326" y="17"/>
      <point x="326" y="9" type="qcurve"/>
      <point x="326" y="3"/>
      <point x="318" y="-7"/>
      <point x="311" y="-7" type="qcurve"/>
      <point x="279" y="-7"/>
      <point x="214" y="-3"/>
      <point x="182" y="-3" type="qcurve"/>
      <point x="151" y="-3"/>
      <point x="91" y="-7"/>
      <point x="60" y="-7" type="qcurve"/>
      <point x="54" y="-7"/>
      <point x="46" y="3"/>
      <point x="46" y="8" type="qcurve"/>
      <point x="46" y="19"/>
      <point x="59" y="26"/>
      <point x="68" y="26" type="qcurve"/>
      <point x="105" y="26" type="line"/>
      <point x="118" y="26"/>
      <point x="126" y="39"/>
      <point x="126" y="50" type="qcurve"/>
      <point x="126" y="120"/>
      <point x="127" y="259"/>
      <point x="128" y="329" type="qcurve"/>
      <point x="28" y="257" type="line"/>
      <point x="2" y="298" type="line"/>
      <point x="128" y="389" type="line"/>
      <point x="127" y="465"/>
      <point x="126" y="617"/>
      <point x="126" y="693" type="qcurve"/>
      <point x="126" y="699"/>
      <point x="121" y="712"/>
      <point x="113" y="712" type="qcurve"/>
      <point x="94" y="712"/>
      <point x="56" y="698"/>
      <point x="37" y="698" type="qcurve"/>
      <point x="33" y="698"/>
      <point x="25" y="707"/>
      <point x="25" y="711" type="qcurve"/>
      <point x="25" y="724"/>
      <point x="39" y="730"/>
      <point x="49" y="733" type="qcurve"/>
      <point x="61" y="736"/>
      <point x="113" y="751"/>
      <point x="172" y="767"/>
      <point x="220" y="779"/>
      <point x="228" y="779" type="qcurve"/>
      <point x="241" y="779"/>
      <point x="241" y="765" type="qcurve"/>
      <point x="241" y="465" type="line"/>
      <point x="332" y="529" type="line"/>
    </contour>
  </outline>
</glyph>
<glyph name="fhook" format="2">
  <advance width="540" height="1000"/>
  <unicode hex="0192"/>
  <outline>
    <contour>
      <point x="533" y="673" type="qcurve"/>
      <point x="533" y="664"/>
      <point x="523" y="644"/>
      <point x="512" y="644" type="qcurve"/>
      <point x="493" y="644"/>
      <point x="485" y="662" type="qcurve"/>
      <point x="482" y="669"/>
      <point x="478" y="682"/>
      <point x="475" y="688" type="qcurve"/>
      <point x="465" y="708"/>
      <point x="428" y="747"/>
      <point x="403" y="747" type="qcurve"/>
      <point x="383" y="747"/>
      <point x="357" y="708"/>
      <point x="341" y="647"/>
      <point x="334" y="580"/>
      <point x="332" y="524"/>
      <point x="332" y="510" type="qcurve"/>
      <point x="332" y="500" type="line"/>
      <point x="465" y="500" type="line"/>
      <point x="465" y="463" type="line"/>
      <point x="330" y="463" type="line"/>
      <point x="329" y="395"/>
      <point x="326" y="257"/>
      <point x="324" y="189" type="qcurve"/>
      <point x="323" y="146"/>
      <point x="318" y="58"/>
      <point x="306" y="17" type="qcurve"/>
      <point x="284" y="-56"/>
      <point x="182" y="-149"/>
      <point x="102" y="-149" type="qcurve"/>
      <point x="80" y="-149"/>
      <point x="32" y="-132"/>
      <point x="-2" y="-98"/>
      <point x="-2" y="-72" type="qcurve"/>
      <point x="-2" y="-43"/>
      <point x="26" y="-20"/>
      <point x="54" y="-20" type="qcurve"/>
      <point x="66" y="-20"/>
      <point x="73" y="-36"/>
      <point x="72" y="-56"/>
      <point x="72" y="-63" type="qcurve"/>
      <point x="72" y="-84"/>
      <point x="99" y="-116"/>
      <point x="121" y="-116" type="qcurve"/>
      <point x="152" y="-116"/>
      <point x="191" y="-64"/>
      <point x="213" y="16"/>
      <point x="223" y="105"/>
      <point x="226" y="181"/>
      <point x="227" y="201" type="qcurve"/>
      <point x="229" y="266"/>
      <point x="231" y="398"/>
      <point x="232" y="463" type="qcurve"/>
      <point x="127" y="463" type="line"/>
      <point x="127" y="500" type="line"/>
      <point x="235" y="500" type="line"/>
      <point x="237" y="545"/>
      <point x="256" y="644"/>
      <point x="299" y="731"/>
      <point x="372" y="786"/>
      <point x="428" y="786" type="qcurve"/>
      <point x="452" y="786"/>
      <point x="496" y="772"/>
      <point x="520" y="773" type="qcurve"/>
      <point x="522" y="761"/>
      <point x="528" y="721"/>
      <point x="533" y="684"/>
    </contour>
  </outline>
</glyph>
<glyph name="ringmod" format="2">
  <advance width="500" height="1000"/>
  <unicode hex="02DA"/>
  <outline>
    <contour>
      <point x="300" y="705" type="qcurve"/>
      <point x="300" y="725"/>
      <point x="269" y="749"/>
      <point x="250" y="749" type="qcurve"/>
      <point x="231" y="749"/>
      <point x="200" y="724"/>
      <point x="200" y="704" type="qcurve"/>
      <point x="200" y="685"/>
      <point x="231" y="660"/>
      <point x="250" y="660" type="qcurve"/>
      <point x="269" y="660"/>
      <point x="300" y="685"/>
    </contour>
    <contour>
      <point x="337" y="704" type="qcurve"/>
      <point x="337" y="669"/>
      <point x="285" y="622"/>
      <point x="250" y="622" type="qcurve"/>
      <point x="215" y="622"/>
      <point x="163" y="670"/>
      <point x="163" y="705" type="qcurve"/>
      <point x="163" y="742"/>
      <point x="216" y="788"/>
      <point x="251" y="788" type="qcurve"/>
      <point x="286" y="788"/>
      <point x="337" y="739"/>
    </contour>
  </outline>
</glyph>
<glyph name="acutecomb" format="2">
  <advance width="0" height="1000"/>
  <unicode hex="0301"/>
  <outline>
    <contour>
      <point x="393" y="724" type="line"/>
      <point x="132" y="644" type="line"/>
      <point x="107" y="688" type="line"/>
      <point x="360" y="792" type="line"/>
    </contour>
  </outline>
</glyph>
<glyph name="dieresiscomb" format="2">
  <advance width="0" height="1000"/>
  <unicode hex="0308"/>
  <outline>
    <contour>
      <point x="205" y="719" type="qcurve"/>
      <point x="205" y="695"/>
      <point x="166" y="661"/>
      <point x="143" y="661" type="qcurve"/>
      <point x="121" y="661"/>
      <point x="81" y="695"/>
      <point x="81" y="719" type="qcurve"/>
      <point x="81" y="742"/>
      <point x="121" y="776"/>
      <point x="143" y="776" type="qcurve"/>
      <point x="166" y="776"/>
      <point x="205" y="742"/>
    </contour>
    <contour>
      <point x="419" y="719" type="qcurve"/>
      <point x="419" y="695"/>
      <point x="380" y="661"/>
      <point x="357" y="661" type="qcurve"/>
      <point x="335" y="661"/>
      <point x="295" y="695"/>
      <point x="295" y="719" type="qcurve"/>
      <point x="295" y="742"/>
      <point x="335" y="776"/>
      <point x="357" y="776" type="qcurve"/>
      <point x="380" y="776"/>
      <point x="419" y="742"/>
    </contour>
  </outline>
</glyph>
<glyph name="Alpha-grek" format="2">
  <advance width="1000" height="1000"/>
  <unicode hex="0391"/>
  <outline>
    <contour>
      <point x="590" y="300" type="line"/>
      <point x="472" y="625" type="line"/>
      <point x="471" y="625" type="line"/>
      <point x="441" y="544"/>
      <point x="380" y="381"/>
      <point x="347" y="300" type="qcurve"/>
    </contour>
    <contour>
      <point x="925" y="20" type="qcurve"/>
      <point x="925" y="10"/>
      <point x="905" y="-4"/>
      <point x="896" y="-4" type="qcurve"/>
      <point x="866" y="-4"/>
      <point x="805" y="-2"/>
      <point x="775" y="-2" type="qcurve"/>
      <point x="734" y="-2"/>
      <point x="651" y="-4"/>
      <point x="610" y="-4" type="qcurve"/>
      <point x="604" y="-4"/>
      <point x="586" y="11"/>
      <point x="586" y="17" type="qcurve"/>
      <point x="586" y="29"/>
      <point x="603" y="36"/>
      <point x="625" y="36"/>
      <point x="633" y="36" type="qcurve"/>
      <point x="647" y="36"/>
      <point x="674" y="44"/>
      <point x="674" y="63" type="qcurve"/>
      <point x="674" y="74"/>
      <point x="657" y="127"/>
      <point x="632" y="191"/>
      <point x="609" y="247"/>
      <point x="604" y="261" type="qcurve"/>
      <point x="336" y="261" type="line"/>
      <point x="332" y="252"/>
      <point x="316" y="208"/>
      <point x="295" y="153"/>
      <point x="276" y="99"/>
      <point x="263" y="60"/>
      <point x="263" y="54" type="qcurve"/>
      <point x="263" y="42"/>
      <point x="294" y="35"/>
      <point x="331" y="36"/>
      <point x="338" y="36" type="qcurve"/>
      <point x="346" y="36"/>
      <point x="364" y="25"/>
      <point x="364" y="16" type="qcurve"/>
      <point x="364" y="6"/>
      <point x="343" y="-3"/>
      <point x="335" y="-3" type="qcurve"/>
      <point x="125" y="-3" type="line"/>
      <point x="117" y="-3"/>
      <point x="98" y="5"/>
      <point x="98" y="15" type="qcurve"/>
      <point x="98" y="34"/>
      <point x="117" y="37"/>
      <point x="130" y="37" type="qcurve"/>
      <point x="161" y="37"/>
      <point x="189" y="67"/>
      <point x="201" y="92" type="qcurve"/>
      <point x="207" y="103"/>
      <point x="217" y="127"/>
      <point x="221" y="139" type="qcurve"/>
      <point x="280" y="288"/>
      <point x="390" y="588"/>
      <point x="444" y="739" type="qcurve"/>
      <point x="464" y="743"/>
      <point x="511" y="753"/>
      <point x="530" y="753" type="qcurve"/>
      <point x="533" y="753"/>
      <point x="549" y="751"/>
      <point x="550" y="747" type="qcurve"/>
      <point x="781" y="162" type="line"/>
      <point x="789" y="142"/>
      <point x="803" y="100"/>
      <point x="814" y="81" type="qcurve"/>
      <point x="828" y="56"/>
      <point x="866" y="42"/>
      <point x="902" y="41"/>
      <point x="925" y="36"/>
    </contour>
  </outline>
</glyph>
<glyph name="Beta-grek" format="2">
  <advance width="1000" height="1000"/>
  <unicode hex="0392"/>
  <outline>
    <contour>
      <point x="694" y="210" type="qcurve"/>
      <point x="694" y="284"/>
      <point x="626" y="374"/>
      <point x="547" y="374" type="qcurve"/>
      <point x="534" y="374"/>
      <point x="506" y="375"/>
      <point x="492" y="375" type="qcurve"/>
      <point x="461" y="375"/>
      <point x="399" y="373"/>
      <point x="368" y="371" type="qcurve"/>
      <point x="368" y="67" type="line"/>
      <point x="368" y="44"/>
      <point x="398" y="32"/>
      <point x="417" y="32" type="qcurve"/>
      <point x="439" y="32"/>
      <point x="482" y="32"/>
      <point x="504" y="33" type="qcurve"/>
      <point x="558" y="37"/>
      <point x="644" y="76"/>
      <point x="694" y="152"/>
    </contour>
    <contour>
      <point x="641" y="565" type="qcurve"/>
      <point x="641" y="627"/>
      <point x="587" y="688"/>
      <point x="500" y="709"/>
      <point x="448" y="709" type="qcurve"/>
      <point x="440" y="709"/>
      <point x="401" y="707"/>
      <point x="368" y="697"/>
      <point x="368" y="685" type="qcurve"/>
      <point x="368" y="410" type="line"/>
      <point x="438" y="410" type="line"/>
      <point x="478" y="410"/>
      <point x="559" y="420"/>
      <point x="590" y="448" type="qcurve"/>
      <point x="614" y="469"/>
      <point x="641" y="534"/>
    </contour>
    <contour>
      <point x="830" y="224" type="qcurve"/>
      <point x="830" y="151"/>
      <point x="755" y="46"/>
      <point x="687" y="20" type="qcurve"/>
      <point x="641" y="3"/>
      <point x="544" y="-2"/>
      <point x="496" y="-2" type="qcurve"/>
      <point x="446" y="-2"/>
      <point x="344" y="1"/>
      <point x="294" y="1" type="qcurve"/>
      <point x="264" y="1"/>
      <point x="203" y="-3"/>
      <point x="173" y="-3" type="qcurve"/>
      <point x="166" y="-3"/>
      <point x="144" y="6"/>
      <point x="144" y="16" type="qcurve"/>
      <point x="144" y="29"/>
      <point x="171" y="36"/>
      <point x="203" y="36"/>
      <point x="211" y="38" type="qcurve"/>
      <point x="233" y="43"/>
      <point x="244" y="65"/>
      <point x="245" y="86" type="qcurve"/>
      <point x="247" y="103"/>
      <point x="247" y="138"/>
      <point x="247" y="154" type="qcurve"/>
      <point x="247" y="279"/>
      <point x="246" y="529"/>
      <point x="246" y="653" type="qcurve"/>
      <point x="246" y="689"/>
      <point x="209" y="700"/>
      <point x="180" y="700" type="qcurve"/>
      <point x="171" y="700"/>
      <point x="148" y="709"/>
      <point x="148" y="721" type="qcurve"/>
      <point x="148" y="727"/>
      <point x="167" y="741"/>
      <point x="172" y="741" type="qcurve"/>
      <point x="185" y="741"/>
      <point x="211" y="739"/>
      <point x="224" y="739" type="qcurve"/>
      <point x="251" y="739"/>
      <point x="306" y="738"/>
      <point x="333" y="738" type="qcurve"/>
      <point x="377" y="738"/>
      <point x="464" y="749"/>
      <point x="507" y="749" type="qcurve"/>
      <point x="554" y="749"/>
      <point x="649" y="740"/>
      <point x="727" y="708"/>
      <point x="774" y="638"/>
      <point x="774" y="578" type="qcurve"/>
      <point x="774" y="535"/>
      <point x="730" y="468"/>
      <point x="662" y="421"/>
      <point x="625" y="407" type="qcurve"/>
      <point x="674" y="399"/>
      <point x="768" y="356"/>
      <point x="830" y="281"/>
    </contour>
  </outline>
</glyph>
<glyph name="Gamma-grek" format="2">
  <advance width="1000" height="1000"/>
  <unicode hex="0393"/>
  <outline>
    <contour>
      <point x="818" y="555" type="qcurve"/>
      <point x="818" y="540"/>
      <point x="793" y="535"/>
      <point x="782" y="535" type="qcurve"/>
      <point x="766" y="535"/>
      <point x="749" y="563"/>
      <point x="740" y="599"/>
      <point x="736" y="610" type="qcurve"/>
      <point x="721" y="659"/>
      <point x="670" y="706"/>
      <point x="616" y="706" type="qcurve"/>
      <point x="585" y="706"/>
      <point x="525" y="708"/>
      <point x="494" y="708" type="qcurve"/>
      <point x="465" y="708"/>
      <point x="428" y="692"/>
      <point x="428" y="657" type="qcurve"/>
      <point x="428" y="520"/>
      <point x="430" y="245"/>
      <point x="430" y="108" type="qcurve"/>
      <point x="430" y="95"/>
      <point x="439" y="63"/>
      <point x="459" y="40"/>
      <point x="476" y="40" type="qcurve"/>
      <point x="486" y="40"/>
      <point x="506" y="43"/>
      <point x="516" y="43" type="qcurve"/>
      <point x="527" y="43"/>
      <point x="545" y="37"/>
      <point x="545" y="23" type="qcurve"/>
      <point x="545" y="7"/>
      <point x="525" y="0"/>
      <point x="512" y="0" type="qcurve"/>
      <point x="475" y="0"/>
      <point x="400" y="2"/>
      <point x="362" y="2" type="qcurve"/>
      <point x="326" y="2"/>
      <point x="253" y="-1"/>
      <point x="217" y="-1" type="qcurve"/>
      <point x="207" y="-1"/>
      <point x="185" y="9"/>
      <point x="185" y="21" type="qcurve"/>
      <point x="185" y="33"/>
      <point x="200" y="39"/>
      <point x="221" y="37"/>
      <point x="228" y="37" type="qcurve"/>
      <point x="267" y="37"/>
      <point x="297" y="73"/>
      <point x="297" y="110" type="qcurve"/>
      <point x="297" y="242"/>
      <point x="298" y="506"/>
      <point x="298" y="638" type="qcurve"/>
      <point x="298" y="661"/>
      <point x="284" y="705"/>
      <point x="255" y="705" type="qcurve"/>
      <point x="244" y="705"/>
      <point x="221" y="704"/>
      <point x="210" y="704" type="qcurve"/>
      <point x="203" y="704"/>
      <point x="184" y="717"/>
      <point x="184" y="724" type="qcurve"/>
      <point x="184" y="733"/>
      <point x="204" y="748"/>
      <point x="212" y="748" type="qcurve"/>
      <point x="226" y="748"/>
      <point x="253" y="746"/>
      <point x="266" y="746" type="qcurve"/>
      <point x="329" y="746"/>
      <point x="455" y="746"/>
      <point x="518" y="746" type="qcurve"/>
      <point x="563" y="746"/>
      <point x="653" y="746"/>
      <point x="698" y="748" type="qcurve"/>
      <point x="718" y="749"/>
      <point x="759" y="753"/>
      <point x="780" y="753" type="qcurve"/>
      <point x="792" y="753"/>
      <point x="803" y="748"/>
      <point x="810" y="738" type="qcurve"/>
      <point x="811" y="737"/>
      <point x="813" y="703"/>
      <point x="815" y="653"/>
      <point x="817" y="600"/>
      <point x="818" y="561"/>
    </contour>
  </outline>
</glyph>
<glyph name="Epsilon-grek" format="2">
  <advance width="1000" height="1000"/>
  <unicode hex="0395"/>
  <outline>
    <contour>
      <point x="808" y="192" type="qcurve"/>
      <point x="808" y="184"/>
      <point x="804" y="134"/>
      <point x="798" y="75"/>
      <point x="791" y="29"/>
      <point x="789" y="24" type="qcurve"/>
      <point x="783" y="13"/>
      <point x="769" y="6"/>
      <point x="756" y="6" type="qcurve"/>
      <point x="666" y="6"/>
      <point x="487" y="9"/>
      <point x="397" y="9" type="qcurve"/>
      <point x="346" y="9"/>
      <point x="245" y="2"/>
      <point x="194" y="2" type="qcurve"/>
      <point x="186" y="2"/>
      <point x="162" y="16"/>
      <point x="162" y="25" type="qcurve"/>
      <point x="162" y="43"/>
      <point x="192" y="51"/>
      <point x="205" y="51" type="qcurve"/>
      <point x="214" y="51"/>
      <point x="232" y="50"/>
      <point x="241" y="50" type="qcurve"/>
      <point x="264" y="50"/>
      <point x="280" y="87"/>
      <point x="280" y="135"/>
      <point x="280" y="149" type="qcurve"/>
      <point x="280" y="206"/>
      <point x="282" y="321"/>
      <point x="282" y="378" type="qcurve"/>
      <point x="282" y="583" type="line"/>
      <point x="282" y="603"/>
      <point x="282" y="641"/>
      <point x="280" y="660" type="qcurve"/>
      <point x="279" y="674"/>
      <point x="272" y="689"/>
      <point x="257" y="693" type="qcurve"/>
      <point x="244" y="696"/>
      <point x="216" y="695"/>
      <point x="202" y="695" type="qcurve"/>
      <point x="195" y="695"/>
      <point x="171" y="711"/>
      <point x="171" y="719" type="qcurve"/>
      <point x="171" y="727"/>
      <point x="193" y="743"/>
      <point x="200" y="743" type="qcurve"/>
      <point x="216" y="743"/>
      <point x="248" y="741"/>
      <point x="264" y="741" type="qcurve"/>
      <point x="308" y="741"/>
      <point x="396" y="741"/>
      <point x="440" y="741" type="qcurve"/>
      <point x="490" y="741"/>
      <point x="590" y="742"/>
      <point x="640" y="743" type="qcurve"/>
      <point x="665" y="744"/>
      <point x="714" y="747"/>
      <point x="739" y="747" type="qcurve"/>
      <point x="744" y="747"/>
      <point x="755" y="745"/>
      <point x="759" y="741" type="qcurve"/>
      <point x="761" y="740"/>
      <point x="761" y="735"/>
      <point x="761" y="733" type="qcurve"/>
      <point x="763" y="705"/>
      <point x="775" y="649"/>
      <point x="781" y="621" type="qcurve"/>
      <point x="783" y="614"/>
      <point x="786" y="600"/>
      <point x="786" y="592" type="qcurve"/>
      <point x="786" y="582"/>
      <point x="761" y="571"/>
      <point x="753" y="571" type="qcurve"/>
      <point x="747" y="571"/>
      <point x="733" y="573"/>
      <point x="728" y="577" type="qcurve"/>
      <point x="726" y="579"/>
      <point x="724" y="588"/>
      <point x="723" y="590" type="qcurve"/>
      <point x="711" y="627"/>
      <point x="661" y="680"/>
      <point x="623" y="691" type="qcurve"/>
      <point x="599" y="699"/>
      <point x="549" y="701"/>
      <point x="524" y="701" type="qcurve"/>
      <point x="498" y="701"/>
      <point x="445" y="700"/>
      <point x="419" y="700" type="qcurve"/>
      <point x="400" y="700"/>
      <point x="400" y="681" type="qcurve"/>
      <point x="400" y="413" type="line"/>
      <point x="418" y="413"/>
      <point x="454" y="412"/>
      <point x="472" y="412" type="qcurve"/>
      <point x="557" y="412"/>
      <point x="639" y="427" type="qcurve"/>
      <point x="653" y="429"/>
      <point x="683" y="435"/>
      <point x="697" y="435" type="qcurve"/>
      <point x="710" y="435"/>
      <point x="710" y="424" type="qcurve"/>
      <point x="710" y="419"/>
      <point x="695" y="389"/>
      <point x="677" y="363"/>
      <point x="672" y="363" type="qcurve"/>
      <point x="658" y="363" type="line"/>
      <point x="625" y="363"/>
      <point x="560" y="370"/>
      <point x="527" y="370" type="qcurve"/>
      <point x="517" y="370"/>
      <point x="475" y="369"/>
      <point x="431" y="362"/>
      <point x="400" y="345"/>
      <point x="400" y="329" type="qcurve"/>
      <point x="400" y="89" type="line"/>
      <point x="400" y="61"/>
      <point x="426" y="49"/>
      <point x="450" y="49" type="qcurve"/>
      <point x="580" y="49" type="line"/>
      <point x="654" y="49"/>
      <point x="734" y="128"/>
      <point x="759" y="192" type="qcurve"/>
      <point x="760" y="194"/>
      <point x="762" y="200"/>
      <point x="764" y="202" type="qcurve"/>
      <point x="769" y="205"/>
      <point x="780" y="207"/>
      <point x="785" y="207" type="qcurve"/>
      <point x="793" y="207"/>
      <point x="808" y="202"/>
    </contour>
  </outline>
</glyph>
<glyph name="Eta-grek" format="2">
  <advance width="1000" height="1000"/>
  <unicode hex="0397"/>
  <outline>
    <contour>
      <point x="912" y="23" type="qcurve"/>
      <point x="912" y="5"/>
      <point x="886" y="-1"/>
      <point x="872" y="-1" type="qcurve"/>
      <point x="844" y="-1"/>
      <point x="789" y="2"/>
      <point x="761" y="2" type="qcurve"/>
      <point x="730" y="2"/>
      <point x="668" y="-2"/>
      <point x="636" y="-2" type="qcurve"/>
      <point x="626" y="-2"/>
      <point x="608" y="5"/>
      <point x="608" y="18" type="qcurve"/>
      <point x="608" y="39"/>
      <point x="636" y="40"/>
      <point x="650" y="40" type="qcurve"/>
      <point x="672" y="40"/>
      <point x="691" y="62"/>
      <point x="696" y="95"/>
      <point x="696" y="112" type="qcurve"/>
      <point x="696" y="173"/>
      <point x="695" y="295"/>
      <point x="695" y="356" type="qcurve"/>
      <point x="309" y="356" type="line"/>
      <point x="309" y="95" type="line"/>
      <point x="309" y="76"/>
      <point x="319" y="43"/>
      <point x="344" y="43" type="qcurve"/>
      <point x="352" y="43"/>
      <point x="370" y="44"/>
      <point x="378" y="44" type="qcurve"/>
      <point x="387" y="44"/>
      <point x="405" y="33"/>
      <point x="405" y="23" type="qcurve"/>
      <point x="405" y="9"/>
      <point x="391" y="-1"/>
      <point x="378" y="-1" type="qcurve"/>
      <point x="347" y="-1"/>
      <point x="285" y="2"/>
      <point x="254" y="2" type="qcurve"/>
      <point x="222" y="2"/>
      <point x="156" y="-2"/>
      <point x="124" y="-2" type="qcurve"/>
      <point x="114" y="-2"/>
      <point x="96" y="5"/>
      <point x="96" y="18" type="qcurve"/>
      <point x="96" y="35"/>
      <point x="115" y="41"/>
      <point x="143" y="40"/>
      <point x="170" y="46"/>
      <point x="189" y="77"/>
      <point x="189" y="114" type="qcurve"/>
      <point x="189" y="244"/>
      <point x="188" y="503"/>
      <point x="188" y="633" type="qcurve"/>
      <point x="188" y="646"/>
      <point x="181" y="678"/>
      <point x="164" y="703"/>
      <point x="147" y="703" type="qcurve"/>
      <point x="140" y="703"/>
      <point x="124" y="701"/>
      <point x="116" y="701" type="qcurve"/>
      <point x="108" y="701"/>
      <point x="87" y="711"/>
      <point x="87" y="721" type="qcurve"/>
      <point x="87" y="737"/>
      <point x="104" y="746"/>
      <point x="117" y="746" type="qcurve"/>
      <point x="149" y="746"/>
      <point x="212" y="743"/>
      <point x="243" y="743" type="qcurve"/>
      <point x="269" y="743"/>
      <point x="322" y="745"/>
      <point x="349" y="747" type="qcurve"/>
      <point x="354" y="747"/>
      <point x="363" y="748"/>
      <point x="368" y="748" type="qcurve"/>
      <point x="379" y="748"/>
      <point x="396" y="741"/>
      <point x="396" y="727" type="qcurve"/>
      <point x="396" y="706"/>
      <point x="368" y="706"/>
      <point x="354" y="706" type="qcurve"/>
      <point x="327" y="706"/>
      <point x="312" y="678"/>
      <point x="310" y="655" type="qcurve"/>
      <point x="308" y="639"/>
      <point x="307" y="605"/>
      <point x="307" y="588" type="qcurve"/>
      <point x="307" y="543"/>
      <point x="309" y="454"/>
      <point x="309" y="409" type="qcurve"/>
      <point x="695" y="409" type="line"/>
      <point x="695" y="468"/>
      <point x="696" y="587"/>
      <point x="696" y="646" type="qcurve"/>
      <point x="696" y="666"/>
      <point x="686" y="703"/>
      <point x="660" y="703" type="qcurve"/>
      <point x="652" y="703"/>
      <point x="635" y="701"/>
      <point x="627" y="701" type="qcurve"/>
      <point x="619" y="701"/>
      <point x="598" y="711"/>
      <point x="598" y="721" type="qcurve"/>
      <point x="598" y="736"/>
      <point x="614" y="746"/>
      <point x="627" y="746" type="qcurve"/>
      <point x="658" y="746"/>
      <point x="719" y="743"/>
      <point x="750" y="743" type="qcurve"/>
      <point x="777" y="743"/>
      <point x="831" y="745"/>
      <point x="858" y="747" type="qcurve"/>
      <point x="863" y="747"/>
      <point x="873" y="748"/>
      <point x="878" y="748" type="qcurve"/>
      <point x="889" y="748"/>
      <point x="906" y="741"/>
      <point x="906" y="727" type="qcurve"/>
      <point x="906" y="707"/>
      <point x="877" y="706"/>
      <point x="863" y="706" type="qcurve"/>
      <point x="841" y="706"/>
      <point x="820" y="683"/>
      <point x="815" y="648"/>
      <point x="815" y="631" type="qcurve"/>
      <point x="815" y="497"/>
      <point x="816" y="229"/>
      <point x="816" y="95" type="qcurve"/>
      <point x="816" y="76"/>
      <point x="826" y="43"/>
      <point x="851" y="43" type="qcurve"/>
      <point x="859" y="43"/>
      <point x="877" y="44"/>
      <point x="885" y="44" type="qcurve"/>
      <point x="893" y="44"/>
      <point x="912" y="33"/>
    </contour>
  </outline>
</glyph>
<glyph name="Theta-grek" format="2">
  <advance width="1000" height="1000"/>
  <unicode hex="0398"/>
  <outline>
    <contour>
      <point x="661" y="405" type="line"/>
      <point x="661" y="392"/>
      <point x="657" y="362"/>
      <point x="642" y="342"/>
      <point x="624" y="342" type="qcurve"/>
      <point x="620" y="342"/>
      <point x="612" y="344"/>
      <point x="608" y="345" type="qcurve"/>
      <point x="582" y="351"/>
      <point x="528" y="354"/>
      <point x="502" y="354" type="qcurve"/>
      <point x="471" y="354"/>
      <point x="407" y="353"/>
      <point x="380" y="336" type="qcurve"/>
      <point x="372" y="332"/>
      <point x="356" y="322"/>
      <point x="346" y="322" type="qcurve"/>
      <point x="330" y="322"/>
      <point x="330" y="339" type="qcurve"/>
      <point x="330" y="347"/>
      <point x="341" y="385"/>
      <point x="358" y="419"/>
      <point x="367" y="419" type="qcurve"/>
      <point x="378" y="419"/>
      <point x="400" y="415"/>
      <point x="410" y="413" type="qcurve"/>
      <point x="443" y="409"/>
      <point x="509" y="407"/>
      <point x="542" y="407" type="qcurve"/>
      <point x="561" y="407"/>
      <point x="598" y="412"/>
      <point x="614" y="423" type="qcurve"/>
      <point x="622" y="428"/>
      <point x="635" y="441"/>
      <point x="645" y="441" type="qcurve"/>
      <point x="650" y="441"/>
      <point x="661" y="430"/>
      <point x="661" y="425" type="qcurve"/>
    </contour>
    <contour>
      <point x="737" y="379" type="qcurve"/>
      <point x="737" y="435"/>
      <point x="712" y="552"/>
      <point x="656" y="653"/>
      <point x="565" y="715"/>
      <point x="498" y="715" type="qcurve"/>
      <point x="434" y="715"/>
      <point x="342" y="649"/>
      <point x="283" y="545"/>
      <point x="256" y="426"/>
      <point x="256" y="372" type="qcurve"/>
      <point x="256" y="316"/>
      <point x="282" y="200"/>
      <point x="339" y="101"/>
      <point x="432" y="40"/>
      <point x="498" y="40" type="qcurve"/>
      <point x="566" y="40"/>
      <point x="657" y="103"/>
      <point x="713" y="204"/>
      <point x="737" y="323"/>
    </contour>
    <contour>
      <point x="875" y="381" type="qcurve"/>
      <point x="875" y="262"/>
      <point x="787" y="90"/>
      <point x="619" y="-1"/>
      <point x="498" y="-1" type="qcurve"/>
      <point x="382" y="-1"/>
      <point x="214" y="88"/>
      <point x="125" y="255"/>
      <point x="125" y="372" type="qcurve"/>
      <point x="125" y="455"/>
      <point x="178" y="595"/>
      <point x="277" y="699"/>
      <point x="414" y="757"/>
      <point x="498" y="757" type="qcurve"/>
      <point x="616" y="757"/>
      <point x="785" y="667"/>
      <point x="875" y="499"/>
    </contour>
  </outline>
</glyph>
<glyph name="Kappa-grek" format="2">
  <advance width="1000" height="1000"/>
  <unicode hex="039A"/>
  <outline>
    <contour>
      <point x="892" y="22" type="qcurve"/>
      <point x="892" y="18"/>
      <point x="891" y="12"/>
      <point x="888" y="9" type="qcurve"/>
      <point x="885" y="6"/>
      <point x="852" y="2"/>
      <point x="808" y="0"/>
      <point x="770" y="0"/>
      <point x="764" y="0" type="qcurve"/>
      <point x="742" y="0"/>
      <point x="685" y="2"/>
      <point x="666" y="12" type="qcurve"/>
      <point x="659" y="16"/>
      <point x="631" y="49"/>
      <point x="598" y="93"/>
      <point x="570" y="131"/>
      <point x="564" y="140" type="qcurve"/>
      <point x="398" y="367" type="line"/>
      <point x="363" y="340" type="line"/>
      <point x="363" y="280"/>
      <point x="362" y="161"/>
      <point x="362" y="102" type="qcurve"/>
      <point x="362" y="83"/>
      <point x="372" y="46"/>
      <point x="397" y="46" type="qcurve"/>
      <point x="405" y="46"/>
      <point x="423" y="47"/>
      <point x="431" y="47" type="qcurve"/>
      <point x="440" y="47"/>
      <point x="462" y="38"/>
      <point x="462" y="27" type="qcurve"/>
      <point x="462" y="13"/>
      <point x="445" y="3"/>
      <point x="432" y="3" type="qcurve"/>
      <point x="401" y="3"/>
      <point x="339" y="6"/>
      <point x="308" y="6" type="qcurve"/>
      <point x="271" y="6"/>
      <point x="199" y="0"/>
      <point x="162" y="0" type="qcurve"/>
      <point x="139" y="0"/>
      <point x="139" y="24" type="qcurve"/>
      <point x="139" y="38"/>
      <point x="160" y="43"/>
      <point x="190" y="43"/>
      <point x="220" y="50"/>
      <point x="241" y="82"/>
      <point x="241" y="118" type="qcurve"/>
      <point x="241" y="249"/>
      <point x="240" y="510"/>
      <point x="240" y="640" type="qcurve"/>
      <point x="240" y="653"/>
      <point x="238" y="683"/>
      <point x="224" y="706"/>
      <point x="206" y="706" type="qcurve"/>
      <point x="195" y="706"/>
      <point x="172" y="705"/>
      <point x="161" y="705" type="qcurve"/>
      <point x="152" y="705"/>
      <point x="140" y="718"/>
      <point x="140" y="727" type="qcurve"/>
      <point x="140" y="750"/>
      <point x="166" y="750" type="qcurve"/>
      <point x="198" y="750"/>
      <point x="264" y="747"/>
      <point x="296" y="747" type="qcurve"/>
      <point x="331" y="747"/>
      <point x="400" y="752"/>
      <point x="434" y="752" type="qcurve"/>
      <point x="444" y="752"/>
      <point x="460" y="744"/>
      <point x="460" y="733" type="qcurve"/>
      <point x="460" y="716"/>
      <point x="440" y="707"/>
      <point x="412" y="709"/>
      <point x="400" y="709" type="qcurve"/>
      <point x="382" y="709"/>
      <point x="365" y="684"/>
      <point x="361" y="650"/>
      <point x="361" y="636" type="qcurve"/>
      <point x="361" y="578"/>
      <point x="362" y="463"/>
      <point x="361" y="405" type="qcurve"/>
      <point x="448" y="485"/>
      <point x="611" y="645"/>
      <point x="684" y="737" type="qcurve"/>
      <point x="690" y="745"/>
      <point x="702" y="748"/>
      <point x="711" y="748" type="qcurve"/>
      <point x="735" y="748"/>
      <point x="782" y="748"/>
      <point x="806" y="748" type="qcurve"/>
      <point x="814" y="748"/>
      <point x="834" y="743"/>
      <point x="834" y="732" type="qcurve"/>
      <point x="834" y="723"/>
      <point x="830" y="718" type="qcurve"/>
      <point x="829" y="717"/>
      <point x="804" y="711"/>
      <point x="777" y="705"/>
      <point x="772" y="703" type="qcurve"/>
      <point x="762" y="698"/>
      <point x="744" y="683"/>
      <point x="736" y="675" type="qcurve"/>
      <point x="483" y="440" type="line"/>
      <point x="546" y="363"/>
      <point x="669" y="206"/>
      <point x="735" y="131" type="qcurve"/>
      <point x="749" y="114"/>
      <point x="779" y="81"/>
      <point x="797" y="67" type="qcurve"/>
      <point x="810" y="57"/>
      <point x="838" y="45"/>
      <point x="854" y="42" type="qcurve"/>
      <point x="864" y="41"/>
      <point x="892" y="36"/>
    </contour>
  </outline>
</glyph>
